<?xml version="1.0" encoding="utf-8" standalone="no"?>
<!DOCTYPE svg PUBLIC "-//W3C//DTD SVG 1.1//EN"
  "http://www.w3.org/Graphics/SVG/1.1/DTD/svg11.dtd">
<svg xmlns:xlink="http://www.w3.org/1999/xlink" width="576pt" height="864pt" viewBox="0 0 576 864" xmlns="http://www.w3.org/2000/svg" version="1.1">
 <metadata>
  <rdf:RDF xmlns:dc="http://purl.org/dc/elements/1.1/" xmlns:cc="http://creativecommons.org/ns#" xmlns:rdf="http://www.w3.org/1999/02/22-rdf-syntax-ns#">
   <cc:Work>
    <dc:type rdf:resource="http://purl.org/dc/dcmitype/StillImage"/>
    <dc:date>2022-07-04T17:48:48.725596</dc:date>
    <dc:format>image/svg+xml</dc:format>
    <dc:creator>
     <cc:Agent>
      <dc:title>Matplotlib v3.5.1, https://matplotlib.org/</dc:title>
     </cc:Agent>
    </dc:creator>
   </cc:Work>
  </rdf:RDF>
 </metadata>
 <defs>
  <style type="text/css">*{stroke-linejoin: round; stroke-linecap: butt}</style>
 </defs>
 <g id="figure_1">
  <g id="patch_1">
   <path d="M 0 864 
L 576 864 
L 576 0 
L 0 0 
L 0 864 
z
" style="fill: none"/>
  </g>
  <g id="axes_1">
   <g id="patch_2">
    <path d="M 66.15 267.436966 
L 389.316667 267.436966 
L 389.316667 10.8 
L 66.15 10.8 
z
" style="fill: #ffffff"/>
   </g>
   <g id="matplotlib.axis_1">
    <g id="xtick_1">
     <g id="line2d_1">
      <defs>
       <path id="mce69aa12e7" d="M 0 0 
L 0 3.5 
" style="stroke: #000000; stroke-width: 0.8"/>
      </defs>
      <g>
       <use xlink:href="#mce69aa12e7" x="80.839394" y="267.436966" style="stroke: #000000; stroke-width: 0.8"/>
      </g>
     </g>
    </g>
    <g id="xtick_2">
     <g id="line2d_2">
      <g>
       <use xlink:href="#mce69aa12e7" x="139.59697" y="267.436966" style="stroke: #000000; stroke-width: 0.8"/>
      </g>
     </g>
    </g>
    <g id="xtick_3">
     <g id="line2d_3">
      <g>
       <use xlink:href="#mce69aa12e7" x="198.354545" y="267.436966" style="stroke: #000000; stroke-width: 0.8"/>
      </g>
     </g>
    </g>
    <g id="xtick_4">
     <g id="line2d_4">
      <g>
       <use xlink:href="#mce69aa12e7" x="257.112121" y="267.436966" style="stroke: #000000; stroke-width: 0.8"/>
      </g>
     </g>
    </g>
    <g id="xtick_5">
     <g id="line2d_5">
      <g>
       <use xlink:href="#mce69aa12e7" x="315.869697" y="267.436966" style="stroke: #000000; stroke-width: 0.8"/>
      </g>
     </g>
    </g>
    <g id="xtick_6">
     <g id="line2d_6">
      <g>
       <use xlink:href="#mce69aa12e7" x="374.627273" y="267.436966" style="stroke: #000000; stroke-width: 0.8"/>
      </g>
     </g>
    </g>
   </g>
   <g id="matplotlib.axis_2">
    <g id="ytick_1">
     <g id="line2d_7">
      <defs>
       <path id="m25e0abec67" d="M 0 0 
L -3.5 0 
" style="stroke: #000000; stroke-width: 0.8"/>
      </defs>
      <g>
       <use xlink:href="#m25e0abec67" x="66.15" y="255.771649" style="stroke: #000000; stroke-width: 0.8"/>
      </g>
     </g>
     <g id="text_1">
      <!-- 0 -->
      <g transform="translate(52.7875 259.570868)scale(0.1 -0.1)">
       <defs>
        <path id="DejaVuSans-30" d="M 2034 4250 
Q 1547 4250 1301 3770 
Q 1056 3291 1056 2328 
Q 1056 1369 1301 889 
Q 1547 409 2034 409 
Q 2525 409 2770 889 
Q 3016 1369 3016 2328 
Q 3016 3291 2770 3770 
Q 2525 4250 2034 4250 
z
M 2034 4750 
Q 2819 4750 3233 4129 
Q 3647 3509 3647 2328 
Q 3647 1150 3233 529 
Q 2819 -91 2034 -91 
Q 1250 -91 836 529 
Q 422 1150 422 2328 
Q 422 3509 836 4129 
Q 1250 4750 2034 4750 
z
" transform="scale(0.015625)"/>
       </defs>
       <use xlink:href="#DejaVuSans-30"/>
      </g>
     </g>
    </g>
    <g id="ytick_2">
     <g id="line2d_8">
      <g>
       <use xlink:href="#m25e0abec67" x="66.15" y="224.790787" style="stroke: #000000; stroke-width: 0.8"/>
      </g>
     </g>
     <g id="text_2">
      <!-- 2 -->
      <g transform="translate(52.7875 228.590006)scale(0.1 -0.1)">
       <defs>
        <path id="DejaVuSans-32" d="M 1228 531 
L 3431 531 
L 3431 0 
L 469 0 
L 469 531 
Q 828 903 1448 1529 
Q 2069 2156 2228 2338 
Q 2531 2678 2651 2914 
Q 2772 3150 2772 3378 
Q 2772 3750 2511 3984 
Q 2250 4219 1831 4219 
Q 1534 4219 1204 4116 
Q 875 4013 500 3803 
L 500 4441 
Q 881 4594 1212 4672 
Q 1544 4750 1819 4750 
Q 2544 4750 2975 4387 
Q 3406 4025 3406 3419 
Q 3406 3131 3298 2873 
Q 3191 2616 2906 2266 
Q 2828 2175 2409 1742 
Q 1991 1309 1228 531 
z
" transform="scale(0.015625)"/>
       </defs>
       <use xlink:href="#DejaVuSans-32"/>
      </g>
     </g>
    </g>
    <g id="ytick_3">
     <g id="line2d_9">
      <g>
       <use xlink:href="#m25e0abec67" x="66.15" y="193.809926" style="stroke: #000000; stroke-width: 0.8"/>
      </g>
     </g>
     <g id="text_3">
      <!-- 4 -->
      <g transform="translate(52.7875 197.609144)scale(0.1 -0.1)">
       <defs>
        <path id="DejaVuSans-34" d="M 2419 4116 
L 825 1625 
L 2419 1625 
L 2419 4116 
z
M 2253 4666 
L 3047 4666 
L 3047 1625 
L 3713 1625 
L 3713 1100 
L 3047 1100 
L 3047 0 
L 2419 0 
L 2419 1100 
L 313 1100 
L 313 1709 
L 2253 4666 
z
" transform="scale(0.015625)"/>
       </defs>
       <use xlink:href="#DejaVuSans-34"/>
      </g>
     </g>
    </g>
    <g id="ytick_4">
     <g id="line2d_10">
      <g>
       <use xlink:href="#m25e0abec67" x="66.15" y="162.829064" style="stroke: #000000; stroke-width: 0.8"/>
      </g>
     </g>
     <g id="text_4">
      <!-- 6 -->
      <g transform="translate(52.7875 166.628283)scale(0.1 -0.1)">
       <defs>
        <path id="DejaVuSans-36" d="M 2113 2584 
Q 1688 2584 1439 2293 
Q 1191 2003 1191 1497 
Q 1191 994 1439 701 
Q 1688 409 2113 409 
Q 2538 409 2786 701 
Q 3034 994 3034 1497 
Q 3034 2003 2786 2293 
Q 2538 2584 2113 2584 
z
M 3366 4563 
L 3366 3988 
Q 3128 4100 2886 4159 
Q 2644 4219 2406 4219 
Q 1781 4219 1451 3797 
Q 1122 3375 1075 2522 
Q 1259 2794 1537 2939 
Q 1816 3084 2150 3084 
Q 2853 3084 3261 2657 
Q 3669 2231 3669 1497 
Q 3669 778 3244 343 
Q 2819 -91 2113 -91 
Q 1303 -91 875 529 
Q 447 1150 447 2328 
Q 447 3434 972 4092 
Q 1497 4750 2381 4750 
Q 2619 4750 2861 4703 
Q 3103 4656 3366 4563 
z
" transform="scale(0.015625)"/>
       </defs>
       <use xlink:href="#DejaVuSans-36"/>
      </g>
     </g>
    </g>
    <g id="ytick_5">
     <g id="line2d_11">
      <g>
       <use xlink:href="#m25e0abec67" x="66.15" y="131.848202" style="stroke: #000000; stroke-width: 0.8"/>
      </g>
     </g>
     <g id="text_5">
      <!-- 8 -->
      <g transform="translate(52.7875 135.647421)scale(0.1 -0.1)">
       <defs>
        <path id="DejaVuSans-38" d="M 2034 2216 
Q 1584 2216 1326 1975 
Q 1069 1734 1069 1313 
Q 1069 891 1326 650 
Q 1584 409 2034 409 
Q 2484 409 2743 651 
Q 3003 894 3003 1313 
Q 3003 1734 2745 1975 
Q 2488 2216 2034 2216 
z
M 1403 2484 
Q 997 2584 770 2862 
Q 544 3141 544 3541 
Q 544 4100 942 4425 
Q 1341 4750 2034 4750 
Q 2731 4750 3128 4425 
Q 3525 4100 3525 3541 
Q 3525 3141 3298 2862 
Q 3072 2584 2669 2484 
Q 3125 2378 3379 2068 
Q 3634 1759 3634 1313 
Q 3634 634 3220 271 
Q 2806 -91 2034 -91 
Q 1263 -91 848 271 
Q 434 634 434 1313 
Q 434 1759 690 2068 
Q 947 2378 1403 2484 
z
M 1172 3481 
Q 1172 3119 1398 2916 
Q 1625 2713 2034 2713 
Q 2441 2713 2670 2916 
Q 2900 3119 2900 3481 
Q 2900 3844 2670 4047 
Q 2441 4250 2034 4250 
Q 1625 4250 1398 4047 
Q 1172 3844 1172 3481 
z
" transform="scale(0.015625)"/>
       </defs>
       <use xlink:href="#DejaVuSans-38"/>
      </g>
     </g>
    </g>
    <g id="ytick_6">
     <g id="line2d_12">
      <g>
       <use xlink:href="#m25e0abec67" x="66.15" y="100.867341" style="stroke: #000000; stroke-width: 0.8"/>
      </g>
     </g>
     <g id="text_6">
      <!-- 10 -->
      <g transform="translate(46.425 104.666559)scale(0.1 -0.1)">
       <defs>
        <path id="DejaVuSans-31" d="M 794 531 
L 1825 531 
L 1825 4091 
L 703 3866 
L 703 4441 
L 1819 4666 
L 2450 4666 
L 2450 531 
L 3481 531 
L 3481 0 
L 794 0 
L 794 531 
z
" transform="scale(0.015625)"/>
       </defs>
       <use xlink:href="#DejaVuSans-31"/>
       <use xlink:href="#DejaVuSans-30" x="63.623047"/>
      </g>
     </g>
    </g>
    <g id="ytick_7">
     <g id="line2d_13">
      <g>
       <use xlink:href="#m25e0abec67" x="66.15" y="69.886479" style="stroke: #000000; stroke-width: 0.8"/>
      </g>
     </g>
     <g id="text_7">
      <!-- 12 -->
      <g transform="translate(46.425 73.685698)scale(0.1 -0.1)">
       <use xlink:href="#DejaVuSans-31"/>
       <use xlink:href="#DejaVuSans-32" x="63.623047"/>
      </g>
     </g>
    </g>
    <g id="ytick_8">
     <g id="line2d_14">
      <g>
       <use xlink:href="#m25e0abec67" x="66.15" y="38.905617" style="stroke: #000000; stroke-width: 0.8"/>
      </g>
     </g>
     <g id="text_8">
      <!-- 14 -->
      <g transform="translate(46.425 42.704836)scale(0.1 -0.1)">
       <use xlink:href="#DejaVuSans-31"/>
       <use xlink:href="#DejaVuSans-34" x="63.623047"/>
      </g>
     </g>
    </g>
    <g id="text_9">
     <!-- Cumulative $\rm\Delta G_{\lambda}$ -->
     <g transform="translate(29.1475 178.818483)rotate(-90)scale(0.1 -0.1)">
      <defs>
       <path id="DejaVuSans-43" d="M 4122 4306 
L 4122 3641 
Q 3803 3938 3442 4084 
Q 3081 4231 2675 4231 
Q 1875 4231 1450 3742 
Q 1025 3253 1025 2328 
Q 1025 1406 1450 917 
Q 1875 428 2675 428 
Q 3081 428 3442 575 
Q 3803 722 4122 1019 
L 4122 359 
Q 3791 134 3420 21 
Q 3050 -91 2638 -91 
Q 1578 -91 968 557 
Q 359 1206 359 2328 
Q 359 3453 968 4101 
Q 1578 4750 2638 4750 
Q 3056 4750 3426 4639 
Q 3797 4528 4122 4306 
z
" transform="scale(0.015625)"/>
       <path id="DejaVuSans-75" d="M 544 1381 
L 544 3500 
L 1119 3500 
L 1119 1403 
Q 1119 906 1312 657 
Q 1506 409 1894 409 
Q 2359 409 2629 706 
Q 2900 1003 2900 1516 
L 2900 3500 
L 3475 3500 
L 3475 0 
L 2900 0 
L 2900 538 
Q 2691 219 2414 64 
Q 2138 -91 1772 -91 
Q 1169 -91 856 284 
Q 544 659 544 1381 
z
M 1991 3584 
L 1991 3584 
z
" transform="scale(0.015625)"/>
       <path id="DejaVuSans-6d" d="M 3328 2828 
Q 3544 3216 3844 3400 
Q 4144 3584 4550 3584 
Q 5097 3584 5394 3201 
Q 5691 2819 5691 2113 
L 5691 0 
L 5113 0 
L 5113 2094 
Q 5113 2597 4934 2840 
Q 4756 3084 4391 3084 
Q 3944 3084 3684 2787 
Q 3425 2491 3425 1978 
L 3425 0 
L 2847 0 
L 2847 2094 
Q 2847 2600 2669 2842 
Q 2491 3084 2119 3084 
Q 1678 3084 1418 2786 
Q 1159 2488 1159 1978 
L 1159 0 
L 581 0 
L 581 3500 
L 1159 3500 
L 1159 2956 
Q 1356 3278 1631 3431 
Q 1906 3584 2284 3584 
Q 2666 3584 2933 3390 
Q 3200 3197 3328 2828 
z
" transform="scale(0.015625)"/>
       <path id="DejaVuSans-6c" d="M 603 4863 
L 1178 4863 
L 1178 0 
L 603 0 
L 603 4863 
z
" transform="scale(0.015625)"/>
       <path id="DejaVuSans-61" d="M 2194 1759 
Q 1497 1759 1228 1600 
Q 959 1441 959 1056 
Q 959 750 1161 570 
Q 1363 391 1709 391 
Q 2188 391 2477 730 
Q 2766 1069 2766 1631 
L 2766 1759 
L 2194 1759 
z
M 3341 1997 
L 3341 0 
L 2766 0 
L 2766 531 
Q 2569 213 2275 61 
Q 1981 -91 1556 -91 
Q 1019 -91 701 211 
Q 384 513 384 1019 
Q 384 1609 779 1909 
Q 1175 2209 1959 2209 
L 2766 2209 
L 2766 2266 
Q 2766 2663 2505 2880 
Q 2244 3097 1772 3097 
Q 1472 3097 1187 3025 
Q 903 2953 641 2809 
L 641 3341 
Q 956 3463 1253 3523 
Q 1550 3584 1831 3584 
Q 2591 3584 2966 3190 
Q 3341 2797 3341 1997 
z
" transform="scale(0.015625)"/>
       <path id="DejaVuSans-74" d="M 1172 4494 
L 1172 3500 
L 2356 3500 
L 2356 3053 
L 1172 3053 
L 1172 1153 
Q 1172 725 1289 603 
Q 1406 481 1766 481 
L 2356 481 
L 2356 0 
L 1766 0 
Q 1100 0 847 248 
Q 594 497 594 1153 
L 594 3053 
L 172 3053 
L 172 3500 
L 594 3500 
L 594 4494 
L 1172 4494 
z
" transform="scale(0.015625)"/>
       <path id="DejaVuSans-69" d="M 603 3500 
L 1178 3500 
L 1178 0 
L 603 0 
L 603 3500 
z
M 603 4863 
L 1178 4863 
L 1178 4134 
L 603 4134 
L 603 4863 
z
" transform="scale(0.015625)"/>
       <path id="DejaVuSans-76" d="M 191 3500 
L 800 3500 
L 1894 563 
L 2988 3500 
L 3597 3500 
L 2284 0 
L 1503 0 
L 191 3500 
z
" transform="scale(0.015625)"/>
       <path id="DejaVuSans-65" d="M 3597 1894 
L 3597 1613 
L 953 1613 
Q 991 1019 1311 708 
Q 1631 397 2203 397 
Q 2534 397 2845 478 
Q 3156 559 3463 722 
L 3463 178 
Q 3153 47 2828 -22 
Q 2503 -91 2169 -91 
Q 1331 -91 842 396 
Q 353 884 353 1716 
Q 353 2575 817 3079 
Q 1281 3584 2069 3584 
Q 2775 3584 3186 3129 
Q 3597 2675 3597 1894 
z
M 3022 2063 
Q 3016 2534 2758 2815 
Q 2500 3097 2075 3097 
Q 1594 3097 1305 2825 
Q 1016 2553 972 2059 
L 3022 2063 
z
" transform="scale(0.015625)"/>
       <path id="DejaVuSans-20" transform="scale(0.015625)"/>
       <path id="DejaVuSans-394" d="M 2188 4044 
L 906 525 
L 3472 525 
L 2188 4044 
z
M 50 0 
L 1831 4666 
L 2547 4666 
L 4325 0 
L 50 0 
z
" transform="scale(0.015625)"/>
       <path id="DejaVuSans-47" d="M 3809 666 
L 3809 1919 
L 2778 1919 
L 2778 2438 
L 4434 2438 
L 4434 434 
Q 4069 175 3628 42 
Q 3188 -91 2688 -91 
Q 1594 -91 976 548 
Q 359 1188 359 2328 
Q 359 3472 976 4111 
Q 1594 4750 2688 4750 
Q 3144 4750 3555 4637 
Q 3966 4525 4313 4306 
L 4313 3634 
Q 3963 3931 3569 4081 
Q 3175 4231 2741 4231 
Q 1884 4231 1454 3753 
Q 1025 3275 1025 2328 
Q 1025 1384 1454 906 
Q 1884 428 2741 428 
Q 3075 428 3337 486 
Q 3600 544 3809 666 
z
" transform="scale(0.015625)"/>
       <path id="DejaVuSans-3bb" d="M 1981 4316 
L 3597 0 
L 2988 0 
L 2006 2588 
L 800 0 
L 191 0 
L 1725 3356 
L 1494 3975 
Q 1347 4369 1013 4369 
L 713 4369 
L 713 4863 
L 1078 4856 
Q 1784 4847 1981 4316 
z
" transform="scale(0.015625)"/>
      </defs>
      <use xlink:href="#DejaVuSans-43" transform="translate(0 0.015625)"/>
      <use xlink:href="#DejaVuSans-75" transform="translate(69.824219 0.015625)"/>
      <use xlink:href="#DejaVuSans-6d" transform="translate(133.203125 0.015625)"/>
      <use xlink:href="#DejaVuSans-75" transform="translate(230.615234 0.015625)"/>
      <use xlink:href="#DejaVuSans-6c" transform="translate(293.994141 0.015625)"/>
      <use xlink:href="#DejaVuSans-61" transform="translate(321.777344 0.015625)"/>
      <use xlink:href="#DejaVuSans-74" transform="translate(383.056641 0.015625)"/>
      <use xlink:href="#DejaVuSans-69" transform="translate(422.265625 0.015625)"/>
      <use xlink:href="#DejaVuSans-76" transform="translate(450.048828 0.015625)"/>
      <use xlink:href="#DejaVuSans-65" transform="translate(509.228516 0.015625)"/>
      <use xlink:href="#DejaVuSans-20" transform="translate(570.751953 0.015625)"/>
      <use xlink:href="#DejaVuSans-394" transform="translate(602.539062 0.015625)"/>
      <use xlink:href="#DejaVuSans-47" transform="translate(670.947266 0.015625)"/>
      <use xlink:href="#DejaVuSans-3bb" transform="translate(749.394531 -16.390625)scale(0.7)"/>
     </g>
     <!-- (kcal/mol) -->
     <g transform="translate(40.345313 164.120827)rotate(-90)scale(0.1 -0.1)">
      <defs>
       <path id="DejaVuSans-28" d="M 1984 4856 
Q 1566 4138 1362 3434 
Q 1159 2731 1159 2009 
Q 1159 1288 1364 580 
Q 1569 -128 1984 -844 
L 1484 -844 
Q 1016 -109 783 600 
Q 550 1309 550 2009 
Q 550 2706 781 3412 
Q 1013 4119 1484 4856 
L 1984 4856 
z
" transform="scale(0.015625)"/>
       <path id="DejaVuSans-6b" d="M 581 4863 
L 1159 4863 
L 1159 1991 
L 2875 3500 
L 3609 3500 
L 1753 1863 
L 3688 0 
L 2938 0 
L 1159 1709 
L 1159 0 
L 581 0 
L 581 4863 
z
" transform="scale(0.015625)"/>
       <path id="DejaVuSans-63" d="M 3122 3366 
L 3122 2828 
Q 2878 2963 2633 3030 
Q 2388 3097 2138 3097 
Q 1578 3097 1268 2742 
Q 959 2388 959 1747 
Q 959 1106 1268 751 
Q 1578 397 2138 397 
Q 2388 397 2633 464 
Q 2878 531 3122 666 
L 3122 134 
Q 2881 22 2623 -34 
Q 2366 -91 2075 -91 
Q 1284 -91 818 406 
Q 353 903 353 1747 
Q 353 2603 823 3093 
Q 1294 3584 2113 3584 
Q 2378 3584 2631 3529 
Q 2884 3475 3122 3366 
z
" transform="scale(0.015625)"/>
       <path id="DejaVuSans-2f" d="M 1625 4666 
L 2156 4666 
L 531 -594 
L 0 -594 
L 1625 4666 
z
" transform="scale(0.015625)"/>
       <path id="DejaVuSans-6f" d="M 1959 3097 
Q 1497 3097 1228 2736 
Q 959 2375 959 1747 
Q 959 1119 1226 758 
Q 1494 397 1959 397 
Q 2419 397 2687 759 
Q 2956 1122 2956 1747 
Q 2956 2369 2687 2733 
Q 2419 3097 1959 3097 
z
M 1959 3584 
Q 2709 3584 3137 3096 
Q 3566 2609 3566 1747 
Q 3566 888 3137 398 
Q 2709 -91 1959 -91 
Q 1206 -91 779 398 
Q 353 888 353 1747 
Q 353 2609 779 3096 
Q 1206 3584 1959 3584 
z
" transform="scale(0.015625)"/>
       <path id="DejaVuSans-29" d="M 513 4856 
L 1013 4856 
Q 1481 4119 1714 3412 
Q 1947 2706 1947 2009 
Q 1947 1309 1714 600 
Q 1481 -109 1013 -844 
L 513 -844 
Q 928 -128 1133 580 
Q 1338 1288 1338 2009 
Q 1338 2731 1133 3434 
Q 928 4138 513 4856 
z
" transform="scale(0.015625)"/>
      </defs>
      <use xlink:href="#DejaVuSans-28"/>
      <use xlink:href="#DejaVuSans-6b" x="39.013672"/>
      <use xlink:href="#DejaVuSans-63" x="96.923828"/>
      <use xlink:href="#DejaVuSans-61" x="151.904297"/>
      <use xlink:href="#DejaVuSans-6c" x="213.183594"/>
      <use xlink:href="#DejaVuSans-2f" x="240.966797"/>
      <use xlink:href="#DejaVuSans-6d" x="274.658203"/>
      <use xlink:href="#DejaVuSans-6f" x="372.070312"/>
      <use xlink:href="#DejaVuSans-6c" x="433.251953"/>
      <use xlink:href="#DejaVuSans-29" x="461.035156"/>
     </g>
    </g>
   </g>
   <g id="LineCollection_1">
    <path d="M 80.839394 255.771649 
L 80.839394 255.771649 
" clip-path="url(#p9235f28a90)" style="fill: none; stroke: #1f77b4"/>
    <path d="M 95.528788 245.529453 
L 95.528788 244.866512 
" clip-path="url(#p9235f28a90)" style="fill: none; stroke: #1f77b4"/>
    <path d="M 110.218182 233.329466 
L 110.218182 232.381556 
" clip-path="url(#p9235f28a90)" style="fill: none; stroke: #1f77b4"/>
    <path d="M 124.907576 219.544914 
L 124.907576 218.294139 
" clip-path="url(#p9235f28a90)" style="fill: none; stroke: #1f77b4"/>
    <path d="M 139.59697 204.490984 
L 139.59697 202.913883 
" clip-path="url(#p9235f28a90)" style="fill: none; stroke: #1f77b4"/>
    <path d="M 154.286364 188.352869 
L 154.286364 186.495125 
" clip-path="url(#p9235f28a90)" style="fill: none; stroke: #1f77b4"/>
    <path d="M 168.975758 172.892725 
L 168.975758 170.666606 
" clip-path="url(#p9235f28a90)" style="fill: none; stroke: #1f77b4"/>
    <path d="M 183.665152 156.861293 
L 183.665152 154.156974 
" clip-path="url(#p9235f28a90)" style="fill: none; stroke: #1f77b4"/>
    <path d="M 198.354545 141.9574 
L 198.354545 138.882732 
" clip-path="url(#p9235f28a90)" style="fill: none; stroke: #1f77b4"/>
    <path d="M 213.043939 128.797437 
L 213.043939 125.238515 
" clip-path="url(#p9235f28a90)" style="fill: none; stroke: #1f77b4"/>
    <path d="M 227.733333 119.319974 
L 227.733333 115.667777 
" clip-path="url(#p9235f28a90)" style="fill: none; stroke: #1f77b4"/>
    <path d="M 242.422727 110.341654 
L 242.422727 106.659242 
" clip-path="url(#p9235f28a90)" style="fill: none; stroke: #1f77b4"/>
    <path d="M 257.112121 101.030471 
L 257.112121 97.309526 
" clip-path="url(#p9235f28a90)" style="fill: none; stroke: #1f77b4"/>
    <path d="M 271.801515 91.001027 
L 271.801515 87.23986 
" clip-path="url(#p9235f28a90)" style="fill: none; stroke: #1f77b4"/>
    <path d="M 286.490909 81.19853 
L 286.490909 77.393881 
" clip-path="url(#p9235f28a90)" style="fill: none; stroke: #1f77b4"/>
    <path d="M 301.180303 71.579913 
L 301.180303 67.727142 
" clip-path="url(#p9235f28a90)" style="fill: none; stroke: #1f77b4"/>
    <path d="M 315.869697 62.624855 
L 315.869697 58.745877 
" clip-path="url(#p9235f28a90)" style="fill: none; stroke: #1f77b4"/>
    <path d="M 330.559091 53.434298 
L 330.559091 49.526998 
" clip-path="url(#p9235f28a90)" style="fill: none; stroke: #1f77b4"/>
    <path d="M 345.248485 44.235399 
L 345.248485 40.303798 
" clip-path="url(#p9235f28a90)" style="fill: none; stroke: #1f77b4"/>
    <path d="M 359.937879 34.926387 
L 359.937879 30.970087 
" clip-path="url(#p9235f28a90)" style="fill: none; stroke: #1f77b4"/>
    <path d="M 374.627273 26.458603 
L 374.627273 22.465317 
" clip-path="url(#p9235f28a90)" style="fill: none; stroke: #1f77b4"/>
   </g>
   <g id="line2d_15">
    <path d="M 80.839394 255.771649 
L 95.528788 245.197982 
L 110.218182 232.855511 
L 124.907576 218.919526 
L 139.59697 203.702433 
L 154.286364 187.423997 
L 168.975758 171.779665 
L 183.665152 155.509133 
L 198.354545 140.420066 
L 213.043939 127.017976 
L 227.733333 117.493876 
L 242.422727 108.500448 
L 257.112121 99.169999 
L 271.801515 89.120443 
L 286.490909 79.296206 
L 301.180303 69.653528 
L 315.869697 60.685366 
L 330.559091 51.480648 
L 345.248485 42.269599 
L 359.937879 32.948237 
L 374.627273 24.46196 
" clip-path="url(#p9235f28a90)" style="fill: none; stroke: #1f77b4; stroke-linecap: square"/>
   </g>
   <g id="patch_3">
    <path d="M 66.15 267.436966 
L 66.15 10.8 
" style="fill: none; stroke: #000000; stroke-width: 0.8; stroke-linejoin: miter; stroke-linecap: square"/>
   </g>
   <g id="patch_4">
    <path d="M 389.316667 267.436966 
L 389.316667 10.8 
" style="fill: none; stroke: #000000; stroke-width: 0.8; stroke-linejoin: miter; stroke-linecap: square"/>
   </g>
   <g id="patch_5">
    <path d="M 66.15 267.436966 
L 389.316667 267.436966 
" style="fill: none; stroke: #000000; stroke-width: 0.8; stroke-linejoin: miter; stroke-linecap: square"/>
   </g>
   <g id="patch_6">
    <path d="M 66.15 10.8 
L 389.316667 10.8 
" style="fill: none; stroke: #000000; stroke-width: 0.8; stroke-linejoin: miter; stroke-linecap: square"/>
   </g>
  </g>
  <g id="axes_2">
   <g id="patch_7">
    <path d="M 66.15 543.818483 
L 389.316667 543.818483 
L 389.316667 287.181517 
L 66.15 287.181517 
z
" style="fill: #ffffff"/>
   </g>
   <g id="matplotlib.axis_3">
    <g id="xtick_7">
     <g id="line2d_16">
      <g>
       <use xlink:href="#mce69aa12e7" x="80.839394" y="543.818483" style="stroke: #000000; stroke-width: 0.8"/>
      </g>
     </g>
    </g>
    <g id="xtick_8">
     <g id="line2d_17">
      <g>
       <use xlink:href="#mce69aa12e7" x="139.59697" y="543.818483" style="stroke: #000000; stroke-width: 0.8"/>
      </g>
     </g>
    </g>
    <g id="xtick_9">
     <g id="line2d_18">
      <g>
       <use xlink:href="#mce69aa12e7" x="198.354545" y="543.818483" style="stroke: #000000; stroke-width: 0.8"/>
      </g>
     </g>
    </g>
    <g id="xtick_10">
     <g id="line2d_19">
      <g>
       <use xlink:href="#mce69aa12e7" x="257.112121" y="543.818483" style="stroke: #000000; stroke-width: 0.8"/>
      </g>
     </g>
    </g>
    <g id="xtick_11">
     <g id="line2d_20">
      <g>
       <use xlink:href="#mce69aa12e7" x="315.869697" y="543.818483" style="stroke: #000000; stroke-width: 0.8"/>
      </g>
     </g>
    </g>
    <g id="xtick_12">
     <g id="line2d_21">
      <g>
       <use xlink:href="#mce69aa12e7" x="374.627273" y="543.818483" style="stroke: #000000; stroke-width: 0.8"/>
      </g>
     </g>
    </g>
   </g>
   <g id="matplotlib.axis_4">
    <g id="ytick_9">
     <g id="line2d_22">
      <g>
       <use xlink:href="#m25e0abec67" x="66.15" y="542.406679" style="stroke: #000000; stroke-width: 0.8"/>
      </g>
     </g>
     <g id="text_10">
      <!-- 0.5 -->
      <g transform="translate(43.246875 546.205897)scale(0.1 -0.1)">
       <defs>
        <path id="DejaVuSans-2e" d="M 684 794 
L 1344 794 
L 1344 0 
L 684 0 
L 684 794 
z
" transform="scale(0.015625)"/>
        <path id="DejaVuSans-35" d="M 691 4666 
L 3169 4666 
L 3169 4134 
L 1269 4134 
L 1269 2991 
Q 1406 3038 1543 3061 
Q 1681 3084 1819 3084 
Q 2600 3084 3056 2656 
Q 3513 2228 3513 1497 
Q 3513 744 3044 326 
Q 2575 -91 1722 -91 
Q 1428 -91 1123 -41 
Q 819 9 494 109 
L 494 744 
Q 775 591 1075 516 
Q 1375 441 1709 441 
Q 2250 441 2565 725 
Q 2881 1009 2881 1497 
Q 2881 1984 2565 2268 
Q 2250 2553 1709 2553 
Q 1456 2553 1204 2497 
Q 953 2441 691 2322 
L 691 4666 
z
" transform="scale(0.015625)"/>
       </defs>
       <use xlink:href="#DejaVuSans-30"/>
       <use xlink:href="#DejaVuSans-2e" x="63.623047"/>
       <use xlink:href="#DejaVuSans-35" x="95.410156"/>
      </g>
     </g>
    </g>
    <g id="ytick_10">
     <g id="line2d_23">
      <g>
       <use xlink:href="#m25e0abec67" x="66.15" y="501.808145" style="stroke: #000000; stroke-width: 0.8"/>
      </g>
     </g>
     <g id="text_11">
      <!-- 0.6 -->
      <g transform="translate(43.246875 505.607364)scale(0.1 -0.1)">
       <use xlink:href="#DejaVuSans-30"/>
       <use xlink:href="#DejaVuSans-2e" x="63.623047"/>
       <use xlink:href="#DejaVuSans-36" x="95.410156"/>
      </g>
     </g>
    </g>
    <g id="ytick_11">
     <g id="line2d_24">
      <g>
       <use xlink:href="#m25e0abec67" x="66.15" y="461.209612" style="stroke: #000000; stroke-width: 0.8"/>
      </g>
     </g>
     <g id="text_12">
      <!-- 0.7 -->
      <g transform="translate(43.246875 465.00883)scale(0.1 -0.1)">
       <defs>
        <path id="DejaVuSans-37" d="M 525 4666 
L 3525 4666 
L 3525 4397 
L 1831 0 
L 1172 0 
L 2766 4134 
L 525 4134 
L 525 4666 
z
" transform="scale(0.015625)"/>
       </defs>
       <use xlink:href="#DejaVuSans-30"/>
       <use xlink:href="#DejaVuSans-2e" x="63.623047"/>
       <use xlink:href="#DejaVuSans-37" x="95.410156"/>
      </g>
     </g>
    </g>
    <g id="ytick_12">
     <g id="line2d_25">
      <g>
       <use xlink:href="#m25e0abec67" x="66.15" y="420.611078" style="stroke: #000000; stroke-width: 0.8"/>
      </g>
     </g>
     <g id="text_13">
      <!-- 0.8 -->
      <g transform="translate(43.246875 424.410297)scale(0.1 -0.1)">
       <use xlink:href="#DejaVuSans-30"/>
       <use xlink:href="#DejaVuSans-2e" x="63.623047"/>
       <use xlink:href="#DejaVuSans-38" x="95.410156"/>
      </g>
     </g>
    </g>
    <g id="ytick_13">
     <g id="line2d_26">
      <g>
       <use xlink:href="#m25e0abec67" x="66.15" y="380.012545" style="stroke: #000000; stroke-width: 0.8"/>
      </g>
     </g>
     <g id="text_14">
      <!-- 0.9 -->
      <g transform="translate(43.246875 383.811764)scale(0.1 -0.1)">
       <defs>
        <path id="DejaVuSans-39" d="M 703 97 
L 703 672 
Q 941 559 1184 500 
Q 1428 441 1663 441 
Q 2288 441 2617 861 
Q 2947 1281 2994 2138 
Q 2813 1869 2534 1725 
Q 2256 1581 1919 1581 
Q 1219 1581 811 2004 
Q 403 2428 403 3163 
Q 403 3881 828 4315 
Q 1253 4750 1959 4750 
Q 2769 4750 3195 4129 
Q 3622 3509 3622 2328 
Q 3622 1225 3098 567 
Q 2575 -91 1691 -91 
Q 1453 -91 1209 -44 
Q 966 3 703 97 
z
M 1959 2075 
Q 2384 2075 2632 2365 
Q 2881 2656 2881 3163 
Q 2881 3666 2632 3958 
Q 2384 4250 1959 4250 
Q 1534 4250 1286 3958 
Q 1038 3666 1038 3163 
Q 1038 2656 1286 2365 
Q 1534 2075 1959 2075 
z
" transform="scale(0.015625)"/>
       </defs>
       <use xlink:href="#DejaVuSans-30"/>
       <use xlink:href="#DejaVuSans-2e" x="63.623047"/>
       <use xlink:href="#DejaVuSans-39" x="95.410156"/>
      </g>
     </g>
    </g>
    <g id="ytick_14">
     <g id="line2d_27">
      <g>
       <use xlink:href="#m25e0abec67" x="66.15" y="339.414011" style="stroke: #000000; stroke-width: 0.8"/>
      </g>
     </g>
     <g id="text_15">
      <!-- 1.0 -->
      <g transform="translate(43.246875 343.21323)scale(0.1 -0.1)">
       <use xlink:href="#DejaVuSans-31"/>
       <use xlink:href="#DejaVuSans-2e" x="63.623047"/>
       <use xlink:href="#DejaVuSans-30" x="95.410156"/>
      </g>
     </g>
    </g>
    <g id="ytick_15">
     <g id="line2d_28">
      <g>
       <use xlink:href="#m25e0abec67" x="66.15" y="298.815478" style="stroke: #000000; stroke-width: 0.8"/>
      </g>
     </g>
     <g id="text_16">
      <!-- 1.1 -->
      <g transform="translate(43.246875 302.614697)scale(0.1 -0.1)">
       <use xlink:href="#DejaVuSans-31"/>
       <use xlink:href="#DejaVuSans-2e" x="63.623047"/>
       <use xlink:href="#DejaVuSans-31" x="95.410156"/>
      </g>
     </g>
    </g>
    <g id="text_17">
     <!-- $\rm\Delta G_{\lambda}$ -->
     <g transform="translate(25.969375 425.1)rotate(-90)scale(0.1 -0.1)">
      <use xlink:href="#DejaVuSans-394" transform="translate(0 0.78125)"/>
      <use xlink:href="#DejaVuSans-47" transform="translate(68.408203 0.78125)"/>
      <use xlink:href="#DejaVuSans-3bb" transform="translate(146.855469 -15.625)scale(0.7)"/>
     </g>
     <!-- (kcal/mol) -->
     <g transform="translate(37.167188 440.502344)rotate(-90)scale(0.1 -0.1)">
      <use xlink:href="#DejaVuSans-28"/>
      <use xlink:href="#DejaVuSans-6b" x="39.013672"/>
      <use xlink:href="#DejaVuSans-63" x="96.923828"/>
      <use xlink:href="#DejaVuSans-61" x="151.904297"/>
      <use xlink:href="#DejaVuSans-6c" x="213.183594"/>
      <use xlink:href="#DejaVuSans-2f" x="240.966797"/>
      <use xlink:href="#DejaVuSans-6d" x="274.658203"/>
      <use xlink:href="#DejaVuSans-6f" x="372.070312"/>
      <use xlink:href="#DejaVuSans-6c" x="433.251953"/>
      <use xlink:href="#DejaVuSans-29" x="461.035156"/>
     </g>
    </g>
   </g>
   <g id="LineCollection_2">
    <path d="M 88.184091 476.963851 
L 88.184091 459.588971 
" clip-path="url(#p0da0053f2a)" style="fill: none; stroke: #1f77b4"/>
    <path d="M 102.873485 430.796761 
L 102.873485 413.039623 
" clip-path="url(#p0da0053f2a)" style="fill: none; stroke: #1f77b4"/>
    <path d="M 117.562879 390.847745 
L 117.562879 369.460583 
" clip-path="url(#p0da0053f2a)" style="fill: none; stroke: #1f77b4"/>
    <path d="M 132.252273 359.166324 
L 132.252273 333.9894 
" clip-path="url(#p0da0053f2a)" style="fill: none; stroke: #1f77b4"/>
    <path d="M 146.941667 331.627473 
L 146.941667 305.895222 
" clip-path="url(#p0da0053f2a)" style="fill: none; stroke: #1f77b4"/>
    <path d="M 161.631061 351.453467 
L 161.631061 319.307427 
" clip-path="url(#p0da0053f2a)" style="fill: none; stroke: #1f77b4"/>
    <path d="M 176.320455 339.090208 
L 176.320455 298.846834 
" clip-path="url(#p0da0053f2a)" style="fill: none; stroke: #1f77b4"/>
    <path d="M 191.009848 369.104395 
L 191.009848 330.762103 
" clip-path="url(#p0da0053f2a)" style="fill: none; stroke: #1f77b4"/>
    <path d="M 205.699242 417.633909 
L 205.699242 370.65988 
" clip-path="url(#p0da0053f2a)" style="fill: none; stroke: #1f77b4"/>
    <path d="M 220.388636 506.531592 
L 220.388636 485.036938 
" clip-path="url(#p0da0053f2a)" style="fill: none; stroke: #1f77b4"/>
    <path d="M 235.07803 515.86161 
L 235.07803 503.523505 
" clip-path="url(#p0da0053f2a)" style="fill: none; stroke: #1f77b4"/>
    <path d="M 249.767424 507.858841 
L 249.767424 493.860418 
" clip-path="url(#p0da0053f2a)" style="fill: none; stroke: #1f77b4"/>
    <path d="M 264.456818 489.201627 
L 264.456818 474.823838 
" clip-path="url(#p0da0053f2a)" style="fill: none; stroke: #1f77b4"/>
    <path d="M 279.146212 495.434246 
L 279.146212 480.401831 
" clip-path="url(#p0da0053f2a)" style="fill: none; stroke: #1f77b4"/>
    <path d="M 293.835606 500.631268 
L 293.835606 484.721704 
" clip-path="url(#p0da0053f2a)" style="fill: none; stroke: #1f77b4"/>
    <path d="M 308.525 516.253555 
L 308.525 504.45594 
" clip-path="url(#p0da0053f2a)" style="fill: none; stroke: #1f77b4"/>
    <path d="M 323.214394 510.308681 
L 323.214394 498.001116 
" clip-path="url(#p0da0053f2a)" style="fill: none; stroke: #1f77b4"/>
    <path d="M 337.903788 509.708488 
L 337.903788 498.269416 
" clip-path="url(#p0da0053f2a)" style="fill: none; stroke: #1f77b4"/>
    <path d="M 352.593182 506.881883 
L 352.593182 495.313745 
" clip-path="url(#p0da0053f2a)" style="fill: none; stroke: #1f77b4"/>
    <path d="M 367.282576 530.090095 
L 367.282576 515.878584 
" clip-path="url(#p0da0053f2a)" style="fill: none; stroke: #1f77b4"/>
   </g>
   <g id="line2d_29">
    <path d="M 88.184091 462.948561 
L 102.873485 436.438731 
L 117.562879 391.91568 
L 132.252273 335.622811 
L 146.941667 328.847754 
L 161.631061 316.839618 
L 176.320455 320.7599 
L 191.009848 348.943858 
L 205.699242 391.807524 
L 220.388636 497.709033 
L 235.07803 502.663142 
L 249.767424 494.528293 
L 264.456818 478.769007 
L 279.146212 486.966553 
L 293.835606 500.464594 
L 308.525 510.685244 
L 323.214394 495.879985 
L 337.903788 502.43023 
L 352.593182 499.594134 
L 367.282576 523.966574 
" clip-path="url(#p0da0053f2a)" style="fill: none; stroke: #ff7f0e; stroke-opacity: 0.5; stroke-linecap: square"/>
   </g>
   <g id="line2d_30">
    <path d="M 88.184091 468.276411 
L 102.873485 421.918192 
L 117.562879 380.154164 
L 132.252273 346.577862 
L 146.941667 318.761348 
L 161.631061 335.380447 
L 176.320455 318.968521 
L 191.009848 349.933249 
L 205.699242 394.146894 
L 220.388636 495.784265 
L 235.07803 509.692558 
L 249.767424 500.85963 
L 264.456818 482.012733 
L 279.146212 487.918039 
L 293.835606 492.676486 
L 308.525 510.354747 
L 323.214394 504.154898 
L 337.903788 503.988952 
L 352.593182 501.097814 
L 367.282576 522.98434 
" clip-path="url(#p0da0053f2a)" style="fill: none; stroke: #1f77b4; stroke-linecap: square"/>
   </g>
   <g id="line2d_31">
    <path d="M 88.184091 476.853248 
L 102.873485 411.124412 
L 117.562879 376.031917 
L 132.252273 348.438528 
L 146.941667 303.542089 
L 161.631061 334.517718 
L 176.320455 307.180449 
L 191.009848 339.028805 
L 205.699242 380.213319 
L 220.388636 496.253699 
L 235.07803 521.756737 
L 249.767424 501.972949 
L 264.456818 487.762902 
L 279.146212 488.352961 
L 293.835606 477.161738 
L 308.525 532.153166 
L 323.214394 513.132427 
L 337.903788 506.519623 
L 352.593182 501.550858 
L 367.282576 518.697143 
" clip-path="url(#p0da0053f2a)" style="fill: none; stroke: #2ca02c; stroke-opacity: 0.5; stroke-linecap: square"/>
   </g>
   <g id="patch_8">
    <path d="M 66.15 543.818483 
L 66.15 287.181517 
" style="fill: none; stroke: #000000; stroke-width: 0.8; stroke-linejoin: miter; stroke-linecap: square"/>
   </g>
   <g id="patch_9">
    <path d="M 389.316667 543.818483 
L 389.316667 287.181517 
" style="fill: none; stroke: #000000; stroke-width: 0.8; stroke-linejoin: miter; stroke-linecap: square"/>
   </g>
   <g id="patch_10">
    <path d="M 66.15 543.818483 
L 389.316667 543.818483 
" style="fill: none; stroke: #000000; stroke-width: 0.8; stroke-linejoin: miter; stroke-linecap: square"/>
   </g>
   <g id="patch_11">
    <path d="M 66.15 287.181517 
L 389.316667 287.181517 
" style="fill: none; stroke: #000000; stroke-width: 0.8; stroke-linejoin: miter; stroke-linecap: square"/>
   </g>
  </g>
  <g id="axes_3">
   <g id="patch_12">
    <path d="M 66.15 820.2 
L 389.316667 820.2 
L 389.316667 563.563034 
L 66.15 563.563034 
z
" style="fill: #ffffff"/>
   </g>
   <g id="matplotlib.axis_5">
    <g id="xtick_13">
     <g id="line2d_32">
      <g>
       <use xlink:href="#mce69aa12e7" x="80.839394" y="820.2" style="stroke: #000000; stroke-width: 0.8"/>
      </g>
     </g>
     <g id="text_18">
      <!-- 0.0 -->
      <g transform="translate(72.887831 834.798437)scale(0.1 -0.1)">
       <use xlink:href="#DejaVuSans-30"/>
       <use xlink:href="#DejaVuSans-2e" x="63.623047"/>
       <use xlink:href="#DejaVuSans-30" x="95.410156"/>
      </g>
     </g>
    </g>
    <g id="xtick_14">
     <g id="line2d_33">
      <g>
       <use xlink:href="#mce69aa12e7" x="139.59697" y="820.2" style="stroke: #000000; stroke-width: 0.8"/>
      </g>
     </g>
     <g id="text_19">
      <!-- 0.2 -->
      <g transform="translate(131.645407 834.798437)scale(0.1 -0.1)">
       <use xlink:href="#DejaVuSans-30"/>
       <use xlink:href="#DejaVuSans-2e" x="63.623047"/>
       <use xlink:href="#DejaVuSans-32" x="95.410156"/>
      </g>
     </g>
    </g>
    <g id="xtick_15">
     <g id="line2d_34">
      <g>
       <use xlink:href="#mce69aa12e7" x="198.354545" y="820.2" style="stroke: #000000; stroke-width: 0.8"/>
      </g>
     </g>
     <g id="text_20">
      <!-- 0.4 -->
      <g transform="translate(190.402983 834.798437)scale(0.1 -0.1)">
       <use xlink:href="#DejaVuSans-30"/>
       <use xlink:href="#DejaVuSans-2e" x="63.623047"/>
       <use xlink:href="#DejaVuSans-34" x="95.410156"/>
      </g>
     </g>
    </g>
    <g id="xtick_16">
     <g id="line2d_35">
      <g>
       <use xlink:href="#mce69aa12e7" x="257.112121" y="820.2" style="stroke: #000000; stroke-width: 0.8"/>
      </g>
     </g>
     <g id="text_21">
      <!-- 0.6 -->
      <g transform="translate(249.160559 834.798437)scale(0.1 -0.1)">
       <use xlink:href="#DejaVuSans-30"/>
       <use xlink:href="#DejaVuSans-2e" x="63.623047"/>
       <use xlink:href="#DejaVuSans-36" x="95.410156"/>
      </g>
     </g>
    </g>
    <g id="xtick_17">
     <g id="line2d_36">
      <g>
       <use xlink:href="#mce69aa12e7" x="315.869697" y="820.2" style="stroke: #000000; stroke-width: 0.8"/>
      </g>
     </g>
     <g id="text_22">
      <!-- 0.8 -->
      <g transform="translate(307.918134 834.798437)scale(0.1 -0.1)">
       <use xlink:href="#DejaVuSans-30"/>
       <use xlink:href="#DejaVuSans-2e" x="63.623047"/>
       <use xlink:href="#DejaVuSans-38" x="95.410156"/>
      </g>
     </g>
    </g>
    <g id="xtick_18">
     <g id="line2d_37">
      <g>
       <use xlink:href="#mce69aa12e7" x="374.627273" y="820.2" style="stroke: #000000; stroke-width: 0.8"/>
      </g>
     </g>
     <g id="text_23">
      <!-- 1.0 -->
      <g transform="translate(366.67571 834.798437)scale(0.1 -0.1)">
       <use xlink:href="#DejaVuSans-31"/>
       <use xlink:href="#DejaVuSans-2e" x="63.623047"/>
       <use xlink:href="#DejaVuSans-30" x="95.410156"/>
      </g>
     </g>
    </g>
    <g id="text_24">
     <!-- $\lambda$ -->
     <g transform="translate(224.733333 848.476562)scale(0.1 -0.1)">
      <defs>
       <path id="DejaVuSans-Oblique-3bb" d="M 2350 4316 
L 3125 0 
L 2516 0 
L 2038 2588 
L 328 0 
L -281 0 
L 1903 3356 
L 1794 3975 
Q 1725 4369 1391 4369 
L 1091 4369 
L 1184 4863 
L 1550 4856 
Q 2253 4847 2350 4316 
z
" transform="scale(0.015625)"/>
      </defs>
      <use xlink:href="#DejaVuSans-Oblique-3bb" transform="translate(0 0.015625)"/>
     </g>
    </g>
   </g>
   <g id="matplotlib.axis_6">
    <g id="ytick_16">
     <g id="line2d_38">
      <g>
       <use xlink:href="#m25e0abec67" x="66.15" y="820.2" style="stroke: #000000; stroke-width: 0.8"/>
      </g>
     </g>
     <g id="text_25">
      <!-- −1.00 -->
      <g transform="translate(28.504688 823.999219)scale(0.1 -0.1)">
       <defs>
        <path id="DejaVuSans-2212" d="M 678 2272 
L 4684 2272 
L 4684 1741 
L 678 1741 
L 678 2272 
z
" transform="scale(0.015625)"/>
       </defs>
       <use xlink:href="#DejaVuSans-2212"/>
       <use xlink:href="#DejaVuSans-31" x="83.789062"/>
       <use xlink:href="#DejaVuSans-2e" x="147.412109"/>
       <use xlink:href="#DejaVuSans-30" x="179.199219"/>
       <use xlink:href="#DejaVuSans-30" x="242.822266"/>
      </g>
     </g>
    </g>
    <g id="ytick_17">
     <g id="line2d_39">
      <g>
       <use xlink:href="#m25e0abec67" x="66.15" y="788.120379" style="stroke: #000000; stroke-width: 0.8"/>
      </g>
     </g>
     <g id="text_26">
      <!-- −0.75 -->
      <g transform="translate(28.504688 791.919598)scale(0.1 -0.1)">
       <use xlink:href="#DejaVuSans-2212"/>
       <use xlink:href="#DejaVuSans-30" x="83.789062"/>
       <use xlink:href="#DejaVuSans-2e" x="147.412109"/>
       <use xlink:href="#DejaVuSans-37" x="179.199219"/>
       <use xlink:href="#DejaVuSans-35" x="242.822266"/>
      </g>
     </g>
    </g>
    <g id="ytick_18">
     <g id="line2d_40">
      <g>
       <use xlink:href="#m25e0abec67" x="66.15" y="756.040759" style="stroke: #000000; stroke-width: 0.8"/>
      </g>
     </g>
     <g id="text_27">
      <!-- −0.50 -->
      <g transform="translate(28.504688 759.839977)scale(0.1 -0.1)">
       <use xlink:href="#DejaVuSans-2212"/>
       <use xlink:href="#DejaVuSans-30" x="83.789062"/>
       <use xlink:href="#DejaVuSans-2e" x="147.412109"/>
       <use xlink:href="#DejaVuSans-35" x="179.199219"/>
       <use xlink:href="#DejaVuSans-30" x="242.822266"/>
      </g>
     </g>
    </g>
    <g id="ytick_19">
     <g id="line2d_41">
      <g>
       <use xlink:href="#m25e0abec67" x="66.15" y="723.961138" style="stroke: #000000; stroke-width: 0.8"/>
      </g>
     </g>
     <g id="text_28">
      <!-- −0.25 -->
      <g transform="translate(28.504688 727.760357)scale(0.1 -0.1)">
       <use xlink:href="#DejaVuSans-2212"/>
       <use xlink:href="#DejaVuSans-30" x="83.789062"/>
       <use xlink:href="#DejaVuSans-2e" x="147.412109"/>
       <use xlink:href="#DejaVuSans-32" x="179.199219"/>
       <use xlink:href="#DejaVuSans-35" x="242.822266"/>
      </g>
     </g>
    </g>
    <g id="ytick_20">
     <g id="line2d_42">
      <g>
       <use xlink:href="#m25e0abec67" x="66.15" y="691.881517" style="stroke: #000000; stroke-width: 0.8"/>
      </g>
     </g>
     <g id="text_29">
      <!-- 0.00 -->
      <g transform="translate(36.884375 695.680736)scale(0.1 -0.1)">
       <use xlink:href="#DejaVuSans-30"/>
       <use xlink:href="#DejaVuSans-2e" x="63.623047"/>
       <use xlink:href="#DejaVuSans-30" x="95.410156"/>
       <use xlink:href="#DejaVuSans-30" x="159.033203"/>
      </g>
     </g>
    </g>
    <g id="ytick_21">
     <g id="line2d_43">
      <g>
       <use xlink:href="#m25e0abec67" x="66.15" y="659.801896" style="stroke: #000000; stroke-width: 0.8"/>
      </g>
     </g>
     <g id="text_30">
      <!-- 0.25 -->
      <g transform="translate(36.884375 663.601115)scale(0.1 -0.1)">
       <use xlink:href="#DejaVuSans-30"/>
       <use xlink:href="#DejaVuSans-2e" x="63.623047"/>
       <use xlink:href="#DejaVuSans-32" x="95.410156"/>
       <use xlink:href="#DejaVuSans-35" x="159.033203"/>
      </g>
     </g>
    </g>
    <g id="ytick_22">
     <g id="line2d_44">
      <g>
       <use xlink:href="#m25e0abec67" x="66.15" y="627.722276" style="stroke: #000000; stroke-width: 0.8"/>
      </g>
     </g>
     <g id="text_31">
      <!-- 0.50 -->
      <g transform="translate(36.884375 631.521494)scale(0.1 -0.1)">
       <use xlink:href="#DejaVuSans-30"/>
       <use xlink:href="#DejaVuSans-2e" x="63.623047"/>
       <use xlink:href="#DejaVuSans-35" x="95.410156"/>
       <use xlink:href="#DejaVuSans-30" x="159.033203"/>
      </g>
     </g>
    </g>
    <g id="ytick_23">
     <g id="line2d_45">
      <g>
       <use xlink:href="#m25e0abec67" x="66.15" y="595.642655" style="stroke: #000000; stroke-width: 0.8"/>
      </g>
     </g>
     <g id="text_32">
      <!-- 0.75 -->
      <g transform="translate(36.884375 599.441874)scale(0.1 -0.1)">
       <use xlink:href="#DejaVuSans-30"/>
       <use xlink:href="#DejaVuSans-2e" x="63.623047"/>
       <use xlink:href="#DejaVuSans-37" x="95.410156"/>
       <use xlink:href="#DejaVuSans-35" x="159.033203"/>
      </g>
     </g>
    </g>
    <g id="ytick_24">
     <g id="line2d_46">
      <g>
       <use xlink:href="#m25e0abec67" x="66.15" y="563.563034" style="stroke: #000000; stroke-width: 0.8"/>
      </g>
     </g>
     <g id="text_33">
      <!-- 1.00 -->
      <g transform="translate(36.884375 567.362253)scale(0.1 -0.1)">
       <use xlink:href="#DejaVuSans-31"/>
       <use xlink:href="#DejaVuSans-2e" x="63.623047"/>
       <use xlink:href="#DejaVuSans-30" x="95.410156"/>
       <use xlink:href="#DejaVuSans-30" x="159.033203"/>
      </g>
     </g>
    </g>
    <g id="text_34">
     <!-- $\delta_\lambda$ (kcal/mol) -->
     <g transform="translate(22.425 723.781517)rotate(-90)scale(0.1 -0.1)">
      <defs>
       <path id="DejaVuSans-Oblique-3b4" d="M 3472 4053 
Q 3197 4272 2450 4272 
Q 1659 4272 1588 3906 
Q 1531 3619 2328 3469 
Q 2953 3353 3253 3003 
Q 3616 2581 3447 1716 
Q 3284 888 2763 400 
Q 2238 -91 1488 -91 
Q 741 -91 406 400 
Q 72 888 241 1747 
Q 363 2384 891 2900 
Q 1097 3100 1353 3213 
Q 913 3459 1000 3900 
Q 1166 4750 2544 4750 
Q 3234 4750 3566 4531 
L 3472 4053 
z
M 1753 3056 
Q 1525 2966 1306 2738 
Q 969 2384 847 1747 
Q 722 1113 919 756 
Q 1119 397 1584 397 
Q 2044 397 2381 759 
Q 2722 1122 2838 1716 
Q 2956 2338 2731 2638 
Q 2491 2959 2103 2994 
Q 1906 3013 1753 3056 
z
" transform="scale(0.015625)"/>
      </defs>
      <use xlink:href="#DejaVuSans-Oblique-3b4" transform="translate(0 0.015625)"/>
      <use xlink:href="#DejaVuSans-Oblique-3bb" transform="translate(61.181641 -16.390625)scale(0.7)"/>
      <use xlink:href="#DejaVuSans-20" transform="translate(105.341797 0.015625)"/>
      <use xlink:href="#DejaVuSans-28" transform="translate(137.128906 0.015625)"/>
      <use xlink:href="#DejaVuSans-6b" transform="translate(176.142578 0.015625)"/>
      <use xlink:href="#DejaVuSans-63" transform="translate(234.052734 0.015625)"/>
      <use xlink:href="#DejaVuSans-61" transform="translate(289.033203 0.015625)"/>
      <use xlink:href="#DejaVuSans-6c" transform="translate(350.3125 0.015625)"/>
      <use xlink:href="#DejaVuSans-2f" transform="translate(378.095703 0.015625)"/>
      <use xlink:href="#DejaVuSans-6d" transform="translate(411.787109 0.015625)"/>
      <use xlink:href="#DejaVuSans-6f" transform="translate(509.199219 0.015625)"/>
      <use xlink:href="#DejaVuSans-6c" transform="translate(570.380859 0.015625)"/>
      <use xlink:href="#DejaVuSans-29" transform="translate(598.164062 0.015625)"/>
     </g>
    </g>
   </g>
   <g id="LineCollection_3">
    <path d="M 88.184091 691.881517 
L 88.184091 684.509678 
" clip-path="url(#pf86e04347f)" style="fill: none; stroke: #1f77b4; stroke-width: 2"/>
    <path d="M 102.873485 691.881517 
L 102.873485 705.302393 
" clip-path="url(#pf86e04347f)" style="fill: none; stroke: #1f77b4; stroke-width: 2"/>
    <path d="M 117.562879 691.881517 
L 117.562879 700.302601 
" clip-path="url(#pf86e04347f)" style="fill: none; stroke: #1f77b4; stroke-width: 2"/>
    <path d="M 132.252273 691.881517 
L 132.252273 685.087017 
" clip-path="url(#pf86e04347f)" style="fill: none; stroke: #1f77b4; stroke-width: 2"/>
    <path d="M 146.941667 691.881517 
L 146.941667 705.297805 
" clip-path="url(#pf86e04347f)" style="fill: none; stroke: #1f77b4; stroke-width: 2"/>
    <path d="M 161.631061 691.881517 
L 161.631061 682.50913 
" clip-path="url(#pf86e04347f)" style="fill: none; stroke: #1f77b4; stroke-width: 2"/>
    <path d="M 176.320455 691.881517 
L 176.320455 699.080926 
" clip-path="url(#pf86e04347f)" style="fill: none; stroke: #1f77b4; stroke-width: 2"/>
    <path d="M 191.009848 691.881517 
L 191.009848 697.138174 
" clip-path="url(#pf86e04347f)" style="fill: none; stroke: #1f77b4; stroke-width: 2"/>
    <path d="M 205.699242 691.881517 
L 205.699242 698.028409 
" clip-path="url(#pf86e04347f)" style="fill: none; stroke: #1f77b4; stroke-width: 2"/>
    <path d="M 220.388636 691.881517 
L 220.388636 692.653091 
" clip-path="url(#pf86e04347f)" style="fill: none; stroke: #1f77b4; stroke-width: 2"/>
    <path d="M 235.07803 691.881517 
L 235.07803 681.758678 
" clip-path="url(#pf86e04347f)" style="fill: none; stroke: #1f77b4; stroke-width: 2"/>
    <path d="M 249.767424 691.881517 
L 249.767424 687.934589 
" clip-path="url(#pf86e04347f)" style="fill: none; stroke: #1f77b4; stroke-width: 2"/>
    <path d="M 264.456818 691.881517 
L 264.456818 687.11323 
" clip-path="url(#pf86e04347f)" style="fill: none; stroke: #1f77b4; stroke-width: 2"/>
    <path d="M 279.146212 691.881517 
L 279.146212 691.146486 
" clip-path="url(#pf86e04347f)" style="fill: none; stroke: #1f77b4; stroke-width: 2"/>
    <path d="M 293.835606 691.881517 
L 293.835606 704.235977 
" clip-path="url(#pf86e04347f)" style="fill: none; stroke: #1f77b4; stroke-width: 2"/>
    <path d="M 308.525 691.881517 
L 308.525 680.499883 
" clip-path="url(#pf86e04347f)" style="fill: none; stroke: #1f77b4; stroke-width: 2"/>
    <path d="M 323.214394 691.881517 
L 323.214394 682.734801 
" clip-path="url(#pf86e04347f)" style="fill: none; stroke: #1f77b4; stroke-width: 2"/>
    <path d="M 337.903788 691.881517 
L 337.903788 689.713446 
" clip-path="url(#pf86e04347f)" style="fill: none; stroke: #1f77b4; stroke-width: 2"/>
    <path d="M 352.593182 691.881517 
L 352.593182 690.844122 
" clip-path="url(#pf86e04347f)" style="fill: none; stroke: #1f77b4; stroke-width: 2"/>
    <path d="M 367.282576 691.881517 
L 367.282576 694.675208 
" clip-path="url(#pf86e04347f)" style="fill: none; stroke: #1f77b4; stroke-width: 2"/>
   </g>
   <g id="patch_13">
    <path d="M 66.15 820.2 
L 66.15 563.563034 
" style="fill: none; stroke: #000000; stroke-width: 0.8; stroke-linejoin: miter; stroke-linecap: square"/>
   </g>
   <g id="patch_14">
    <path d="M 389.316667 820.2 
L 389.316667 563.563034 
" style="fill: none; stroke: #000000; stroke-width: 0.8; stroke-linejoin: miter; stroke-linecap: square"/>
   </g>
   <g id="patch_15">
    <path d="M 66.15 820.2 
L 389.316667 820.2 
" style="fill: none; stroke: #000000; stroke-width: 0.8; stroke-linejoin: miter; stroke-linecap: square"/>
   </g>
   <g id="patch_16">
    <path d="M 66.15 563.563034 
L 389.316667 563.563034 
" style="fill: none; stroke: #000000; stroke-width: 0.8; stroke-linejoin: miter; stroke-linecap: square"/>
   </g>
  </g>
  <g id="axes_4">
   <g id="patch_17">
    <path d="M 403.616667 820.2 
L 565.2 820.2 
L 565.2 563.563034 
L 403.616667 563.563034 
z
" style="fill: #ffffff"/>
   </g>
   <g id="matplotlib.axis_7">
    <g id="xtick_19">
     <g id="line2d_47">
      <g>
       <use xlink:href="#mce69aa12e7" x="410.961364" y="820.2" style="stroke: #000000; stroke-width: 0.8"/>
      </g>
     </g>
     <g id="text_35">
      <!-- 0 -->
      <g transform="translate(407.780114 834.798437)scale(0.1 -0.1)">
       <use xlink:href="#DejaVuSans-30"/>
      </g>
     </g>
    </g>
    <g id="xtick_20">
     <g id="line2d_48">
      <g>
       <use xlink:href="#mce69aa12e7" x="468.914173" y="820.2" style="stroke: #000000; stroke-width: 0.8"/>
      </g>
     </g>
     <g id="text_36">
      <!-- 2 -->
      <g transform="translate(465.732923 834.798437)scale(0.1 -0.1)">
       <use xlink:href="#DejaVuSans-32"/>
      </g>
     </g>
    </g>
    <g id="xtick_21">
     <g id="line2d_49">
      <g>
       <use xlink:href="#mce69aa12e7" x="526.866983" y="820.2" style="stroke: #000000; stroke-width: 0.8"/>
      </g>
     </g>
     <g id="text_37">
      <!-- 4 -->
      <g transform="translate(523.685733 834.798437)scale(0.1 -0.1)">
       <use xlink:href="#DejaVuSans-34"/>
      </g>
     </g>
    </g>
    <g id="text_38">
     <!-- KDE -->
     <g transform="translate(474.120052 848.476562)scale(0.1 -0.1)">
      <defs>
       <path id="DejaVuSans-4b" d="M 628 4666 
L 1259 4666 
L 1259 2694 
L 3353 4666 
L 4166 4666 
L 1850 2491 
L 4331 0 
L 3500 0 
L 1259 2247 
L 1259 0 
L 628 0 
L 628 4666 
z
" transform="scale(0.015625)"/>
       <path id="DejaVuSans-44" d="M 1259 4147 
L 1259 519 
L 2022 519 
Q 2988 519 3436 956 
Q 3884 1394 3884 2338 
Q 3884 3275 3436 3711 
Q 2988 4147 2022 4147 
L 1259 4147 
z
M 628 4666 
L 1925 4666 
Q 3281 4666 3915 4102 
Q 4550 3538 4550 2338 
Q 4550 1131 3912 565 
Q 3275 0 1925 0 
L 628 0 
L 628 4666 
z
" transform="scale(0.015625)"/>
       <path id="DejaVuSans-45" d="M 628 4666 
L 3578 4666 
L 3578 4134 
L 1259 4134 
L 1259 2753 
L 3481 2753 
L 3481 2222 
L 1259 2222 
L 1259 531 
L 3634 531 
L 3634 0 
L 628 0 
L 628 4666 
z
" transform="scale(0.015625)"/>
      </defs>
      <use xlink:href="#DejaVuSans-4b"/>
      <use xlink:href="#DejaVuSans-44" x="65.576172"/>
      <use xlink:href="#DejaVuSans-45" x="142.578125"/>
     </g>
    </g>
   </g>
   <g id="matplotlib.axis_8">
    <g id="ytick_25">
     <g id="line2d_50">
      <g>
       <use xlink:href="#m25e0abec67" x="403.616667" y="820.2" style="stroke: #000000; stroke-width: 0.8"/>
      </g>
     </g>
    </g>
    <g id="ytick_26">
     <g id="line2d_51">
      <g>
       <use xlink:href="#m25e0abec67" x="403.616667" y="788.120379" style="stroke: #000000; stroke-width: 0.8"/>
      </g>
     </g>
    </g>
    <g id="ytick_27">
     <g id="line2d_52">
      <g>
       <use xlink:href="#m25e0abec67" x="403.616667" y="756.040759" style="stroke: #000000; stroke-width: 0.8"/>
      </g>
     </g>
    </g>
    <g id="ytick_28">
     <g id="line2d_53">
      <g>
       <use xlink:href="#m25e0abec67" x="403.616667" y="723.961138" style="stroke: #000000; stroke-width: 0.8"/>
      </g>
     </g>
    </g>
    <g id="ytick_29">
     <g id="line2d_54">
      <g>
       <use xlink:href="#m25e0abec67" x="403.616667" y="691.881517" style="stroke: #000000; stroke-width: 0.8"/>
      </g>
     </g>
    </g>
    <g id="ytick_30">
     <g id="line2d_55">
      <g>
       <use xlink:href="#m25e0abec67" x="403.616667" y="659.801896" style="stroke: #000000; stroke-width: 0.8"/>
      </g>
     </g>
    </g>
    <g id="ytick_31">
     <g id="line2d_56">
      <g>
       <use xlink:href="#m25e0abec67" x="403.616667" y="627.722276" style="stroke: #000000; stroke-width: 0.8"/>
      </g>
     </g>
    </g>
    <g id="ytick_32">
     <g id="line2d_57">
      <g>
       <use xlink:href="#m25e0abec67" x="403.616667" y="595.642655" style="stroke: #000000; stroke-width: 0.8"/>
      </g>
     </g>
    </g>
    <g id="ytick_33">
     <g id="line2d_58">
      <g>
       <use xlink:href="#m25e0abec67" x="403.616667" y="563.563034" style="stroke: #000000; stroke-width: 0.8"/>
      </g>
     </g>
    </g>
   </g>
   <g id="line2d_59">
    <path d="M 410.961364 820.2 
L 411.061646 720.782076 
L 411.279229 719.240713 
L 411.604307 718.213138 
L 412.196621 717.185562 
L 412.91061 716.414881 
L 413.950611 715.644199 
L 415.417271 714.873518 
L 417.419449 714.102836 
L 420.064794 713.332154 
L 423.447034 712.561473 
L 429.209614 711.533897 
L 436.423286 710.506322 
L 447.240354 709.221853 
L 466.964417 707.166702 
L 486.203959 705.111551 
L 498.441609 703.570188 
L 506.826249 702.285718 
L 513.692908 701.001249 
L 519.341926 699.71678 
L 525.024651 698.175417 
L 544.610108 692.523752 
L 551.897146 690.468601 
L 554.854601 689.441025 
L 556.529275 688.670344 
L 557.30832 688.156556 
L 557.763986 687.642768 
L 557.84714 687.128981 
L 557.506207 686.615193 
L 556.688326 686.101405 
L 555.341242 685.587618 
L 553.41591 685.07383 
L 549.353001 684.303148 
L 543.796988 683.532467 
L 536.725592 682.761785 
L 525.082926 681.73421 
L 507.680547 680.44974 
L 452.521709 676.596333 
L 441.026304 675.568757 
L 431.765369 674.541182 
L 424.716814 673.513606 
L 420.74551 672.742925 
L 417.739448 671.972243 
L 415.533401 671.201561 
L 413.96349 670.43088 
L 412.879919 669.660198 
L 412.154435 668.889517 
L 411.683193 668.118835 
L 411.315198 667.09126 
L 411.096753 665.80679 
L 410.981109 663.494746 
L 410.961366 655.274142 
L 410.961364 563.563034 
L 410.961364 563.563034 
" clip-path="url(#pf963113fd4)" style="fill: none; stroke: #1f77b4; stroke-width: 1.5; stroke-linecap: square"/>
   </g>
   <g id="patch_18">
    <path d="M 403.616667 820.2 
L 403.616667 563.563034 
" style="fill: none; stroke: #000000; stroke-width: 0.8; stroke-linejoin: miter; stroke-linecap: square"/>
   </g>
   <g id="patch_19">
    <path d="M 565.2 820.2 
L 565.2 563.563034 
" style="fill: none; stroke: #000000; stroke-width: 0.8; stroke-linejoin: miter; stroke-linecap: square"/>
   </g>
   <g id="patch_20">
    <path d="M 403.616667 820.2 
L 565.2 820.2 
" style="fill: none; stroke: #000000; stroke-width: 0.8; stroke-linejoin: miter; stroke-linecap: square"/>
   </g>
   <g id="patch_21">
    <path d="M 403.616667 563.563034 
L 565.2 563.563034 
" style="fill: none; stroke: #000000; stroke-width: 0.8; stroke-linejoin: miter; stroke-linecap: square"/>
   </g>
   <g id="text_39">
    <g id="patch_22">
     <path d="M 423.654167 625.52657 
L 520.254167 625.52657 
L 520.254167 572.194883 
L 423.654167 572.194883 
z
" style="fill: #ffffff; opacity: 0.5; stroke: #000000; stroke-linejoin: miter"/>
    </g>
    <!-- $\rm mode=$0.04 -->
    <g transform="translate(427.854167 587.032695)scale(0.14 -0.14)">
     <defs>
      <path id="DejaVuSans-64" d="M 2906 2969 
L 2906 4863 
L 3481 4863 
L 3481 0 
L 2906 0 
L 2906 525 
Q 2725 213 2448 61 
Q 2172 -91 1784 -91 
Q 1150 -91 751 415 
Q 353 922 353 1747 
Q 353 2572 751 3078 
Q 1150 3584 1784 3584 
Q 2172 3584 2448 3432 
Q 2725 3281 2906 2969 
z
M 947 1747 
Q 947 1113 1208 752 
Q 1469 391 1925 391 
Q 2381 391 2643 752 
Q 2906 1113 2906 1747 
Q 2906 2381 2643 2742 
Q 2381 3103 1925 3103 
Q 1469 3103 1208 2742 
Q 947 2381 947 1747 
z
" transform="scale(0.015625)"/>
      <path id="DejaVuSans-3d" d="M 678 2906 
L 4684 2906 
L 4684 2381 
L 678 2381 
L 678 2906 
z
M 678 1631 
L 4684 1631 
L 4684 1100 
L 678 1100 
L 678 1631 
z
" transform="scale(0.015625)"/>
     </defs>
     <use xlink:href="#DejaVuSans-6d" transform="translate(0 0.015625)"/>
     <use xlink:href="#DejaVuSans-6f" transform="translate(97.412109 0.015625)"/>
     <use xlink:href="#DejaVuSans-64" transform="translate(158.59375 0.015625)"/>
     <use xlink:href="#DejaVuSans-65" transform="translate(222.070312 0.015625)"/>
     <use xlink:href="#DejaVuSans-3d" transform="translate(303.076172 0.015625)"/>
     <use xlink:href="#DejaVuSans-30" transform="translate(406.347656 0.015625)"/>
     <use xlink:href="#DejaVuSans-2e" transform="translate(469.970703 0.015625)"/>
     <use xlink:href="#DejaVuSans-30" transform="translate(501.757812 0.015625)"/>
     <use xlink:href="#DejaVuSans-34" transform="translate(565.380859 0.015625)"/>
    </g>
    <!-- $\mu$=-0.0 -->
    <g transform="translate(427.854167 602.709633)scale(0.14 -0.14)">
     <defs>
      <path id="DejaVuSans-Oblique-3bc" d="M -84 -1331 
L 856 3500 
L 1434 3500 
L 1009 1322 
Q 997 1256 987 1175 
Q 978 1094 978 1013 
Q 978 722 1161 565 
Q 1344 409 1684 409 
Q 2147 409 2431 671 
Q 2716 934 2816 1459 
L 3213 3500 
L 3788 3500 
L 3266 809 
Q 3253 750 3248 706 
Q 3244 663 3244 628 
Q 3244 531 3283 486 
Q 3322 441 3406 441 
Q 3438 441 3492 456 
Q 3547 472 3647 513 
L 3559 50 
Q 3422 -19 3297 -55 
Q 3172 -91 3053 -91 
Q 2847 -91 2730 40 
Q 2613 172 2613 403 
Q 2438 153 2195 31 
Q 1953 -91 1625 -91 
Q 1334 -91 1117 43 
Q 900 178 831 397 
L 494 -1331 
L -84 -1331 
z
" transform="scale(0.015625)"/>
      <path id="DejaVuSans-2d" d="M 313 2009 
L 1997 2009 
L 1997 1497 
L 313 1497 
L 313 2009 
z
" transform="scale(0.015625)"/>
     </defs>
     <use xlink:href="#DejaVuSans-Oblique-3bc" transform="translate(0 0.78125)"/>
     <use xlink:href="#DejaVuSans-3d" transform="translate(63.623047 0.78125)"/>
     <use xlink:href="#DejaVuSans-2d" transform="translate(147.412109 0.78125)"/>
     <use xlink:href="#DejaVuSans-30" transform="translate(183.496094 0.78125)"/>
     <use xlink:href="#DejaVuSans-2e" transform="translate(247.119141 0.78125)"/>
     <use xlink:href="#DejaVuSans-30" transform="translate(278.90625 0.78125)"/>
    </g>
    <!-- $\sigma$=0.06 -->
    <g transform="translate(427.854167 618.415008)scale(0.14 -0.14)">
     <defs>
      <path id="DejaVuSans-Oblique-3c3" d="M 2219 3044 
Q 1744 3044 1422 2700 
Q 1081 2341 969 1747 
Q 844 1119 1044 756 
Q 1241 397 1706 397 
Q 2166 397 2503 759 
Q 2844 1122 2966 1747 
Q 3075 2319 2881 2700 
Q 2700 3044 2219 3044 
z
M 2309 3503 
L 4219 3500 
L 4106 2925 
L 3463 2925 
Q 3706 2438 3575 1747 
Q 3406 888 2884 400 
Q 2359 -91 1609 -91 
Q 856 -91 525 400 
Q 194 888 363 1747 
Q 528 2609 1050 3097 
Q 1484 3503 2309 3503 
z
" transform="scale(0.015625)"/>
     </defs>
     <use xlink:href="#DejaVuSans-Oblique-3c3" transform="translate(0 0.78125)"/>
     <use xlink:href="#DejaVuSans-3d" transform="translate(63.378906 0.78125)"/>
     <use xlink:href="#DejaVuSans-30" transform="translate(147.167969 0.78125)"/>
     <use xlink:href="#DejaVuSans-2e" transform="translate(210.791016 0.78125)"/>
     <use xlink:href="#DejaVuSans-30" transform="translate(242.578125 0.78125)"/>
     <use xlink:href="#DejaVuSans-36" transform="translate(306.201172 0.78125)"/>
    </g>
   </g>
  </g>
 </g>
 <defs>
  <clipPath id="p9235f28a90">
   <rect x="66.15" y="10.8" width="323.166667" height="256.636966"/>
  </clipPath>
  <clipPath id="p0da0053f2a">
   <rect x="66.15" y="287.181517" width="323.166667" height="256.636966"/>
  </clipPath>
  <clipPath id="pf86e04347f">
   <rect x="66.15" y="563.563034" width="323.166667" height="256.636966"/>
  </clipPath>
  <clipPath id="pf963113fd4">
   <rect x="403.616667" y="563.563034" width="161.583333" height="256.636966"/>
  </clipPath>
 </defs>
</svg>
