<?xml version="1.0" encoding="utf-8" standalone="no"?>
<!DOCTYPE svg PUBLIC "-//W3C//DTD SVG 1.1//EN"
  "http://www.w3.org/Graphics/SVG/1.1/DTD/svg11.dtd">
<svg xmlns:xlink="http://www.w3.org/1999/xlink" width="432pt" height="288pt" viewBox="0 0 432 288" xmlns="http://www.w3.org/2000/svg" version="1.1">
 <metadata>
  <rdf:RDF xmlns:dc="http://purl.org/dc/elements/1.1/" xmlns:cc="http://creativecommons.org/ns#" xmlns:rdf="http://www.w3.org/1999/02/22-rdf-syntax-ns#">
   <cc:Work>
    <dc:type rdf:resource="http://purl.org/dc/dcmitype/StillImage"/>
    <dc:date>2022-07-04T16:05:11.317167</dc:date>
    <dc:format>image/svg+xml</dc:format>
    <dc:creator>
     <cc:Agent>
      <dc:title>Matplotlib v3.5.1, https://matplotlib.org/</dc:title>
     </cc:Agent>
    </dc:creator>
   </cc:Work>
  </rdf:RDF>
 </metadata>
 <defs>
  <style type="text/css">*{stroke-linejoin: round; stroke-linecap: butt}</style>
 </defs>
 <g id="figure_1">
  <g id="patch_1">
   <path d="M 0 288 
L 432 288 
L 432 0 
L 0 0 
L 0 288 
z
" style="fill: none"/>
  </g>
  <g id="axes_1">
   <g id="patch_2">
    <path d="M 54 252 
L 388.8 252 
L 388.8 34.56 
L 54 34.56 
z
" style="fill: #ffffff"/>
   </g>
   <g id="PolyCollection_1">
    <path d="M 69.218182 241.207687 
L 69.218182 240.516115 
L 69.52285 240.497719 
L 69.827518 240.479112 
L 70.132187 240.460293 
L 70.436855 240.44126 
L 70.741523 240.422011 
L 71.046192 240.402541 
L 71.35086 240.38285 
L 71.655528 240.362935 
L 71.960197 240.342794 
L 72.264865 240.322422 
L 72.569533 240.30182 
L 72.874201 240.280982 
L 73.17887 240.259908 
L 73.483538 240.238594 
L 73.788206 240.217038 
L 74.092875 240.195236 
L 74.397543 240.173187 
L 74.702211 240.150888 
L 75.00688 240.128335 
L 75.311548 240.105526 
L 75.616216 240.082458 
L 75.920885 240.059128 
L 76.225553 240.035533 
L 76.530221 240.011671 
L 76.834889 239.987538 
L 77.139558 239.963131 
L 77.444226 239.938448 
L 77.748894 239.913485 
L 78.053563 239.888239 
L 78.358231 239.862707 
L 78.662899 239.836885 
L 78.967568 239.810772 
L 79.272236 239.784363 
L 79.576904 239.757655 
L 79.881572 239.730645 
L 80.186241 239.703329 
L 80.490909 239.675705 
L 80.795577 239.647768 
L 81.100246 239.619516 
L 81.404914 239.590944 
L 81.709582 239.56205 
L 82.014251 239.53283 
L 82.318919 239.50328 
L 82.623587 239.473396 
L 82.928256 239.443175 
L 83.232924 239.412614 
L 83.537592 239.381708 
L 83.84226 239.350454 
L 84.146929 239.318848 
L 84.451597 239.286885 
L 84.756265 239.254563 
L 85.060934 239.221878 
L 85.365602 239.188824 
L 85.67027 239.155399 
L 85.974939 239.121598 
L 86.279607 239.087417 
L 86.584275 239.052853 
L 86.888943 239.0179 
L 87.193612 238.982555 
L 87.49828 238.946813 
L 87.802948 238.91067 
L 88.107617 238.874122 
L 88.412285 238.837164 
L 88.716953 238.799792 
L 89.021622 238.762002 
L 89.32629 238.723788 
L 89.630958 238.685147 
L 89.935627 238.646074 
L 90.240295 238.606563 
L 90.544963 238.566611 
L 90.849631 238.526213 
L 91.1543 238.485364 
L 91.458968 238.444058 
L 91.763636 238.402292 
L 92.068305 238.36006 
L 92.372973 238.317357 
L 92.677641 238.274178 
L 92.98231 238.230518 
L 93.286978 238.186373 
L 93.591646 238.141735 
L 93.896314 238.096602 
L 94.200983 238.050967 
L 94.505651 238.004824 
L 94.810319 237.95817 
L 95.114988 237.910997 
L 95.419656 237.863301 
L 95.724324 237.815076 
L 96.028993 237.766316 
L 96.333661 237.717016 
L 96.638329 237.667171 
L 96.942998 237.616774 
L 97.247666 237.565819 
L 97.552334 237.514301 
L 97.857002 237.462214 
L 98.161671 237.409552 
L 98.466339 237.356309 
L 98.771007 237.302478 
L 99.075676 237.248054 
L 99.380344 237.19303 
L 99.685012 237.137401 
L 99.989681 237.081159 
L 100.294349 237.024299 
L 100.599017 236.966814 
L 100.903686 236.908697 
L 101.208354 236.849943 
L 101.513022 236.790544 
L 101.81769 236.730493 
L 102.122359 236.669785 
L 102.427027 236.608413 
L 102.731695 236.546368 
L 103.036364 236.483646 
L 103.341032 236.420237 
L 103.6457 236.356137 
L 103.950369 236.291337 
L 104.255037 236.22583 
L 104.559705 236.15961 
L 104.864373 236.092669 
L 105.169042 236.024999 
L 105.47371 235.956594 
L 105.778378 235.887445 
L 106.083047 235.817545 
L 106.387715 235.746888 
L 106.692383 235.675464 
L 106.997052 235.603267 
L 107.30172 235.530288 
L 107.606388 235.45652 
L 107.911057 235.381955 
L 108.215725 235.306585 
L 108.520393 235.230401 
L 108.825061 235.153397 
L 109.12973 235.075563 
L 109.434398 234.996892 
L 109.739066 234.917375 
L 110.043735 234.837003 
L 110.348403 234.755769 
L 110.653071 234.673664 
L 110.95774 234.590679 
L 111.262408 234.506806 
L 111.567076 234.422036 
L 111.871744 234.336361 
L 112.176413 234.24977 
L 112.481081 234.162257 
L 112.785749 234.073811 
L 113.090418 233.984424 
L 113.395086 233.894086 
L 113.699754 233.802789 
L 114.004423 233.710524 
L 114.309091 233.61728 
L 114.613759 233.523049 
L 114.918428 233.427821 
L 115.223096 233.331586 
L 115.527764 233.234336 
L 115.832432 233.136061 
L 116.137101 233.03675 
L 116.441769 232.936395 
L 116.746437 232.834985 
L 117.051106 232.732511 
L 117.355774 232.628962 
L 117.660442 232.524329 
L 117.965111 232.418601 
L 118.269779 232.311768 
L 118.574447 232.203821 
L 118.879115 232.094749 
L 119.183784 231.984541 
L 119.488452 231.873188 
L 119.79312 231.760678 
L 120.097789 231.647001 
L 120.402457 231.532147 
L 120.707125 231.416106 
L 121.011794 231.298865 
L 121.316462 231.180415 
L 121.62113 231.060745 
L 121.925799 230.939843 
L 122.230467 230.8177 
L 122.535135 230.694303 
L 122.839803 230.569642 
L 123.144472 230.443706 
L 123.44914 230.316484 
L 123.753808 230.187963 
L 124.058477 230.058134 
L 124.363145 229.926985 
L 124.667813 229.794503 
L 124.972482 229.660679 
L 125.27715 229.5255 
L 125.581818 229.388954 
L 125.886486 229.251031 
L 126.191155 229.111718 
L 126.495823 228.971004 
L 126.800491 228.828877 
L 127.10516 228.685325 
L 127.409828 228.540336 
L 127.714496 228.393899 
L 128.019165 228.246001 
L 128.323833 228.096631 
L 128.628501 227.945776 
L 128.93317 227.793425 
L 129.237838 227.639565 
L 129.542506 227.484183 
L 129.847174 227.327269 
L 130.151843 227.16881 
L 130.456511 227.008793 
L 130.761179 226.847206 
L 131.065848 226.684036 
L 131.370516 226.519273 
L 131.675184 226.352902 
L 131.979853 226.184912 
L 132.284521 226.01529 
L 132.589189 225.844024 
L 132.893857 225.671101 
L 133.198526 225.496509 
L 133.503194 225.320235 
L 133.807862 225.142267 
L 134.112531 224.962592 
L 134.417199 224.781197 
L 134.721867 224.598071 
L 135.026536 224.4132 
L 135.331204 224.226571 
L 135.635872 224.038173 
L 135.940541 223.847993 
L 136.245209 223.656017 
L 136.549877 223.462234 
L 136.854545 223.26663 
L 137.159214 223.069194 
L 137.463882 222.869912 
L 137.76855 222.668772 
L 138.073219 222.465762 
L 138.377887 222.260868 
L 138.682555 222.054079 
L 138.987224 221.845382 
L 139.291892 221.634764 
L 139.59656 221.422213 
L 139.901229 221.207717 
L 140.205897 220.991263 
L 140.510565 220.772838 
L 140.815233 220.552431 
L 141.119902 220.330029 
L 141.42457 220.10562 
L 141.729238 219.879192 
L 142.033907 219.650732 
L 142.338575 219.420229 
L 142.643243 219.18767 
L 142.947912 218.953044 
L 143.25258 218.716338 
L 143.557248 218.477542 
L 143.861916 218.236642 
L 144.166585 217.993627 
L 144.471253 217.748486 
L 144.775921 217.501208 
L 145.08059 217.25178 
L 145.385258 217.000191 
L 145.689926 216.746431 
L 145.994595 216.490487 
L 146.299263 216.232349 
L 146.603931 215.972006 
L 146.9086 215.709447 
L 147.213268 215.444661 
L 147.517936 215.177638 
L 147.822604 214.908367 
L 148.127273 214.636837 
L 148.431941 214.363039 
L 148.736609 214.086962 
L 149.041278 213.808596 
L 149.345946 213.527932 
L 149.650614 213.244959 
L 149.955283 212.959668 
L 150.259951 212.672051 
L 150.564619 212.382096 
L 150.869287 212.089796 
L 151.173956 211.795141 
L 151.478624 211.498122 
L 151.783292 211.198732 
L 152.087961 210.896962 
L 152.392629 210.592802 
L 152.697297 210.286246 
L 153.001966 209.977286 
L 153.306634 209.665913 
L 153.611302 209.352121 
L 153.915971 209.035902 
L 154.220639 208.717249 
L 154.525307 208.396156 
L 154.829975 208.072615 
L 155.134644 207.746621 
L 155.439312 207.418167 
L 155.74398 207.087248 
L 156.048649 206.753857 
L 156.353317 206.41799 
L 156.657985 206.079641 
L 156.962654 205.738805 
L 157.267322 205.395478 
L 157.57199 205.049656 
L 157.876658 204.701334 
L 158.181327 204.350508 
L 158.485995 203.997175 
L 158.790663 203.641331 
L 159.095332 203.282975 
L 159.4 202.922102 
L 159.704668 202.558711 
L 160.009337 202.1928 
L 160.314005 201.824366 
L 160.618673 201.453409 
L 160.923342 201.079927 
L 161.22801 200.703919 
L 161.532678 200.325386 
L 161.837346 199.944326 
L 162.142015 199.56074 
L 162.446683 199.174629 
L 162.751351 198.785993 
L 163.05602 198.394833 
L 163.360688 198.001152 
L 163.665356 197.604951 
L 163.970025 197.206232 
L 164.274693 196.804998 
L 164.579361 196.401252 
L 164.884029 195.994998 
L 165.188698 195.586239 
L 165.493366 195.174979 
L 165.798034 194.761223 
L 166.102703 194.344976 
L 166.407371 193.926244 
L 166.712039 193.505031 
L 167.016708 193.081344 
L 167.321376 192.65519 
L 167.626044 192.226575 
L 167.930713 191.795507 
L 168.235381 191.361994 
L 168.540049 190.926044 
L 168.844717 190.487664 
L 169.149386 190.046865 
L 169.454054 189.603656 
L 169.758722 189.158047 
L 170.063391 188.710047 
L 170.368059 188.259668 
L 170.672727 187.80692 
L 170.977396 187.351816 
L 171.282064 186.894367 
L 171.586732 186.434586 
L 171.8914 185.972486 
L 172.196069 185.508079 
L 172.500737 185.04138 
L 172.805405 184.572403 
L 173.110074 184.101163 
L 173.414742 183.627674 
L 173.71941 183.151953 
L 174.024079 182.674015 
L 174.328747 182.193876 
L 174.633415 181.711554 
L 174.938084 181.227065 
L 175.242752 180.740429 
L 175.54742 180.251662 
L 175.852088 179.760783 
L 176.156757 179.267812 
L 176.461425 178.772768 
L 176.766093 178.275671 
L 177.070762 177.776541 
L 177.37543 177.2754 
L 177.680098 176.772268 
L 177.984767 176.267168 
L 178.289435 175.760121 
L 178.594103 175.25115 
L 178.898771 174.740279 
L 179.20344 174.22753 
L 179.508108 173.712927 
L 179.812776 173.196495 
L 180.117445 172.678258 
L 180.422113 172.158242 
L 180.726781 171.636472 
L 181.03145 171.112974 
L 181.336118 170.587774 
L 181.640786 170.0609 
L 181.945455 169.532377 
L 182.250123 169.002234 
L 182.554791 168.470499 
L 182.859459 167.9372 
L 183.164128 167.402365 
L 183.468796 166.866024 
L 183.773464 166.328205 
L 184.078133 165.78894 
L 184.382801 165.248257 
L 184.687469 164.706188 
L 184.992138 164.162762 
L 185.296806 163.618012 
L 185.601474 163.071968 
L 185.906143 162.524663 
L 186.210811 161.976129 
L 186.515479 161.426397 
L 186.820147 160.875501 
L 187.124816 160.323473 
L 187.429484 159.770347 
L 187.734152 159.216157 
L 188.038821 158.660936 
L 188.343489 158.104719 
L 188.648157 157.547539 
L 188.952826 156.989431 
L 189.257494 156.430431 
L 189.562162 155.870572 
L 189.86683 155.309892 
L 190.171499 154.748424 
L 190.476167 154.186205 
L 190.780835 153.62327 
L 191.085504 153.059657 
L 191.390172 152.4954 
L 191.69484 151.930536 
L 191.999509 151.365103 
L 192.304177 150.799136 
L 192.608845 150.232673 
L 192.913514 149.66575 
L 193.218182 149.098405 
L 193.52285 148.530675 
L 193.827518 147.962597 
L 194.132187 147.39421 
L 194.436855 146.825549 
L 194.741523 146.256653 
L 195.046192 145.68756 
L 195.35086 145.118307 
L 195.655528 144.548932 
L 195.960197 143.979472 
L 196.264865 143.409967 
L 196.569533 142.840452 
L 196.874201 142.270967 
L 197.17887 141.701549 
L 197.483538 141.132236 
L 197.788206 140.563065 
L 198.092875 139.994074 
L 198.397543 139.425301 
L 198.702211 138.856784 
L 199.00688 138.288561 
L 199.311548 137.720667 
L 199.616216 137.153142 
L 199.920885 136.586022 
L 200.225553 136.019344 
L 200.530221 135.453146 
L 200.834889 134.887465 
L 201.139558 134.322337 
L 201.444226 133.757798 
L 201.748894 133.193887 
L 202.053563 132.630638 
L 202.358231 132.068088 
L 202.662899 131.506272 
L 202.967568 130.945228 
L 203.272236 130.38499 
L 203.576904 129.825594 
L 203.881572 129.267074 
L 204.186241 128.709467 
L 204.490909 128.152806 
L 204.795577 127.597126 
L 205.100246 127.042461 
L 205.404914 126.488845 
L 205.709582 125.936312 
L 206.014251 125.384895 
L 206.318919 124.834628 
L 206.623587 124.285543 
L 206.928256 123.737673 
L 207.232924 123.191049 
L 207.537592 122.645705 
L 207.84226 122.101671 
L 208.146929 121.558979 
L 208.451597 121.017659 
L 208.756265 120.477743 
L 209.060934 119.939261 
L 209.365602 119.402242 
L 209.67027 118.866716 
L 209.974939 118.332712 
L 210.279607 117.800259 
L 210.584275 117.269386 
L 210.888943 116.740121 
L 211.193612 116.212491 
L 211.49828 115.686523 
L 211.802948 115.162245 
L 212.107617 114.639683 
L 212.412285 114.118863 
L 212.716953 113.599811 
L 213.021622 113.082553 
L 213.32629 112.567112 
L 213.630958 112.053514 
L 213.935627 111.541782 
L 214.240295 111.031941 
L 214.544963 110.524013 
L 214.849631 110.018022 
L 215.1543 109.513989 
L 215.458968 109.011937 
L 215.763636 108.511886 
L 216.068305 108.013859 
L 216.372973 107.517875 
L 216.677641 107.023956 
L 216.98231 106.53212 
L 217.286978 106.042387 
L 217.591646 105.554775 
L 217.896314 105.069304 
L 218.200983 104.585991 
L 218.505651 104.104854 
L 218.810319 103.625909 
L 219.114988 103.149174 
L 219.419656 102.674664 
L 219.724324 102.202396 
L 220.028993 101.732384 
L 220.333661 101.264644 
L 220.638329 100.799189 
L 220.942998 100.336034 
L 221.247666 99.875193 
L 221.552334 99.416678 
L 221.857002 98.960502 
L 222.161671 98.506678 
L 222.466339 98.055216 
L 222.771007 97.606129 
L 223.075676 97.159427 
L 223.380344 96.715121 
L 223.685012 96.273221 
L 223.989681 95.833736 
L 224.294349 95.396676 
L 224.599017 94.96205 
L 224.903686 94.529865 
L 225.208354 94.100129 
L 225.513022 93.672851 
L 225.81769 93.248037 
L 226.122359 92.825695 
L 226.427027 92.405829 
L 226.731695 91.988447 
L 227.036364 91.573554 
L 227.341032 91.161154 
L 227.6457 90.751253 
L 227.950369 90.343855 
L 228.255037 89.938964 
L 228.559705 89.536584 
L 228.864373 89.136717 
L 229.169042 88.739366 
L 229.47371 88.344534 
L 229.778378 87.952224 
L 230.083047 87.562436 
L 230.387715 87.175172 
L 230.692383 86.790433 
L 230.997052 86.40822 
L 231.30172 86.028534 
L 231.606388 85.651373 
L 231.911057 85.276739 
L 232.215725 84.904629 
L 232.520393 84.535044 
L 232.825061 84.167982 
L 233.12973 83.803441 
L 233.434398 83.441419 
L 233.739066 83.081914 
L 234.043735 82.724924 
L 234.348403 82.370446 
L 234.653071 82.018476 
L 234.95774 81.669012 
L 235.262408 81.322049 
L 235.567076 80.977583 
L 235.871744 80.635611 
L 236.176413 80.296128 
L 236.481081 79.959129 
L 236.785749 79.624608 
L 237.090418 79.292562 
L 237.395086 78.962983 
L 237.699754 78.635867 
L 238.004423 78.311207 
L 238.309091 77.988998 
L 238.613759 77.669232 
L 238.918428 77.351903 
L 239.223096 77.037004 
L 239.527764 76.724528 
L 239.832432 76.414468 
L 240.137101 76.106815 
L 240.441769 75.801563 
L 240.746437 75.498703 
L 241.051106 75.198228 
L 241.355774 74.900128 
L 241.660442 74.604395 
L 241.965111 74.311021 
L 242.269779 74.019997 
L 242.574447 73.731314 
L 242.879115 73.444962 
L 243.183784 73.160933 
L 243.488452 72.879216 
L 243.79312 72.599803 
L 244.097789 72.322682 
L 244.402457 72.047845 
L 244.707125 71.775282 
L 245.011794 71.504981 
L 245.316462 71.236933 
L 245.62113 70.971127 
L 245.925799 70.707553 
L 246.230467 70.4462 
L 246.535135 70.187057 
L 246.839803 69.930113 
L 247.144472 69.675358 
L 247.44914 69.422779 
L 247.753808 69.172366 
L 248.058477 68.924108 
L 248.363145 68.677993 
L 248.667813 68.43401 
L 248.972482 68.192146 
L 249.27715 67.952391 
L 249.581818 67.714732 
L 249.886486 67.479158 
L 250.191155 67.245658 
L 250.495823 67.014218 
L 250.800491 66.784827 
L 251.10516 66.557473 
L 251.409828 66.332144 
L 251.714496 66.108827 
L 252.019165 65.887511 
L 252.323833 65.668183 
L 252.628501 65.450831 
L 252.93317 65.235443 
L 253.237838 65.022006 
L 253.542506 64.810507 
L 253.847174 64.600935 
L 254.151843 64.393276 
L 254.456511 64.187519 
L 254.761179 63.983651 
L 255.065848 63.781659 
L 255.370516 63.581531 
L 255.675184 63.383254 
L 255.979853 63.186815 
L 256.284521 62.992203 
L 256.589189 62.799404 
L 256.893857 62.608405 
L 257.198526 62.419195 
L 257.503194 62.231761 
L 257.807862 62.046089 
L 258.112531 61.862168 
L 258.417199 61.679984 
L 258.721867 61.499526 
L 259.026536 61.32078 
L 259.331204 61.143735 
L 259.635872 60.968377 
L 259.940541 60.794693 
L 260.245209 60.622673 
L 260.549877 60.452302 
L 260.854545 60.283569 
L 261.159214 60.11646 
L 261.463882 59.950965 
L 261.76855 59.787069 
L 262.073219 59.624762 
L 262.377887 59.46403 
L 262.682555 59.304861 
L 262.987224 59.147243 
L 263.291892 58.991164 
L 263.59656 58.836611 
L 263.901229 58.683572 
L 264.205897 58.532036 
L 264.510565 58.381989 
L 264.815233 58.233421 
L 265.119902 58.086319 
L 265.42457 57.94067 
L 265.729238 57.796464 
L 266.033907 57.653688 
L 266.338575 57.512331 
L 266.643243 57.37238 
L 266.947912 57.233824 
L 267.25258 57.096651 
L 267.557248 56.960849 
L 267.861916 56.826408 
L 268.166585 56.693315 
L 268.471253 56.561559 
L 268.775921 56.431129 
L 269.08059 56.302013 
L 269.385258 56.174199 
L 269.689926 56.047677 
L 269.994595 55.922436 
L 270.299263 55.798464 
L 270.603931 55.67575 
L 270.9086 55.554283 
L 271.213268 55.434052 
L 271.517936 55.315046 
L 271.822604 55.197255 
L 272.127273 55.080667 
L 272.431941 54.965273 
L 272.736609 54.85106 
L 273.041278 54.738019 
L 273.345946 54.626139 
L 273.650614 54.51541 
L 273.955283 54.40582 
L 274.259951 54.297361 
L 274.564619 54.190021 
L 274.869287 54.08379 
L 275.173956 53.978659 
L 275.478624 53.874616 
L 275.783292 53.771653 
L 276.087961 53.669758 
L 276.392629 53.568923 
L 276.697297 53.469136 
L 277.001966 53.37039 
L 277.306634 53.272673 
L 277.611302 53.175976 
L 277.915971 53.08029 
L 278.220639 52.985605 
L 278.525307 52.891912 
L 278.829975 52.799201 
L 279.134644 52.707463 
L 279.439312 52.616689 
L 279.74398 52.526869 
L 280.048649 52.437994 
L 280.353317 52.350057 
L 280.657985 52.263046 
L 280.962654 52.176954 
L 281.267322 52.091772 
L 281.57199 52.007491 
L 281.876658 51.924102 
L 282.181327 51.841596 
L 282.485995 51.759965 
L 282.790663 51.679201 
L 283.095332 51.599295 
L 283.4 51.520239 
L 283.704668 51.442024 
L 284.009337 51.364642 
L 284.314005 51.288085 
L 284.618673 51.212345 
L 284.923342 51.137413 
L 285.22801 51.063282 
L 285.532678 50.989944 
L 285.837346 50.917391 
L 286.142015 50.845615 
L 286.446683 50.774609 
L 286.751351 50.704364 
L 287.05602 50.634874 
L 287.360688 50.56613 
L 287.665356 50.498126 
L 287.970025 50.430853 
L 288.274693 50.364304 
L 288.579361 50.298473 
L 288.884029 50.233351 
L 289.188698 50.168932 
L 289.493366 50.105209 
L 289.798034 50.042174 
L 290.102703 49.979821 
L 290.407371 49.918143 
L 290.712039 49.857132 
L 291.016708 49.796783 
L 291.321376 49.737087 
L 291.626044 49.678039 
L 291.930713 49.619633 
L 292.235381 49.56186 
L 292.540049 49.504716 
L 292.844717 49.448192 
L 293.149386 49.392284 
L 293.454054 49.336985 
L 293.758722 49.282288 
L 294.063391 49.228187 
L 294.368059 49.174676 
L 294.672727 49.12175 
L 294.977396 49.069401 
L 295.282064 49.017624 
L 295.586732 48.966413 
L 295.8914 48.915762 
L 296.196069 48.865665 
L 296.500737 48.816117 
L 296.805405 48.767112 
L 297.110074 48.718644 
L 297.414742 48.670707 
L 297.71941 48.623296 
L 298.024079 48.576405 
L 298.328747 48.53003 
L 298.633415 48.484164 
L 298.938084 48.438802 
L 299.242752 48.393939 
L 299.54742 48.34957 
L 299.852088 48.305689 
L 300.156757 48.262291 
L 300.461425 48.219372 
L 300.766093 48.176925 
L 301.070762 48.134947 
L 301.37543 48.093432 
L 301.680098 48.052375 
L 301.984767 48.011771 
L 302.289435 47.971616 
L 302.594103 47.931905 
L 302.898771 47.892633 
L 303.20344 47.853795 
L 303.508108 47.815387 
L 303.812776 47.777404 
L 304.117445 47.739841 
L 304.422113 47.702695 
L 304.726781 47.665961 
L 305.03145 47.629633 
L 305.336118 47.593709 
L 305.640786 47.558183 
L 305.945455 47.523052 
L 306.250123 47.48831 
L 306.554791 47.453955 
L 306.859459 47.419981 
L 307.164128 47.386385 
L 307.468796 47.353162 
L 307.773464 47.320309 
L 308.078133 47.287822 
L 308.382801 47.255696 
L 308.687469 47.223928 
L 308.992138 47.192513 
L 309.296806 47.161449 
L 309.601474 47.130731 
L 309.906143 47.100355 
L 310.210811 47.070318 
L 310.515479 47.040616 
L 310.820147 47.011246 
L 311.124816 46.982203 
L 311.429484 46.953485 
L 311.734152 46.925087 
L 312.038821 46.897007 
L 312.343489 46.86924 
L 312.648157 46.841784 
L 312.952826 46.814635 
L 313.257494 46.78779 
L 313.562162 46.761245 
L 313.86683 46.734997 
L 314.171499 46.709042 
L 314.476167 46.683379 
L 314.780835 46.658003 
L 315.085504 46.632911 
L 315.390172 46.6081 
L 315.69484 46.583568 
L 315.999509 46.55931 
L 316.304177 46.535325 
L 316.608845 46.511608 
L 316.913514 46.488158 
L 317.218182 46.464971 
L 317.52285 46.442044 
L 317.827518 46.419374 
L 318.132187 46.396959 
L 318.436855 46.374796 
L 318.741523 46.352882 
L 319.046192 46.331214 
L 319.35086 46.30979 
L 319.655528 46.288607 
L 319.960197 46.267662 
L 320.264865 46.246952 
L 320.569533 46.226475 
L 320.874201 46.206229 
L 321.17887 46.186211 
L 321.483538 46.166418 
L 321.788206 46.146848 
L 322.092875 46.127498 
L 322.397543 46.108367 
L 322.702211 46.089451 
L 323.00688 46.070748 
L 323.311548 46.052255 
L 323.616216 46.033972 
L 323.920885 46.015894 
L 324.225553 45.99802 
L 324.530221 45.980348 
L 324.834889 45.962875 
L 325.139558 45.9456 
L 325.444226 45.928519 
L 325.748894 45.911631 
L 326.053563 45.894934 
L 326.358231 45.878425 
L 326.662899 45.862103 
L 326.967568 45.845965 
L 327.272236 45.830009 
L 327.576904 45.814234 
L 327.881572 45.798637 
L 328.186241 45.783216 
L 328.490909 45.76797 
L 328.795577 45.752896 
L 329.100246 45.737992 
L 329.404914 45.723257 
L 329.709582 45.708689 
L 330.014251 45.694285 
L 330.318919 45.680044 
L 330.623587 45.665965 
L 330.928256 45.652045 
L 331.232924 45.638282 
L 331.537592 45.624675 
L 331.84226 45.611222 
L 332.146929 45.597922 
L 332.451597 45.584772 
L 332.756265 45.571771 
L 333.060934 45.558918 
L 333.365602 45.54621 
L 333.67027 45.533646 
L 333.974939 45.521224 
L 334.279607 45.508943 
L 334.584275 45.496802 
L 334.888943 45.484798 
L 335.193612 45.47293 
L 335.49828 45.461197 
L 335.802948 45.449597 
L 336.107617 45.438128 
L 336.412285 45.42679 
L 336.716953 45.41558 
L 337.021622 45.404497 
L 337.32629 45.39354 
L 337.630958 45.382708 
L 337.935627 45.371998 
L 338.240295 45.36141 
L 338.544963 45.350942 
L 338.849631 45.340593 
L 339.1543 45.330362 
L 339.458968 45.320246 
L 339.763636 45.310246 
L 340.068305 45.300359 
L 340.372973 45.290584 
L 340.677641 45.280921 
L 340.98231 45.271367 
L 341.286978 45.261922 
L 341.591646 45.252584 
L 341.896314 45.243353 
L 342.200983 45.234226 
L 342.505651 45.225203 
L 342.810319 45.216283 
L 343.114988 45.207464 
L 343.419656 45.198745 
L 343.724324 45.190125 
L 344.028993 45.181604 
L 344.333661 45.173179 
L 344.638329 45.16485 
L 344.942998 45.156616 
L 345.247666 45.148476 
L 345.552334 45.140428 
L 345.857002 45.132472 
L 346.161671 45.124606 
L 346.466339 45.11683 
L 346.771007 45.109142 
L 347.075676 45.101542 
L 347.380344 45.094028 
L 347.685012 45.0866 
L 347.989681 45.079257 
L 348.294349 45.071997 
L 348.599017 45.064819 
L 348.903686 45.057724 
L 349.208354 45.050709 
L 349.513022 45.043774 
L 349.81769 45.036918 
L 350.122359 45.03014 
L 350.427027 45.02344 
L 350.731695 45.016815 
L 351.036364 45.010267 
L 351.341032 45.003792 
L 351.6457 44.997392 
L 351.950369 44.991064 
L 352.255037 44.984809 
L 352.559705 44.978625 
L 352.864373 44.972511 
L 353.169042 44.966467 
L 353.47371 44.960492 
L 353.778378 44.954585 
L 354.083047 44.948745 
L 354.387715 44.942972 
L 354.692383 44.937265 
L 354.997052 44.931623 
L 355.30172 44.926045 
L 355.606388 44.920531 
L 355.911057 44.915079 
L 356.215725 44.90969 
L 356.520393 44.904363 
L 356.825061 44.899096 
L 357.12973 44.893889 
L 357.434398 44.888741 
L 357.739066 44.883652 
L 358.043735 44.878622 
L 358.348403 44.873648 
L 358.653071 44.868732 
L 358.95774 44.863871 
L 359.262408 44.859066 
L 359.567076 44.854316 
L 359.871744 44.84962 
L 360.176413 44.844977 
L 360.481081 44.840388 
L 360.785749 44.835851 
L 361.090418 44.831366 
L 361.395086 44.826931 
L 361.699754 44.822548 
L 362.004423 44.818215 
L 362.309091 44.813931 
L 362.613759 44.809695 
L 362.918428 44.805509 
L 363.223096 44.80137 
L 363.527764 44.797278 
L 363.832432 44.793233 
L 364.137101 44.789234 
L 364.441769 44.785281 
L 364.746437 44.781373 
L 365.051106 44.77751 
L 365.355774 44.773691 
L 365.660442 44.769915 
L 365.965111 44.766183 
L 366.269779 44.762493 
L 366.574447 44.758845 
L 366.879115 44.755239 
L 367.183784 44.751674 
L 367.488452 44.74815 
L 367.79312 44.744666 
L 368.097789 44.741222 
L 368.402457 44.737817 
L 368.707125 44.734451 
L 369.011794 44.731124 
L 369.316462 44.727835 
L 369.62113 44.724583 
L 369.925799 44.721368 
L 370.230467 44.71819 
L 370.535135 44.715049 
L 370.839803 44.711943 
L 371.144472 44.708873 
L 371.44914 44.705838 
L 371.753808 44.702837 
L 372.058477 44.699871 
L 372.363145 44.696939 
L 372.667813 44.69404 
L 372.972482 44.691174 
L 373.27715 44.688341 
L 373.581818 44.685541 
L 373.581818 44.87075 
L 373.581818 44.87075 
L 373.27715 44.87569 
L 372.972482 44.880687 
L 372.667813 44.885742 
L 372.363145 44.890855 
L 372.058477 44.896027 
L 371.753808 44.901258 
L 371.44914 44.90655 
L 371.144472 44.911903 
L 370.839803 44.917318 
L 370.535135 44.922795 
L 370.230467 44.928335 
L 369.925799 44.93394 
L 369.62113 44.939608 
L 369.316462 44.945343 
L 369.011794 44.951143 
L 368.707125 44.95701 
L 368.402457 44.962945 
L 368.097789 44.968949 
L 367.79312 44.975021 
L 367.488452 44.981164 
L 367.183784 44.987377 
L 366.879115 44.993662 
L 366.574447 45.00002 
L 366.269779 45.006451 
L 365.965111 45.012955 
L 365.660442 45.019535 
L 365.355774 45.026191 
L 365.051106 45.032923 
L 364.746437 45.039733 
L 364.441769 45.046621 
L 364.137101 45.053589 
L 363.832432 45.060637 
L 363.527764 45.067766 
L 363.223096 45.074977 
L 362.918428 45.082272 
L 362.613759 45.08965 
L 362.309091 45.097113 
L 362.004423 45.104663 
L 361.699754 45.112299 
L 361.395086 45.120023 
L 361.090418 45.127836 
L 360.785749 45.135738 
L 360.481081 45.143732 
L 360.176413 45.151818 
L 359.871744 45.159997 
L 359.567076 45.16827 
L 359.262408 45.176638 
L 358.95774 45.185103 
L 358.653071 45.193664 
L 358.348403 45.202325 
L 358.043735 45.211085 
L 357.739066 45.219945 
L 357.434398 45.228908 
L 357.12973 45.237973 
L 356.825061 45.247143 
L 356.520393 45.256418 
L 356.215725 45.2658 
L 355.911057 45.27529 
L 355.606388 45.284889 
L 355.30172 45.294598 
L 354.997052 45.304418 
L 354.692383 45.314352 
L 354.387715 45.324399 
L 354.083047 45.334563 
L 353.778378 45.344842 
L 353.47371 45.35524 
L 353.169042 45.365757 
L 352.864373 45.376395 
L 352.559705 45.387155 
L 352.255037 45.398039 
L 351.950369 45.409048 
L 351.6457 45.420182 
L 351.341032 45.431445 
L 351.036364 45.442837 
L 350.731695 45.45436 
L 350.427027 45.466015 
L 350.122359 45.477803 
L 349.81769 45.489727 
L 349.513022 45.501787 
L 349.208354 45.513986 
L 348.903686 45.526324 
L 348.599017 45.538805 
L 348.294349 45.551428 
L 347.989681 45.564195 
L 347.685012 45.577109 
L 347.380344 45.590171 
L 347.075676 45.603383 
L 346.771007 45.616746 
L 346.466339 45.630262 
L 346.161671 45.643933 
L 345.857002 45.65776 
L 345.552334 45.671746 
L 345.247666 45.685891 
L 344.942998 45.700199 
L 344.638329 45.71467 
L 344.333661 45.729307 
L 344.028993 45.744112 
L 343.724324 45.759085 
L 343.419656 45.77423 
L 343.114988 45.789548 
L 342.810319 45.805041 
L 342.505651 45.820712 
L 342.200983 45.836561 
L 341.896314 45.852591 
L 341.591646 45.868805 
L 341.286978 45.885204 
L 340.98231 45.90179 
L 340.677641 45.918565 
L 340.372973 45.935532 
L 340.068305 45.952693 
L 339.763636 45.97005 
L 339.458968 45.987604 
L 339.1543 46.005359 
L 338.849631 46.023317 
L 338.544963 46.041479 
L 338.240295 46.059848 
L 337.935627 46.078427 
L 337.630958 46.097218 
L 337.32629 46.116222 
L 337.021622 46.135443 
L 336.716953 46.154884 
L 336.412285 46.174545 
L 336.107617 46.194431 
L 335.802948 46.214543 
L 335.49828 46.234883 
L 335.193612 46.255456 
L 334.888943 46.276262 
L 334.584275 46.297305 
L 334.279607 46.318587 
L 333.974939 46.340111 
L 333.67027 46.36188 
L 333.365602 46.383897 
L 333.060934 46.406163 
L 332.756265 46.428683 
L 332.451597 46.451458 
L 332.146929 46.474491 
L 331.84226 46.497787 
L 331.537592 46.521346 
L 331.232924 46.545173 
L 330.928256 46.569271 
L 330.623587 46.593641 
L 330.318919 46.618288 
L 330.014251 46.643214 
L 329.709582 46.668423 
L 329.404914 46.693917 
L 329.100246 46.7197 
L 328.795577 46.745774 
L 328.490909 46.772144 
L 328.186241 46.798813 
L 327.881572 46.825783 
L 327.576904 46.853058 
L 327.272236 46.880642 
L 326.967568 46.908537 
L 326.662899 46.936748 
L 326.358231 46.965277 
L 326.053563 46.994129 
L 325.748894 47.023306 
L 325.444226 47.052812 
L 325.139558 47.082652 
L 324.834889 47.112828 
L 324.530221 47.143344 
L 324.225553 47.174205 
L 323.920885 47.205413 
L 323.616216 47.236972 
L 323.311548 47.268888 
L 323.00688 47.301162 
L 322.702211 47.3338 
L 322.397543 47.366804 
L 322.092875 47.40018 
L 321.788206 47.433932 
L 321.483538 47.468062 
L 321.17887 47.502576 
L 320.874201 47.537478 
L 320.569533 47.572771 
L 320.264865 47.60846 
L 319.960197 47.64455 
L 319.655528 47.681045 
L 319.35086 47.717948 
L 319.046192 47.755265 
L 318.741523 47.793001 
L 318.436855 47.831158 
L 318.132187 47.869743 
L 317.827518 47.908759 
L 317.52285 47.948211 
L 317.218182 47.988105 
L 316.913514 48.028444 
L 316.608845 48.069234 
L 316.304177 48.110479 
L 315.999509 48.152185 
L 315.69484 48.194355 
L 315.390172 48.236996 
L 315.085504 48.280112 
L 314.780835 48.323708 
L 314.476167 48.367789 
L 314.171499 48.412362 
L 313.86683 48.457429 
L 313.562162 48.502998 
L 313.257494 48.549074 
L 312.952826 48.595661 
L 312.648157 48.642765 
L 312.343489 48.690392 
L 312.038821 48.738547 
L 311.734152 48.787236 
L 311.429484 48.836464 
L 311.124816 48.886237 
L 310.820147 48.936562 
L 310.515479 48.987443 
L 310.210811 49.038886 
L 309.906143 49.090898 
L 309.601474 49.143484 
L 309.296806 49.196651 
L 308.992138 49.250404 
L 308.687469 49.304749 
L 308.382801 49.359694 
L 308.078133 49.415243 
L 307.773464 49.471404 
L 307.468796 49.528182 
L 307.164128 49.585585 
L 306.859459 49.643618 
L 306.554791 49.702288 
L 306.250123 49.761602 
L 305.945455 49.821566 
L 305.640786 49.882187 
L 305.336118 49.943472 
L 305.03145 50.005427 
L 304.726781 50.06806 
L 304.422113 50.131378 
L 304.117445 50.195387 
L 303.812776 50.260094 
L 303.508108 50.325507 
L 303.20344 50.391633 
L 302.898771 50.458479 
L 302.594103 50.526053 
L 302.289435 50.594361 
L 301.984767 50.663412 
L 301.680098 50.733212 
L 301.37543 50.803769 
L 301.070762 50.875092 
L 300.766093 50.947187 
L 300.461425 51.020062 
L 300.156757 51.093726 
L 299.852088 51.168186 
L 299.54742 51.243449 
L 299.242752 51.319525 
L 298.938084 51.396421 
L 298.633415 51.474145 
L 298.328747 51.552706 
L 298.024079 51.632111 
L 297.71941 51.71237 
L 297.414742 51.79349 
L 297.110074 51.87548 
L 296.805405 51.958349 
L 296.500737 52.042104 
L 296.196069 52.126756 
L 295.8914 52.212311 
L 295.586732 52.298781 
L 295.282064 52.386172 
L 294.977396 52.474495 
L 294.672727 52.563758 
L 294.368059 52.653969 
L 294.063391 52.74514 
L 293.758722 52.837277 
L 293.454054 52.930392 
L 293.149386 53.024493 
L 292.844717 53.119589 
L 292.540049 53.21569 
L 292.235381 53.312806 
L 291.930713 53.410946 
L 291.626044 53.51012 
L 291.321376 53.610337 
L 291.016708 53.711607 
L 290.712039 53.813941 
L 290.407371 53.917348 
L 290.102703 54.021838 
L 289.798034 54.127421 
L 289.493366 54.234108 
L 289.188698 54.341908 
L 288.884029 54.450831 
L 288.579361 54.560889 
L 288.274693 54.672091 
L 287.970025 54.784448 
L 287.665356 54.897971 
L 287.360688 55.012669 
L 287.05602 55.128554 
L 286.751351 55.245636 
L 286.446683 55.363926 
L 286.142015 55.483435 
L 285.837346 55.604174 
L 285.532678 55.726153 
L 285.22801 55.849384 
L 284.923342 55.973878 
L 284.618673 56.099646 
L 284.314005 56.226698 
L 284.009337 56.355047 
L 283.704668 56.484703 
L 283.4 56.615679 
L 283.095332 56.747984 
L 282.790663 56.881631 
L 282.485995 57.016631 
L 282.181327 57.152996 
L 281.876658 57.290738 
L 281.57199 57.429867 
L 281.267322 57.570396 
L 280.962654 57.712336 
L 280.657985 57.8557 
L 280.353317 58.000499 
L 280.048649 58.146745 
L 279.74398 58.29445 
L 279.439312 58.443626 
L 279.134644 58.594284 
L 278.829975 58.746438 
L 278.525307 58.900099 
L 278.220639 59.055279 
L 277.915971 59.211991 
L 277.611302 59.370246 
L 277.306634 59.530058 
L 277.001966 59.691437 
L 276.697297 59.854398 
L 276.392629 60.018951 
L 276.087961 60.185109 
L 275.783292 60.352886 
L 275.478624 60.522292 
L 275.173956 60.693341 
L 274.869287 60.866045 
L 274.564619 61.040417 
L 274.259951 61.216468 
L 273.955283 61.394213 
L 273.650614 61.573663 
L 273.345946 61.75483 
L 273.041278 61.937728 
L 272.736609 62.122369 
L 272.431941 62.308765 
L 272.127273 62.49693 
L 271.822604 62.686875 
L 271.517936 62.878614 
L 271.213268 63.072159 
L 270.9086 63.267522 
L 270.603931 63.464716 
L 270.299263 63.663754 
L 269.994595 63.864649 
L 269.689926 64.067412 
L 269.385258 64.272057 
L 269.08059 64.478596 
L 268.775921 64.687042 
L 268.471253 64.897406 
L 268.166585 65.109702 
L 267.861916 65.323941 
L 267.557248 65.540137 
L 267.25258 65.758302 
L 266.947912 65.978447 
L 266.643243 66.200586 
L 266.338575 66.42473 
L 266.033907 66.650892 
L 265.729238 66.879083 
L 265.42457 67.109317 
L 265.119902 67.341604 
L 264.815233 67.575958 
L 264.510565 67.812389 
L 264.205897 68.05091 
L 263.901229 68.291532 
L 263.59656 68.534268 
L 263.291892 68.779128 
L 262.987224 69.026125 
L 262.682555 69.275269 
L 262.377887 69.526573 
L 262.073219 69.780047 
L 261.76855 70.035703 
L 261.463882 70.293551 
L 261.159214 70.553603 
L 260.854545 70.81587 
L 260.549877 71.080362 
L 260.245209 71.347091 
L 259.940541 71.616065 
L 259.635872 71.887297 
L 259.331204 72.160796 
L 259.026536 72.436573 
L 258.721867 72.714637 
L 258.417199 72.994998 
L 258.112531 73.277666 
L 257.807862 73.562651 
L 257.503194 73.849962 
L 257.198526 74.139609 
L 256.893857 74.4316 
L 256.589189 74.725944 
L 256.284521 75.022651 
L 255.979853 75.321729 
L 255.675184 75.623186 
L 255.370516 75.92703 
L 255.065848 76.23327 
L 254.761179 76.541914 
L 254.456511 76.852968 
L 254.151843 77.166442 
L 253.847174 77.482341 
L 253.542506 77.800673 
L 253.237838 78.121445 
L 252.93317 78.444663 
L 252.628501 78.770334 
L 252.323833 79.098464 
L 252.019165 79.429058 
L 251.714496 79.762123 
L 251.409828 80.097664 
L 251.10516 80.435686 
L 250.800491 80.776195 
L 250.495823 81.119193 
L 250.191155 81.464687 
L 249.886486 81.81268 
L 249.581818 82.163176 
L 249.27715 82.516179 
L 248.972482 82.871692 
L 248.667813 83.229718 
L 248.363145 83.590259 
L 248.058477 83.953318 
L 247.753808 84.318898 
L 247.44914 84.686999 
L 247.144472 85.057624 
L 246.839803 85.430774 
L 246.535135 85.806449 
L 246.230467 86.18465 
L 245.925799 86.565378 
L 245.62113 86.948631 
L 245.316462 87.33441 
L 245.011794 87.722714 
L 244.707125 88.113542 
L 244.402457 88.506891 
L 244.097789 88.902761 
L 243.79312 89.301148 
L 243.488452 89.702051 
L 243.183784 90.105467 
L 242.879115 90.511391 
L 242.574447 90.919821 
L 242.269779 91.330752 
L 241.965111 91.744179 
L 241.660442 92.160098 
L 241.355774 92.578504 
L 241.051106 92.999391 
L 240.746437 93.422752 
L 240.441769 93.848582 
L 240.137101 94.276874 
L 239.832432 94.707619 
L 239.527764 95.140811 
L 239.223096 95.576441 
L 238.918428 96.014501 
L 238.613759 96.454982 
L 238.309091 96.897875 
L 238.004423 97.343169 
L 237.699754 97.790855 
L 237.395086 98.240922 
L 237.090418 98.693358 
L 236.785749 99.148153 
L 236.481081 99.605294 
L 236.176413 100.064769 
L 235.871744 100.526564 
L 235.567076 100.990668 
L 235.262408 101.457066 
L 234.95774 101.925744 
L 234.653071 102.396687 
L 234.348403 102.869881 
L 234.043735 103.34531 
L 233.739066 103.822957 
L 233.434398 104.302807 
L 233.12973 104.784843 
L 232.825061 105.269047 
L 232.520393 105.755402 
L 232.215725 106.24389 
L 231.911057 106.734492 
L 231.606388 107.227189 
L 231.30172 107.721961 
L 230.997052 108.218789 
L 230.692383 108.717652 
L 230.387715 109.21853 
L 230.083047 109.721401 
L 229.778378 110.226243 
L 229.47371 110.733035 
L 229.169042 111.241754 
L 228.864373 111.752377 
L 228.559705 112.26488 
L 228.255037 112.77924 
L 227.950369 113.295433 
L 227.6457 113.813434 
L 227.341032 114.333217 
L 227.036364 114.854758 
L 226.731695 115.37803 
L 226.427027 115.903007 
L 226.122359 116.429663 
L 225.81769 116.95797 
L 225.513022 117.487901 
L 225.208354 118.019428 
L 224.903686 118.552524 
L 224.599017 119.087158 
L 224.294349 119.623303 
L 223.989681 120.160928 
L 223.685012 120.700005 
L 223.380344 121.240503 
L 223.075676 121.782392 
L 222.771007 122.32564 
L 222.466339 122.870218 
L 222.161671 123.416093 
L 221.857002 123.963234 
L 221.552334 124.511609 
L 221.247666 125.061185 
L 220.942998 125.61193 
L 220.638329 126.16381 
L 220.333661 126.716793 
L 220.028993 127.270845 
L 219.724324 127.825933 
L 219.419656 128.382021 
L 219.114988 128.939076 
L 218.810319 129.497064 
L 218.505651 130.055949 
L 218.200983 130.615696 
L 217.896314 131.17627 
L 217.591646 131.737637 
L 217.286978 132.299759 
L 216.98231 132.862601 
L 216.677641 133.426128 
L 216.372973 133.990302 
L 216.068305 134.555088 
L 215.763636 135.120448 
L 215.458968 135.686347 
L 215.1543 136.252747 
L 214.849631 136.819611 
L 214.544963 137.386903 
L 214.240295 137.954584 
L 213.935627 138.522618 
L 213.630958 139.090968 
L 213.32629 139.659594 
L 213.021622 140.228461 
L 212.716953 140.797531 
L 212.412285 141.366765 
L 212.107617 141.936126 
L 211.802948 142.505577 
L 211.49828 143.075078 
L 211.193612 143.644594 
L 210.888943 144.214085 
L 210.584275 144.783514 
L 210.279607 145.352844 
L 209.974939 145.922035 
L 209.67027 146.491052 
L 209.365602 147.059855 
L 209.060934 147.628408 
L 208.756265 148.196673 
L 208.451597 148.764612 
L 208.146929 149.332187 
L 207.84226 149.899363 
L 207.537592 150.466101 
L 207.232924 151.032364 
L 206.928256 151.598116 
L 206.623587 152.163319 
L 206.318919 152.727937 
L 206.014251 153.291933 
L 205.709582 153.855271 
L 205.404914 154.417915 
L 205.100246 154.979829 
L 204.795577 155.540977 
L 204.490909 156.101323 
L 204.186241 156.660832 
L 203.881572 157.219469 
L 203.576904 157.777199 
L 203.272236 158.333987 
L 202.967568 158.889798 
L 202.662899 159.444598 
L 202.358231 159.998354 
L 202.053563 160.551031 
L 201.748894 161.102597 
L 201.444226 161.653017 
L 201.139558 162.20226 
L 200.834889 162.750292 
L 200.530221 163.297081 
L 200.225553 163.842596 
L 199.920885 164.386804 
L 199.616216 164.929674 
L 199.311548 165.471176 
L 199.00688 166.011279 
L 198.702211 166.549952 
L 198.397543 167.087165 
L 198.092875 167.622889 
L 197.788206 168.157095 
L 197.483538 168.689753 
L 197.17887 169.220836 
L 196.874201 169.750315 
L 196.569533 170.278162 
L 196.264865 170.804349 
L 195.960197 171.328851 
L 195.655528 171.851641 
L 195.35086 172.372691 
L 195.046192 172.891977 
L 194.741523 173.409474 
L 194.436855 173.925155 
L 194.132187 174.438997 
L 193.827518 174.950975 
L 193.52285 175.461067 
L 193.218182 175.969248 
L 192.913514 176.475495 
L 192.608845 176.979787 
L 192.304177 177.482101 
L 191.999509 177.982417 
L 191.69484 178.480711 
L 191.390172 178.976965 
L 191.085504 179.471157 
L 190.780835 179.963269 
L 190.476167 180.45328 
L 190.171499 180.941171 
L 189.86683 181.426925 
L 189.562162 181.910523 
L 189.257494 182.391948 
L 188.952826 182.871182 
L 188.648157 183.348209 
L 188.343489 183.823013 
L 188.038821 184.295577 
L 187.734152 184.765887 
L 187.429484 185.233927 
L 187.124816 185.699683 
L 186.820147 186.163141 
L 186.515479 186.624288 
L 186.210811 187.083109 
L 185.906143 187.539594 
L 185.601474 187.993728 
L 185.296806 188.445501 
L 184.992138 188.894902 
L 184.687469 189.341918 
L 184.382801 189.78654 
L 184.078133 190.228757 
L 183.773464 190.668561 
L 183.468796 191.10594 
L 183.164128 191.540888 
L 182.859459 191.973395 
L 182.554791 192.403453 
L 182.250123 192.831055 
L 181.945455 193.256193 
L 181.640786 193.678861 
L 181.336118 194.099053 
L 181.03145 194.516762 
L 180.726781 194.931984 
L 180.422113 195.344712 
L 180.117445 195.754942 
L 179.812776 196.162669 
L 179.508108 196.567891 
L 179.20344 196.970602 
L 178.898771 197.3708 
L 178.594103 197.768482 
L 178.289435 198.163645 
L 177.984767 198.556288 
L 177.680098 198.946408 
L 177.37543 199.334004 
L 177.070762 199.719075 
L 176.766093 200.10162 
L 176.461425 200.481639 
L 176.156757 200.859132 
L 175.852088 201.234099 
L 175.54742 201.606541 
L 175.242752 201.976458 
L 174.938084 202.343853 
L 174.633415 202.708726 
L 174.328747 203.071079 
L 174.024079 203.430914 
L 173.71941 203.788235 
L 173.414742 204.143044 
L 173.110074 204.495344 
L 172.805405 204.845138 
L 172.500737 205.19243 
L 172.196069 205.537224 
L 171.8914 205.879524 
L 171.586732 206.219334 
L 171.282064 206.55666 
L 170.977396 206.891506 
L 170.672727 207.223878 
L 170.368059 207.553781 
L 170.063391 207.881221 
L 169.758722 208.206204 
L 169.454054 208.528735 
L 169.149386 208.848823 
L 168.844717 209.166472 
L 168.540049 209.48169 
L 168.235381 209.794485 
L 167.930713 210.104862 
L 167.626044 210.412831 
L 167.321376 210.718399 
L 167.016708 211.021573 
L 166.712039 211.322362 
L 166.407371 211.620774 
L 166.102703 211.916818 
L 165.798034 212.210502 
L 165.493366 212.501834 
L 165.188698 212.790825 
L 164.884029 213.077483 
L 164.579361 213.361818 
L 164.274693 213.643838 
L 163.970025 213.923555 
L 163.665356 214.200976 
L 163.360688 214.476113 
L 163.05602 214.748975 
L 162.751351 215.019573 
L 162.446683 215.287917 
L 162.142015 215.554017 
L 161.837346 215.817885 
L 161.532678 216.079529 
L 161.22801 216.338963 
L 160.923342 216.596195 
L 160.618673 216.851238 
L 160.314005 217.104103 
L 160.009337 217.3548 
L 159.704668 217.603341 
L 159.4 217.849737 
L 159.095332 218.094001 
L 158.790663 218.336143 
L 158.485995 218.576175 
L 158.181327 218.814109 
L 157.876658 219.049956 
L 157.57199 219.283729 
L 157.267322 219.515439 
L 156.962654 219.745099 
L 156.657985 219.972721 
L 156.353317 220.198316 
L 156.048649 220.421896 
L 155.74398 220.643475 
L 155.439312 220.863064 
L 155.134644 221.080675 
L 154.829975 221.296321 
L 154.525307 221.510015 
L 154.220639 221.721768 
L 153.915971 221.931593 
L 153.611302 222.139502 
L 153.306634 222.345509 
L 153.001966 222.549625 
L 152.697297 222.751863 
L 152.392629 222.952236 
L 152.087961 223.150756 
L 151.783292 223.347436 
L 151.478624 223.542288 
L 151.173956 223.735325 
L 150.869287 223.926559 
L 150.564619 224.116004 
L 150.259951 224.303672 
L 149.955283 224.489575 
L 149.650614 224.673726 
L 149.345946 224.856137 
L 149.041278 225.036822 
L 148.736609 225.215792 
L 148.431941 225.393061 
L 148.127273 225.56864 
L 147.822604 225.742543 
L 147.517936 225.914782 
L 147.213268 226.085369 
L 146.9086 226.254317 
L 146.603931 226.421639 
L 146.299263 226.587346 
L 145.994595 226.751451 
L 145.689926 226.913967 
L 145.385258 227.074906 
L 145.08059 227.23428 
L 144.775921 227.392101 
L 144.471253 227.548382 
L 144.166585 227.703135 
L 143.861916 227.856372 
L 143.557248 228.008106 
L 143.25258 228.158347 
L 142.947912 228.30711 
L 142.643243 228.454404 
L 142.338575 228.600243 
L 142.033907 228.744639 
L 141.729238 228.887602 
L 141.42457 229.029146 
L 141.119902 229.169281 
L 140.815233 229.30802 
L 140.510565 229.445374 
L 140.205897 229.581355 
L 139.901229 229.715975 
L 139.59656 229.849245 
L 139.291892 229.981176 
L 138.987224 230.11178 
L 138.682555 230.241069 
L 138.377887 230.369053 
L 138.073219 230.495744 
L 137.76855 230.621154 
L 137.463882 230.745292 
L 137.159214 230.868171 
L 136.854545 230.989802 
L 136.549877 231.110195 
L 136.245209 231.229361 
L 135.940541 231.347311 
L 135.635872 231.464057 
L 135.331204 231.579608 
L 135.026536 231.693976 
L 134.721867 231.80717 
L 134.417199 231.919202 
L 134.112531 232.030082 
L 133.807862 232.139821 
L 133.503194 232.248429 
L 133.198526 232.355915 
L 132.893857 232.462292 
L 132.589189 232.567567 
L 132.284521 232.671753 
L 131.979853 232.774858 
L 131.675184 232.876892 
L 131.370516 232.977866 
L 131.065848 233.07779 
L 130.761179 233.176673 
L 130.456511 233.274525 
L 130.151843 233.371355 
L 129.847174 233.467174 
L 129.542506 233.56199 
L 129.237838 233.655813 
L 128.93317 233.748653 
L 128.628501 233.840519 
L 128.323833 233.931419 
L 128.019165 234.021364 
L 127.714496 234.110362 
L 127.409828 234.198423 
L 127.10516 234.285555 
L 126.800491 234.371767 
L 126.495823 234.457069 
L 126.191155 234.541468 
L 125.886486 234.624974 
L 125.581818 234.707596 
L 125.27715 234.789341 
L 124.972482 234.870218 
L 124.667813 234.950237 
L 124.363145 235.029405 
L 124.058477 235.10773 
L 123.753808 235.185221 
L 123.44914 235.261886 
L 123.144472 235.337734 
L 122.839803 235.412771 
L 122.535135 235.487007 
L 122.230467 235.560449 
L 121.925799 235.633105 
L 121.62113 235.704982 
L 121.316462 235.776089 
L 121.011794 235.846434 
L 120.707125 235.916023 
L 120.402457 235.984865 
L 120.097789 236.052966 
L 119.79312 236.120335 
L 119.488452 236.186978 
L 119.183784 236.252904 
L 118.879115 236.318118 
L 118.574447 236.382629 
L 118.269779 236.446444 
L 117.965111 236.509569 
L 117.660442 236.572011 
L 117.355774 236.633778 
L 117.051106 236.694876 
L 116.746437 236.755312 
L 116.441769 236.815093 
L 116.137101 236.874226 
L 115.832432 236.932717 
L 115.527764 236.990572 
L 115.223096 237.047799 
L 114.918428 237.104404 
L 114.613759 237.160392 
L 114.309091 237.215772 
L 114.004423 237.270548 
L 113.699754 237.324726 
L 113.395086 237.378314 
L 113.090418 237.431318 
L 112.785749 237.483742 
L 112.481081 237.535594 
L 112.176413 237.586879 
L 111.871744 237.637603 
L 111.567076 237.687773 
L 111.262408 237.737393 
L 110.95774 237.786469 
L 110.653071 237.835008 
L 110.348403 237.883014 
L 110.043735 237.930494 
L 109.739066 237.977453 
L 109.434398 238.023896 
L 109.12973 238.069829 
L 108.825061 238.115256 
L 108.520393 238.160185 
L 108.215725 238.204619 
L 107.911057 238.248564 
L 107.606388 238.292025 
L 107.30172 238.335007 
L 106.997052 238.377515 
L 106.692383 238.419555 
L 106.387715 238.461131 
L 106.083047 238.502248 
L 105.778378 238.542911 
L 105.47371 238.583125 
L 105.169042 238.622894 
L 104.864373 238.662224 
L 104.559705 238.701118 
L 104.255037 238.739583 
L 103.950369 238.777622 
L 103.6457 238.815239 
L 103.341032 238.85244 
L 103.036364 238.889228 
L 102.731695 238.925609 
L 102.427027 238.961586 
L 102.122359 238.997164 
L 101.81769 239.032347 
L 101.513022 239.067139 
L 101.208354 239.101545 
L 100.903686 239.135569 
L 100.599017 239.169215 
L 100.294349 239.202486 
L 99.989681 239.235388 
L 99.685012 239.267923 
L 99.380344 239.300096 
L 99.075676 239.331912 
L 98.771007 239.363372 
L 98.466339 239.394483 
L 98.161671 239.425246 
L 97.857002 239.455667 
L 97.552334 239.485748 
L 97.247666 239.515494 
L 96.942998 239.544908 
L 96.638329 239.573993 
L 96.333661 239.602754 
L 96.028993 239.631194 
L 95.724324 239.659315 
L 95.419656 239.687123 
L 95.114988 239.71462 
L 94.810319 239.741809 
L 94.505651 239.768694 
L 94.200983 239.795279 
L 93.896314 239.821566 
L 93.591646 239.847558 
L 93.286978 239.87326 
L 92.98231 239.898674 
L 92.677641 239.923803 
L 92.372973 239.94865 
L 92.068305 239.973219 
L 91.763636 239.997513 
L 91.458968 240.021534 
L 91.1543 240.045286 
L 90.849631 240.068771 
L 90.544963 240.091993 
L 90.240295 240.114954 
L 89.935627 240.137657 
L 89.630958 240.160105 
L 89.32629 240.182301 
L 89.021622 240.204248 
L 88.716953 240.225948 
L 88.412285 240.247404 
L 88.107617 240.268619 
L 87.802948 240.289595 
L 87.49828 240.310336 
L 87.193612 240.330843 
L 86.888943 240.351119 
L 86.584275 240.371167 
L 86.279607 240.39099 
L 85.974939 240.410589 
L 85.67027 240.429967 
L 85.365602 240.449128 
L 85.060934 240.468072 
L 84.756265 240.486803 
L 84.451597 240.505323 
L 84.146929 240.523634 
L 83.84226 240.541739 
L 83.537592 240.559639 
L 83.232924 240.577337 
L 82.928256 240.594836 
L 82.623587 240.612138 
L 82.318919 240.629244 
L 82.014251 240.646157 
L 81.709582 240.662879 
L 81.404914 240.679413 
L 81.100246 240.695759 
L 80.795577 240.711921 
L 80.490909 240.727901 
L 80.186241 240.7437 
L 79.881572 240.75932 
L 79.576904 240.774764 
L 79.272236 240.790033 
L 78.967568 240.80513 
L 78.662899 240.820056 
L 78.358231 240.834813 
L 78.053563 240.849404 
L 77.748894 240.863829 
L 77.444226 240.878091 
L 77.139558 240.892191 
L 76.834889 240.906132 
L 76.530221 240.919916 
L 76.225553 240.933543 
L 75.920885 240.947016 
L 75.616216 240.960336 
L 75.311548 240.973506 
L 75.00688 240.986526 
L 74.702211 240.999399 
L 74.397543 241.012126 
L 74.092875 241.024709 
L 73.788206 241.037149 
L 73.483538 241.049448 
L 73.17887 241.061608 
L 72.874201 241.07363 
L 72.569533 241.085516 
L 72.264865 241.097267 
L 71.960197 241.108884 
L 71.655528 241.12037 
L 71.35086 241.131726 
L 71.046192 241.142952 
L 70.741523 241.154052 
L 70.436855 241.165025 
L 70.132187 241.175874 
L 69.827518 241.1866 
L 69.52285 241.197204 
L 69.218182 241.207687 
z
" clip-path="url(#pde2f7e6a41)" style="fill: #1f77b4; fill-opacity: 0.25"/>
   </g>
   <g id="matplotlib.axis_1">
    <g id="xtick_1">
     <g id="line2d_1">
      <defs>
       <path id="m9eaaac0804" d="M 0 0 
L 0 3.5 
" style="stroke: #000000; stroke-width: 0.8"/>
      </defs>
      <g>
       <use xlink:href="#m9eaaac0804" x="69.218182" y="252" style="stroke: #000000; stroke-width: 0.8"/>
      </g>
     </g>
     <g id="text_1">
      <!-- $\mathdefault{10^{-3}}$ -->
      <g transform="translate(57.468182 266.598437)scale(0.1 -0.1)">
       <defs>
        <path id="DejaVuSans-31" d="M 794 531 
L 1825 531 
L 1825 4091 
L 703 3866 
L 703 4441 
L 1819 4666 
L 2450 4666 
L 2450 531 
L 3481 531 
L 3481 0 
L 794 0 
L 794 531 
z
" transform="scale(0.015625)"/>
        <path id="DejaVuSans-30" d="M 2034 4250 
Q 1547 4250 1301 3770 
Q 1056 3291 1056 2328 
Q 1056 1369 1301 889 
Q 1547 409 2034 409 
Q 2525 409 2770 889 
Q 3016 1369 3016 2328 
Q 3016 3291 2770 3770 
Q 2525 4250 2034 4250 
z
M 2034 4750 
Q 2819 4750 3233 4129 
Q 3647 3509 3647 2328 
Q 3647 1150 3233 529 
Q 2819 -91 2034 -91 
Q 1250 -91 836 529 
Q 422 1150 422 2328 
Q 422 3509 836 4129 
Q 1250 4750 2034 4750 
z
" transform="scale(0.015625)"/>
        <path id="DejaVuSans-2212" d="M 678 2272 
L 4684 2272 
L 4684 1741 
L 678 1741 
L 678 2272 
z
" transform="scale(0.015625)"/>
        <path id="DejaVuSans-33" d="M 2597 2516 
Q 3050 2419 3304 2112 
Q 3559 1806 3559 1356 
Q 3559 666 3084 287 
Q 2609 -91 1734 -91 
Q 1441 -91 1130 -33 
Q 819 25 488 141 
L 488 750 
Q 750 597 1062 519 
Q 1375 441 1716 441 
Q 2309 441 2620 675 
Q 2931 909 2931 1356 
Q 2931 1769 2642 2001 
Q 2353 2234 1838 2234 
L 1294 2234 
L 1294 2753 
L 1863 2753 
Q 2328 2753 2575 2939 
Q 2822 3125 2822 3475 
Q 2822 3834 2567 4026 
Q 2313 4219 1838 4219 
Q 1578 4219 1281 4162 
Q 984 4106 628 3988 
L 628 4550 
Q 988 4650 1302 4700 
Q 1616 4750 1894 4750 
Q 2613 4750 3031 4423 
Q 3450 4097 3450 3541 
Q 3450 3153 3228 2886 
Q 3006 2619 2597 2516 
z
" transform="scale(0.015625)"/>
       </defs>
       <use xlink:href="#DejaVuSans-31" transform="translate(0 0.765625)"/>
       <use xlink:href="#DejaVuSans-30" transform="translate(63.623047 0.765625)"/>
       <use xlink:href="#DejaVuSans-2212" transform="translate(128.203125 39.046875)scale(0.7)"/>
       <use xlink:href="#DejaVuSans-33" transform="translate(186.855469 39.046875)scale(0.7)"/>
      </g>
     </g>
    </g>
    <g id="xtick_2">
     <g id="line2d_2">
      <g>
       <use xlink:href="#m9eaaac0804" x="130.090909" y="252" style="stroke: #000000; stroke-width: 0.8"/>
      </g>
     </g>
     <g id="text_2">
      <!-- $\mathdefault{10^{-2}}$ -->
      <g transform="translate(118.340909 266.598437)scale(0.1 -0.1)">
       <defs>
        <path id="DejaVuSans-32" d="M 1228 531 
L 3431 531 
L 3431 0 
L 469 0 
L 469 531 
Q 828 903 1448 1529 
Q 2069 2156 2228 2338 
Q 2531 2678 2651 2914 
Q 2772 3150 2772 3378 
Q 2772 3750 2511 3984 
Q 2250 4219 1831 4219 
Q 1534 4219 1204 4116 
Q 875 4013 500 3803 
L 500 4441 
Q 881 4594 1212 4672 
Q 1544 4750 1819 4750 
Q 2544 4750 2975 4387 
Q 3406 4025 3406 3419 
Q 3406 3131 3298 2873 
Q 3191 2616 2906 2266 
Q 2828 2175 2409 1742 
Q 1991 1309 1228 531 
z
" transform="scale(0.015625)"/>
       </defs>
       <use xlink:href="#DejaVuSans-31" transform="translate(0 0.765625)"/>
       <use xlink:href="#DejaVuSans-30" transform="translate(63.623047 0.765625)"/>
       <use xlink:href="#DejaVuSans-2212" transform="translate(128.203125 39.046875)scale(0.7)"/>
       <use xlink:href="#DejaVuSans-32" transform="translate(186.855469 39.046875)scale(0.7)"/>
      </g>
     </g>
    </g>
    <g id="xtick_3">
     <g id="line2d_3">
      <g>
       <use xlink:href="#m9eaaac0804" x="190.963636" y="252" style="stroke: #000000; stroke-width: 0.8"/>
      </g>
     </g>
     <g id="text_3">
      <!-- $\mathdefault{10^{-1}}$ -->
      <g transform="translate(179.213636 266.598437)scale(0.1 -0.1)">
       <use xlink:href="#DejaVuSans-31" transform="translate(0 0.684375)"/>
       <use xlink:href="#DejaVuSans-30" transform="translate(63.623047 0.684375)"/>
       <use xlink:href="#DejaVuSans-2212" transform="translate(128.203125 38.965625)scale(0.7)"/>
       <use xlink:href="#DejaVuSans-31" transform="translate(186.855469 38.965625)scale(0.7)"/>
      </g>
     </g>
    </g>
    <g id="xtick_4">
     <g id="line2d_4">
      <g>
       <use xlink:href="#m9eaaac0804" x="251.836364" y="252" style="stroke: #000000; stroke-width: 0.8"/>
      </g>
     </g>
     <g id="text_4">
      <!-- $\mathdefault{10^{0}}$ -->
      <g transform="translate(243.036364 266.598437)scale(0.1 -0.1)">
       <use xlink:href="#DejaVuSans-31" transform="translate(0 0.765625)"/>
       <use xlink:href="#DejaVuSans-30" transform="translate(63.623047 0.765625)"/>
       <use xlink:href="#DejaVuSans-30" transform="translate(128.203125 39.046875)scale(0.7)"/>
      </g>
     </g>
    </g>
    <g id="xtick_5">
     <g id="line2d_5">
      <g>
       <use xlink:href="#m9eaaac0804" x="312.709091" y="252" style="stroke: #000000; stroke-width: 0.8"/>
      </g>
     </g>
     <g id="text_5">
      <!-- $\mathdefault{10^{1}}$ -->
      <g transform="translate(303.909091 266.598437)scale(0.1 -0.1)">
       <use xlink:href="#DejaVuSans-31" transform="translate(0 0.684375)"/>
       <use xlink:href="#DejaVuSans-30" transform="translate(63.623047 0.684375)"/>
       <use xlink:href="#DejaVuSans-31" transform="translate(128.203125 38.965625)scale(0.7)"/>
      </g>
     </g>
    </g>
    <g id="xtick_6">
     <g id="line2d_6">
      <g>
       <use xlink:href="#m9eaaac0804" x="373.581818" y="252" style="stroke: #000000; stroke-width: 0.8"/>
      </g>
     </g>
     <g id="text_6">
      <!-- $\mathdefault{10^{2}}$ -->
      <g transform="translate(364.781818 266.598437)scale(0.1 -0.1)">
       <use xlink:href="#DejaVuSans-31" transform="translate(0 0.765625)"/>
       <use xlink:href="#DejaVuSans-30" transform="translate(63.623047 0.765625)"/>
       <use xlink:href="#DejaVuSans-32" transform="translate(128.203125 39.046875)scale(0.7)"/>
      </g>
     </g>
    </g>
    <g id="xtick_7">
     <g id="line2d_7">
      <defs>
       <path id="me7bfd1c070" d="M 0 0 
L 0 2 
" style="stroke: #000000; stroke-width: 0.6"/>
      </defs>
      <g>
       <use xlink:href="#me7bfd1c070" x="55.713643" y="252" style="stroke: #000000; stroke-width: 0.6"/>
      </g>
     </g>
    </g>
    <g id="xtick_8">
     <g id="line2d_8">
      <g>
       <use xlink:href="#me7bfd1c070" x="59.788877" y="252" style="stroke: #000000; stroke-width: 0.6"/>
      </g>
     </g>
    </g>
    <g id="xtick_9">
     <g id="line2d_9">
      <g>
       <use xlink:href="#me7bfd1c070" x="63.319005" y="252" style="stroke: #000000; stroke-width: 0.6"/>
      </g>
     </g>
    </g>
    <g id="xtick_10">
     <g id="line2d_10">
      <g>
       <use xlink:href="#me7bfd1c070" x="66.432799" y="252" style="stroke: #000000; stroke-width: 0.6"/>
      </g>
     </g>
    </g>
    <g id="xtick_11">
     <g id="line2d_11">
      <g>
       <use xlink:href="#me7bfd1c070" x="87.542699" y="252" style="stroke: #000000; stroke-width: 0.6"/>
      </g>
     </g>
    </g>
    <g id="xtick_12">
     <g id="line2d_12">
      <g>
       <use xlink:href="#me7bfd1c070" x="98.261854" y="252" style="stroke: #000000; stroke-width: 0.6"/>
      </g>
     </g>
    </g>
    <g id="xtick_13">
     <g id="line2d_13">
      <g>
       <use xlink:href="#me7bfd1c070" x="105.867215" y="252" style="stroke: #000000; stroke-width: 0.6"/>
      </g>
     </g>
    </g>
    <g id="xtick_14">
     <g id="line2d_14">
      <g>
       <use xlink:href="#me7bfd1c070" x="111.766392" y="252" style="stroke: #000000; stroke-width: 0.6"/>
      </g>
     </g>
    </g>
    <g id="xtick_15">
     <g id="line2d_15">
      <g>
       <use xlink:href="#me7bfd1c070" x="116.586371" y="252" style="stroke: #000000; stroke-width: 0.6"/>
      </g>
     </g>
    </g>
    <g id="xtick_16">
     <g id="line2d_16">
      <g>
       <use xlink:href="#me7bfd1c070" x="120.661604" y="252" style="stroke: #000000; stroke-width: 0.6"/>
      </g>
     </g>
    </g>
    <g id="xtick_17">
     <g id="line2d_17">
      <g>
       <use xlink:href="#me7bfd1c070" x="124.191732" y="252" style="stroke: #000000; stroke-width: 0.6"/>
      </g>
     </g>
    </g>
    <g id="xtick_18">
     <g id="line2d_18">
      <g>
       <use xlink:href="#me7bfd1c070" x="127.305526" y="252" style="stroke: #000000; stroke-width: 0.6"/>
      </g>
     </g>
    </g>
    <g id="xtick_19">
     <g id="line2d_19">
      <g>
       <use xlink:href="#me7bfd1c070" x="148.415426" y="252" style="stroke: #000000; stroke-width: 0.6"/>
      </g>
     </g>
    </g>
    <g id="xtick_20">
     <g id="line2d_20">
      <g>
       <use xlink:href="#me7bfd1c070" x="159.134581" y="252" style="stroke: #000000; stroke-width: 0.6"/>
      </g>
     </g>
    </g>
    <g id="xtick_21">
     <g id="line2d_21">
      <g>
       <use xlink:href="#me7bfd1c070" x="166.739943" y="252" style="stroke: #000000; stroke-width: 0.6"/>
      </g>
     </g>
    </g>
    <g id="xtick_22">
     <g id="line2d_22">
      <g>
       <use xlink:href="#me7bfd1c070" x="172.63912" y="252" style="stroke: #000000; stroke-width: 0.6"/>
      </g>
     </g>
    </g>
    <g id="xtick_23">
     <g id="line2d_23">
      <g>
       <use xlink:href="#me7bfd1c070" x="177.459098" y="252" style="stroke: #000000; stroke-width: 0.6"/>
      </g>
     </g>
    </g>
    <g id="xtick_24">
     <g id="line2d_24">
      <g>
       <use xlink:href="#me7bfd1c070" x="181.534332" y="252" style="stroke: #000000; stroke-width: 0.6"/>
      </g>
     </g>
    </g>
    <g id="xtick_25">
     <g id="line2d_25">
      <g>
       <use xlink:href="#me7bfd1c070" x="185.06446" y="252" style="stroke: #000000; stroke-width: 0.6"/>
      </g>
     </g>
    </g>
    <g id="xtick_26">
     <g id="line2d_26">
      <g>
       <use xlink:href="#me7bfd1c070" x="188.178253" y="252" style="stroke: #000000; stroke-width: 0.6"/>
      </g>
     </g>
    </g>
    <g id="xtick_27">
     <g id="line2d_27">
      <g>
       <use xlink:href="#me7bfd1c070" x="209.288153" y="252" style="stroke: #000000; stroke-width: 0.6"/>
      </g>
     </g>
    </g>
    <g id="xtick_28">
     <g id="line2d_28">
      <g>
       <use xlink:href="#me7bfd1c070" x="220.007308" y="252" style="stroke: #000000; stroke-width: 0.6"/>
      </g>
     </g>
    </g>
    <g id="xtick_29">
     <g id="line2d_29">
      <g>
       <use xlink:href="#me7bfd1c070" x="227.61267" y="252" style="stroke: #000000; stroke-width: 0.6"/>
      </g>
     </g>
    </g>
    <g id="xtick_30">
     <g id="line2d_30">
      <g>
       <use xlink:href="#me7bfd1c070" x="233.511847" y="252" style="stroke: #000000; stroke-width: 0.6"/>
      </g>
     </g>
    </g>
    <g id="xtick_31">
     <g id="line2d_31">
      <g>
       <use xlink:href="#me7bfd1c070" x="238.331825" y="252" style="stroke: #000000; stroke-width: 0.6"/>
      </g>
     </g>
    </g>
    <g id="xtick_32">
     <g id="line2d_32">
      <g>
       <use xlink:href="#me7bfd1c070" x="242.407059" y="252" style="stroke: #000000; stroke-width: 0.6"/>
      </g>
     </g>
    </g>
    <g id="xtick_33">
     <g id="line2d_33">
      <g>
       <use xlink:href="#me7bfd1c070" x="245.937187" y="252" style="stroke: #000000; stroke-width: 0.6"/>
      </g>
     </g>
    </g>
    <g id="xtick_34">
     <g id="line2d_34">
      <g>
       <use xlink:href="#me7bfd1c070" x="249.05098" y="252" style="stroke: #000000; stroke-width: 0.6"/>
      </g>
     </g>
    </g>
    <g id="xtick_35">
     <g id="line2d_35">
      <g>
       <use xlink:href="#me7bfd1c070" x="270.16088" y="252" style="stroke: #000000; stroke-width: 0.6"/>
      </g>
     </g>
    </g>
    <g id="xtick_36">
     <g id="line2d_36">
      <g>
       <use xlink:href="#me7bfd1c070" x="280.880036" y="252" style="stroke: #000000; stroke-width: 0.6"/>
      </g>
     </g>
    </g>
    <g id="xtick_37">
     <g id="line2d_37">
      <g>
       <use xlink:href="#me7bfd1c070" x="288.485397" y="252" style="stroke: #000000; stroke-width: 0.6"/>
      </g>
     </g>
    </g>
    <g id="xtick_38">
     <g id="line2d_38">
      <g>
       <use xlink:href="#me7bfd1c070" x="294.384574" y="252" style="stroke: #000000; stroke-width: 0.6"/>
      </g>
     </g>
    </g>
    <g id="xtick_39">
     <g id="line2d_39">
      <g>
       <use xlink:href="#me7bfd1c070" x="299.204552" y="252" style="stroke: #000000; stroke-width: 0.6"/>
      </g>
     </g>
    </g>
    <g id="xtick_40">
     <g id="line2d_40">
      <g>
       <use xlink:href="#me7bfd1c070" x="303.279786" y="252" style="stroke: #000000; stroke-width: 0.6"/>
      </g>
     </g>
    </g>
    <g id="xtick_41">
     <g id="line2d_41">
      <g>
       <use xlink:href="#me7bfd1c070" x="306.809914" y="252" style="stroke: #000000; stroke-width: 0.6"/>
      </g>
     </g>
    </g>
    <g id="xtick_42">
     <g id="line2d_42">
      <g>
       <use xlink:href="#me7bfd1c070" x="309.923708" y="252" style="stroke: #000000; stroke-width: 0.6"/>
      </g>
     </g>
    </g>
    <g id="xtick_43">
     <g id="line2d_43">
      <g>
       <use xlink:href="#me7bfd1c070" x="331.033608" y="252" style="stroke: #000000; stroke-width: 0.6"/>
      </g>
     </g>
    </g>
    <g id="xtick_44">
     <g id="line2d_44">
      <g>
       <use xlink:href="#me7bfd1c070" x="341.752763" y="252" style="stroke: #000000; stroke-width: 0.6"/>
      </g>
     </g>
    </g>
    <g id="xtick_45">
     <g id="line2d_45">
      <g>
       <use xlink:href="#me7bfd1c070" x="349.358125" y="252" style="stroke: #000000; stroke-width: 0.6"/>
      </g>
     </g>
    </g>
    <g id="xtick_46">
     <g id="line2d_46">
      <g>
       <use xlink:href="#me7bfd1c070" x="355.257301" y="252" style="stroke: #000000; stroke-width: 0.6"/>
      </g>
     </g>
    </g>
    <g id="xtick_47">
     <g id="line2d_47">
      <g>
       <use xlink:href="#me7bfd1c070" x="360.07728" y="252" style="stroke: #000000; stroke-width: 0.6"/>
      </g>
     </g>
    </g>
    <g id="xtick_48">
     <g id="line2d_48">
      <g>
       <use xlink:href="#me7bfd1c070" x="364.152513" y="252" style="stroke: #000000; stroke-width: 0.6"/>
      </g>
     </g>
    </g>
    <g id="xtick_49">
     <g id="line2d_49">
      <g>
       <use xlink:href="#me7bfd1c070" x="367.682641" y="252" style="stroke: #000000; stroke-width: 0.6"/>
      </g>
     </g>
    </g>
    <g id="xtick_50">
     <g id="line2d_50">
      <g>
       <use xlink:href="#me7bfd1c070" x="370.796435" y="252" style="stroke: #000000; stroke-width: 0.6"/>
      </g>
     </g>
    </g>
    <g id="text_7">
     <!-- Concentration of Phenol (mM) -->
     <g transform="translate(146.478906 280.276563)scale(0.1 -0.1)">
      <defs>
       <path id="DejaVuSans-43" d="M 4122 4306 
L 4122 3641 
Q 3803 3938 3442 4084 
Q 3081 4231 2675 4231 
Q 1875 4231 1450 3742 
Q 1025 3253 1025 2328 
Q 1025 1406 1450 917 
Q 1875 428 2675 428 
Q 3081 428 3442 575 
Q 3803 722 4122 1019 
L 4122 359 
Q 3791 134 3420 21 
Q 3050 -91 2638 -91 
Q 1578 -91 968 557 
Q 359 1206 359 2328 
Q 359 3453 968 4101 
Q 1578 4750 2638 4750 
Q 3056 4750 3426 4639 
Q 3797 4528 4122 4306 
z
" transform="scale(0.015625)"/>
       <path id="DejaVuSans-6f" d="M 1959 3097 
Q 1497 3097 1228 2736 
Q 959 2375 959 1747 
Q 959 1119 1226 758 
Q 1494 397 1959 397 
Q 2419 397 2687 759 
Q 2956 1122 2956 1747 
Q 2956 2369 2687 2733 
Q 2419 3097 1959 3097 
z
M 1959 3584 
Q 2709 3584 3137 3096 
Q 3566 2609 3566 1747 
Q 3566 888 3137 398 
Q 2709 -91 1959 -91 
Q 1206 -91 779 398 
Q 353 888 353 1747 
Q 353 2609 779 3096 
Q 1206 3584 1959 3584 
z
" transform="scale(0.015625)"/>
       <path id="DejaVuSans-6e" d="M 3513 2113 
L 3513 0 
L 2938 0 
L 2938 2094 
Q 2938 2591 2744 2837 
Q 2550 3084 2163 3084 
Q 1697 3084 1428 2787 
Q 1159 2491 1159 1978 
L 1159 0 
L 581 0 
L 581 3500 
L 1159 3500 
L 1159 2956 
Q 1366 3272 1645 3428 
Q 1925 3584 2291 3584 
Q 2894 3584 3203 3211 
Q 3513 2838 3513 2113 
z
" transform="scale(0.015625)"/>
       <path id="DejaVuSans-63" d="M 3122 3366 
L 3122 2828 
Q 2878 2963 2633 3030 
Q 2388 3097 2138 3097 
Q 1578 3097 1268 2742 
Q 959 2388 959 1747 
Q 959 1106 1268 751 
Q 1578 397 2138 397 
Q 2388 397 2633 464 
Q 2878 531 3122 666 
L 3122 134 
Q 2881 22 2623 -34 
Q 2366 -91 2075 -91 
Q 1284 -91 818 406 
Q 353 903 353 1747 
Q 353 2603 823 3093 
Q 1294 3584 2113 3584 
Q 2378 3584 2631 3529 
Q 2884 3475 3122 3366 
z
" transform="scale(0.015625)"/>
       <path id="DejaVuSans-65" d="M 3597 1894 
L 3597 1613 
L 953 1613 
Q 991 1019 1311 708 
Q 1631 397 2203 397 
Q 2534 397 2845 478 
Q 3156 559 3463 722 
L 3463 178 
Q 3153 47 2828 -22 
Q 2503 -91 2169 -91 
Q 1331 -91 842 396 
Q 353 884 353 1716 
Q 353 2575 817 3079 
Q 1281 3584 2069 3584 
Q 2775 3584 3186 3129 
Q 3597 2675 3597 1894 
z
M 3022 2063 
Q 3016 2534 2758 2815 
Q 2500 3097 2075 3097 
Q 1594 3097 1305 2825 
Q 1016 2553 972 2059 
L 3022 2063 
z
" transform="scale(0.015625)"/>
       <path id="DejaVuSans-74" d="M 1172 4494 
L 1172 3500 
L 2356 3500 
L 2356 3053 
L 1172 3053 
L 1172 1153 
Q 1172 725 1289 603 
Q 1406 481 1766 481 
L 2356 481 
L 2356 0 
L 1766 0 
Q 1100 0 847 248 
Q 594 497 594 1153 
L 594 3053 
L 172 3053 
L 172 3500 
L 594 3500 
L 594 4494 
L 1172 4494 
z
" transform="scale(0.015625)"/>
       <path id="DejaVuSans-72" d="M 2631 2963 
Q 2534 3019 2420 3045 
Q 2306 3072 2169 3072 
Q 1681 3072 1420 2755 
Q 1159 2438 1159 1844 
L 1159 0 
L 581 0 
L 581 3500 
L 1159 3500 
L 1159 2956 
Q 1341 3275 1631 3429 
Q 1922 3584 2338 3584 
Q 2397 3584 2469 3576 
Q 2541 3569 2628 3553 
L 2631 2963 
z
" transform="scale(0.015625)"/>
       <path id="DejaVuSans-61" d="M 2194 1759 
Q 1497 1759 1228 1600 
Q 959 1441 959 1056 
Q 959 750 1161 570 
Q 1363 391 1709 391 
Q 2188 391 2477 730 
Q 2766 1069 2766 1631 
L 2766 1759 
L 2194 1759 
z
M 3341 1997 
L 3341 0 
L 2766 0 
L 2766 531 
Q 2569 213 2275 61 
Q 1981 -91 1556 -91 
Q 1019 -91 701 211 
Q 384 513 384 1019 
Q 384 1609 779 1909 
Q 1175 2209 1959 2209 
L 2766 2209 
L 2766 2266 
Q 2766 2663 2505 2880 
Q 2244 3097 1772 3097 
Q 1472 3097 1187 3025 
Q 903 2953 641 2809 
L 641 3341 
Q 956 3463 1253 3523 
Q 1550 3584 1831 3584 
Q 2591 3584 2966 3190 
Q 3341 2797 3341 1997 
z
" transform="scale(0.015625)"/>
       <path id="DejaVuSans-69" d="M 603 3500 
L 1178 3500 
L 1178 0 
L 603 0 
L 603 3500 
z
M 603 4863 
L 1178 4863 
L 1178 4134 
L 603 4134 
L 603 4863 
z
" transform="scale(0.015625)"/>
       <path id="DejaVuSans-20" transform="scale(0.015625)"/>
       <path id="DejaVuSans-66" d="M 2375 4863 
L 2375 4384 
L 1825 4384 
Q 1516 4384 1395 4259 
Q 1275 4134 1275 3809 
L 1275 3500 
L 2222 3500 
L 2222 3053 
L 1275 3053 
L 1275 0 
L 697 0 
L 697 3053 
L 147 3053 
L 147 3500 
L 697 3500 
L 697 3744 
Q 697 4328 969 4595 
Q 1241 4863 1831 4863 
L 2375 4863 
z
" transform="scale(0.015625)"/>
       <path id="DejaVuSans-50" d="M 1259 4147 
L 1259 2394 
L 2053 2394 
Q 2494 2394 2734 2622 
Q 2975 2850 2975 3272 
Q 2975 3691 2734 3919 
Q 2494 4147 2053 4147 
L 1259 4147 
z
M 628 4666 
L 2053 4666 
Q 2838 4666 3239 4311 
Q 3641 3956 3641 3272 
Q 3641 2581 3239 2228 
Q 2838 1875 2053 1875 
L 1259 1875 
L 1259 0 
L 628 0 
L 628 4666 
z
" transform="scale(0.015625)"/>
       <path id="DejaVuSans-68" d="M 3513 2113 
L 3513 0 
L 2938 0 
L 2938 2094 
Q 2938 2591 2744 2837 
Q 2550 3084 2163 3084 
Q 1697 3084 1428 2787 
Q 1159 2491 1159 1978 
L 1159 0 
L 581 0 
L 581 4863 
L 1159 4863 
L 1159 2956 
Q 1366 3272 1645 3428 
Q 1925 3584 2291 3584 
Q 2894 3584 3203 3211 
Q 3513 2838 3513 2113 
z
" transform="scale(0.015625)"/>
       <path id="DejaVuSans-6c" d="M 603 4863 
L 1178 4863 
L 1178 0 
L 603 0 
L 603 4863 
z
" transform="scale(0.015625)"/>
       <path id="DejaVuSans-28" d="M 1984 4856 
Q 1566 4138 1362 3434 
Q 1159 2731 1159 2009 
Q 1159 1288 1364 580 
Q 1569 -128 1984 -844 
L 1484 -844 
Q 1016 -109 783 600 
Q 550 1309 550 2009 
Q 550 2706 781 3412 
Q 1013 4119 1484 4856 
L 1984 4856 
z
" transform="scale(0.015625)"/>
       <path id="DejaVuSans-6d" d="M 3328 2828 
Q 3544 3216 3844 3400 
Q 4144 3584 4550 3584 
Q 5097 3584 5394 3201 
Q 5691 2819 5691 2113 
L 5691 0 
L 5113 0 
L 5113 2094 
Q 5113 2597 4934 2840 
Q 4756 3084 4391 3084 
Q 3944 3084 3684 2787 
Q 3425 2491 3425 1978 
L 3425 0 
L 2847 0 
L 2847 2094 
Q 2847 2600 2669 2842 
Q 2491 3084 2119 3084 
Q 1678 3084 1418 2786 
Q 1159 2488 1159 1978 
L 1159 0 
L 581 0 
L 581 3500 
L 1159 3500 
L 1159 2956 
Q 1356 3278 1631 3431 
Q 1906 3584 2284 3584 
Q 2666 3584 2933 3390 
Q 3200 3197 3328 2828 
z
" transform="scale(0.015625)"/>
       <path id="DejaVuSans-4d" d="M 628 4666 
L 1569 4666 
L 2759 1491 
L 3956 4666 
L 4897 4666 
L 4897 0 
L 4281 0 
L 4281 4097 
L 3078 897 
L 2444 897 
L 1241 4097 
L 1241 0 
L 628 0 
L 628 4666 
z
" transform="scale(0.015625)"/>
       <path id="DejaVuSans-29" d="M 513 4856 
L 1013 4856 
Q 1481 4119 1714 3412 
Q 1947 2706 1947 2009 
Q 1947 1309 1714 600 
Q 1481 -109 1013 -844 
L 513 -844 
Q 928 -128 1133 580 
Q 1338 1288 1338 2009 
Q 1338 2731 1133 3434 
Q 928 4138 513 4856 
z
" transform="scale(0.015625)"/>
      </defs>
      <use xlink:href="#DejaVuSans-43"/>
      <use xlink:href="#DejaVuSans-6f" x="69.824219"/>
      <use xlink:href="#DejaVuSans-6e" x="131.005859"/>
      <use xlink:href="#DejaVuSans-63" x="194.384766"/>
      <use xlink:href="#DejaVuSans-65" x="249.365234"/>
      <use xlink:href="#DejaVuSans-6e" x="310.888672"/>
      <use xlink:href="#DejaVuSans-74" x="374.267578"/>
      <use xlink:href="#DejaVuSans-72" x="413.476562"/>
      <use xlink:href="#DejaVuSans-61" x="454.589844"/>
      <use xlink:href="#DejaVuSans-74" x="515.869141"/>
      <use xlink:href="#DejaVuSans-69" x="555.078125"/>
      <use xlink:href="#DejaVuSans-6f" x="582.861328"/>
      <use xlink:href="#DejaVuSans-6e" x="644.042969"/>
      <use xlink:href="#DejaVuSans-20" x="707.421875"/>
      <use xlink:href="#DejaVuSans-6f" x="739.208984"/>
      <use xlink:href="#DejaVuSans-66" x="800.390625"/>
      <use xlink:href="#DejaVuSans-20" x="835.595703"/>
      <use xlink:href="#DejaVuSans-50" x="867.382812"/>
      <use xlink:href="#DejaVuSans-68" x="927.685547"/>
      <use xlink:href="#DejaVuSans-65" x="991.064453"/>
      <use xlink:href="#DejaVuSans-6e" x="1052.587891"/>
      <use xlink:href="#DejaVuSans-6f" x="1115.966797"/>
      <use xlink:href="#DejaVuSans-6c" x="1177.148438"/>
      <use xlink:href="#DejaVuSans-20" x="1204.931641"/>
      <use xlink:href="#DejaVuSans-28" x="1236.71875"/>
      <use xlink:href="#DejaVuSans-6d" x="1275.732422"/>
      <use xlink:href="#DejaVuSans-4d" x="1373.144531"/>
      <use xlink:href="#DejaVuSans-29" x="1459.423828"/>
     </g>
    </g>
   </g>
   <g id="matplotlib.axis_2">
    <g id="ytick_1">
     <g id="line2d_51">
      <defs>
       <path id="mb9011f5c6a" d="M 0 0 
L -3.5 0 
" style="stroke: #000000; stroke-width: 0.8"/>
      </defs>
      <g>
       <use xlink:href="#mb9011f5c6a" x="54" y="242.116364" style="stroke: #000000; stroke-width: 0.8"/>
      </g>
     </g>
     <g id="text_8">
      <!-- 0.0 -->
      <g transform="translate(31.096875 245.915582)scale(0.1 -0.1)">
       <defs>
        <path id="DejaVuSans-2e" d="M 684 794 
L 1344 794 
L 1344 0 
L 684 0 
L 684 794 
z
" transform="scale(0.015625)"/>
       </defs>
       <use xlink:href="#DejaVuSans-30"/>
       <use xlink:href="#DejaVuSans-2e" x="63.623047"/>
       <use xlink:href="#DejaVuSans-30" x="95.410156"/>
      </g>
     </g>
    </g>
    <g id="ytick_2">
     <g id="line2d_52">
      <g>
       <use xlink:href="#mb9011f5c6a" x="54" y="202.581818" style="stroke: #000000; stroke-width: 0.8"/>
      </g>
     </g>
     <g id="text_9">
      <!-- 0.2 -->
      <g transform="translate(31.096875 206.381037)scale(0.1 -0.1)">
       <use xlink:href="#DejaVuSans-30"/>
       <use xlink:href="#DejaVuSans-2e" x="63.623047"/>
       <use xlink:href="#DejaVuSans-32" x="95.410156"/>
      </g>
     </g>
    </g>
    <g id="ytick_3">
     <g id="line2d_53">
      <g>
       <use xlink:href="#mb9011f5c6a" x="54" y="163.047273" style="stroke: #000000; stroke-width: 0.8"/>
      </g>
     </g>
     <g id="text_10">
      <!-- 0.4 -->
      <g transform="translate(31.096875 166.846491)scale(0.1 -0.1)">
       <defs>
        <path id="DejaVuSans-34" d="M 2419 4116 
L 825 1625 
L 2419 1625 
L 2419 4116 
z
M 2253 4666 
L 3047 4666 
L 3047 1625 
L 3713 1625 
L 3713 1100 
L 3047 1100 
L 3047 0 
L 2419 0 
L 2419 1100 
L 313 1100 
L 313 1709 
L 2253 4666 
z
" transform="scale(0.015625)"/>
       </defs>
       <use xlink:href="#DejaVuSans-30"/>
       <use xlink:href="#DejaVuSans-2e" x="63.623047"/>
       <use xlink:href="#DejaVuSans-34" x="95.410156"/>
      </g>
     </g>
    </g>
    <g id="ytick_4">
     <g id="line2d_54">
      <g>
       <use xlink:href="#mb9011f5c6a" x="54" y="123.512727" style="stroke: #000000; stroke-width: 0.8"/>
      </g>
     </g>
     <g id="text_11">
      <!-- 0.6 -->
      <g transform="translate(31.096875 127.311946)scale(0.1 -0.1)">
       <defs>
        <path id="DejaVuSans-36" d="M 2113 2584 
Q 1688 2584 1439 2293 
Q 1191 2003 1191 1497 
Q 1191 994 1439 701 
Q 1688 409 2113 409 
Q 2538 409 2786 701 
Q 3034 994 3034 1497 
Q 3034 2003 2786 2293 
Q 2538 2584 2113 2584 
z
M 3366 4563 
L 3366 3988 
Q 3128 4100 2886 4159 
Q 2644 4219 2406 4219 
Q 1781 4219 1451 3797 
Q 1122 3375 1075 2522 
Q 1259 2794 1537 2939 
Q 1816 3084 2150 3084 
Q 2853 3084 3261 2657 
Q 3669 2231 3669 1497 
Q 3669 778 3244 343 
Q 2819 -91 2113 -91 
Q 1303 -91 875 529 
Q 447 1150 447 2328 
Q 447 3434 972 4092 
Q 1497 4750 2381 4750 
Q 2619 4750 2861 4703 
Q 3103 4656 3366 4563 
z
" transform="scale(0.015625)"/>
       </defs>
       <use xlink:href="#DejaVuSans-30"/>
       <use xlink:href="#DejaVuSans-2e" x="63.623047"/>
       <use xlink:href="#DejaVuSans-36" x="95.410156"/>
      </g>
     </g>
    </g>
    <g id="ytick_5">
     <g id="line2d_55">
      <g>
       <use xlink:href="#mb9011f5c6a" x="54" y="83.978182" style="stroke: #000000; stroke-width: 0.8"/>
      </g>
     </g>
     <g id="text_12">
      <!-- 0.8 -->
      <g transform="translate(31.096875 87.777401)scale(0.1 -0.1)">
       <defs>
        <path id="DejaVuSans-38" d="M 2034 2216 
Q 1584 2216 1326 1975 
Q 1069 1734 1069 1313 
Q 1069 891 1326 650 
Q 1584 409 2034 409 
Q 2484 409 2743 651 
Q 3003 894 3003 1313 
Q 3003 1734 2745 1975 
Q 2488 2216 2034 2216 
z
M 1403 2484 
Q 997 2584 770 2862 
Q 544 3141 544 3541 
Q 544 4100 942 4425 
Q 1341 4750 2034 4750 
Q 2731 4750 3128 4425 
Q 3525 4100 3525 3541 
Q 3525 3141 3298 2862 
Q 3072 2584 2669 2484 
Q 3125 2378 3379 2068 
Q 3634 1759 3634 1313 
Q 3634 634 3220 271 
Q 2806 -91 2034 -91 
Q 1263 -91 848 271 
Q 434 634 434 1313 
Q 434 1759 690 2068 
Q 947 2378 1403 2484 
z
M 1172 3481 
Q 1172 3119 1398 2916 
Q 1625 2713 2034 2713 
Q 2441 2713 2670 2916 
Q 2900 3119 2900 3481 
Q 2900 3844 2670 4047 
Q 2441 4250 2034 4250 
Q 1625 4250 1398 4047 
Q 1172 3844 1172 3481 
z
" transform="scale(0.015625)"/>
       </defs>
       <use xlink:href="#DejaVuSans-30"/>
       <use xlink:href="#DejaVuSans-2e" x="63.623047"/>
       <use xlink:href="#DejaVuSans-38" x="95.410156"/>
      </g>
     </g>
    </g>
    <g id="ytick_6">
     <g id="line2d_56">
      <g>
       <use xlink:href="#mb9011f5c6a" x="54" y="44.443636" style="stroke: #000000; stroke-width: 0.8"/>
      </g>
     </g>
     <g id="text_13">
      <!-- 1.0 -->
      <g transform="translate(31.096875 48.242855)scale(0.1 -0.1)">
       <use xlink:href="#DejaVuSans-31"/>
       <use xlink:href="#DejaVuSans-2e" x="63.623047"/>
       <use xlink:href="#DejaVuSans-30" x="95.410156"/>
      </g>
     </g>
    </g>
    <g id="text_14">
     <!-- Fraction of Sites Occupied -->
     <g transform="translate(25.017187 208.447969)rotate(-90)scale(0.1 -0.1)">
      <defs>
       <path id="DejaVuSans-46" d="M 628 4666 
L 3309 4666 
L 3309 4134 
L 1259 4134 
L 1259 2759 
L 3109 2759 
L 3109 2228 
L 1259 2228 
L 1259 0 
L 628 0 
L 628 4666 
z
" transform="scale(0.015625)"/>
       <path id="DejaVuSans-53" d="M 3425 4513 
L 3425 3897 
Q 3066 4069 2747 4153 
Q 2428 4238 2131 4238 
Q 1616 4238 1336 4038 
Q 1056 3838 1056 3469 
Q 1056 3159 1242 3001 
Q 1428 2844 1947 2747 
L 2328 2669 
Q 3034 2534 3370 2195 
Q 3706 1856 3706 1288 
Q 3706 609 3251 259 
Q 2797 -91 1919 -91 
Q 1588 -91 1214 -16 
Q 841 59 441 206 
L 441 856 
Q 825 641 1194 531 
Q 1563 422 1919 422 
Q 2459 422 2753 634 
Q 3047 847 3047 1241 
Q 3047 1584 2836 1778 
Q 2625 1972 2144 2069 
L 1759 2144 
Q 1053 2284 737 2584 
Q 422 2884 422 3419 
Q 422 4038 858 4394 
Q 1294 4750 2059 4750 
Q 2388 4750 2728 4690 
Q 3069 4631 3425 4513 
z
" transform="scale(0.015625)"/>
       <path id="DejaVuSans-73" d="M 2834 3397 
L 2834 2853 
Q 2591 2978 2328 3040 
Q 2066 3103 1784 3103 
Q 1356 3103 1142 2972 
Q 928 2841 928 2578 
Q 928 2378 1081 2264 
Q 1234 2150 1697 2047 
L 1894 2003 
Q 2506 1872 2764 1633 
Q 3022 1394 3022 966 
Q 3022 478 2636 193 
Q 2250 -91 1575 -91 
Q 1294 -91 989 -36 
Q 684 19 347 128 
L 347 722 
Q 666 556 975 473 
Q 1284 391 1588 391 
Q 1994 391 2212 530 
Q 2431 669 2431 922 
Q 2431 1156 2273 1281 
Q 2116 1406 1581 1522 
L 1381 1569 
Q 847 1681 609 1914 
Q 372 2147 372 2553 
Q 372 3047 722 3315 
Q 1072 3584 1716 3584 
Q 2034 3584 2315 3537 
Q 2597 3491 2834 3397 
z
" transform="scale(0.015625)"/>
       <path id="DejaVuSans-4f" d="M 2522 4238 
Q 1834 4238 1429 3725 
Q 1025 3213 1025 2328 
Q 1025 1447 1429 934 
Q 1834 422 2522 422 
Q 3209 422 3611 934 
Q 4013 1447 4013 2328 
Q 4013 3213 3611 3725 
Q 3209 4238 2522 4238 
z
M 2522 4750 
Q 3503 4750 4090 4092 
Q 4678 3434 4678 2328 
Q 4678 1225 4090 567 
Q 3503 -91 2522 -91 
Q 1538 -91 948 565 
Q 359 1222 359 2328 
Q 359 3434 948 4092 
Q 1538 4750 2522 4750 
z
" transform="scale(0.015625)"/>
       <path id="DejaVuSans-75" d="M 544 1381 
L 544 3500 
L 1119 3500 
L 1119 1403 
Q 1119 906 1312 657 
Q 1506 409 1894 409 
Q 2359 409 2629 706 
Q 2900 1003 2900 1516 
L 2900 3500 
L 3475 3500 
L 3475 0 
L 2900 0 
L 2900 538 
Q 2691 219 2414 64 
Q 2138 -91 1772 -91 
Q 1169 -91 856 284 
Q 544 659 544 1381 
z
M 1991 3584 
L 1991 3584 
z
" transform="scale(0.015625)"/>
       <path id="DejaVuSans-70" d="M 1159 525 
L 1159 -1331 
L 581 -1331 
L 581 3500 
L 1159 3500 
L 1159 2969 
Q 1341 3281 1617 3432 
Q 1894 3584 2278 3584 
Q 2916 3584 3314 3078 
Q 3713 2572 3713 1747 
Q 3713 922 3314 415 
Q 2916 -91 2278 -91 
Q 1894 -91 1617 61 
Q 1341 213 1159 525 
z
M 3116 1747 
Q 3116 2381 2855 2742 
Q 2594 3103 2138 3103 
Q 1681 3103 1420 2742 
Q 1159 2381 1159 1747 
Q 1159 1113 1420 752 
Q 1681 391 2138 391 
Q 2594 391 2855 752 
Q 3116 1113 3116 1747 
z
" transform="scale(0.015625)"/>
       <path id="DejaVuSans-64" d="M 2906 2969 
L 2906 4863 
L 3481 4863 
L 3481 0 
L 2906 0 
L 2906 525 
Q 2725 213 2448 61 
Q 2172 -91 1784 -91 
Q 1150 -91 751 415 
Q 353 922 353 1747 
Q 353 2572 751 3078 
Q 1150 3584 1784 3584 
Q 2172 3584 2448 3432 
Q 2725 3281 2906 2969 
z
M 947 1747 
Q 947 1113 1208 752 
Q 1469 391 1925 391 
Q 2381 391 2643 752 
Q 2906 1113 2906 1747 
Q 2906 2381 2643 2742 
Q 2381 3103 1925 3103 
Q 1469 3103 1208 2742 
Q 947 2381 947 1747 
z
" transform="scale(0.015625)"/>
      </defs>
      <use xlink:href="#DejaVuSans-46"/>
      <use xlink:href="#DejaVuSans-72" x="50.269531"/>
      <use xlink:href="#DejaVuSans-61" x="91.382812"/>
      <use xlink:href="#DejaVuSans-63" x="152.662109"/>
      <use xlink:href="#DejaVuSans-74" x="207.642578"/>
      <use xlink:href="#DejaVuSans-69" x="246.851562"/>
      <use xlink:href="#DejaVuSans-6f" x="274.634766"/>
      <use xlink:href="#DejaVuSans-6e" x="335.816406"/>
      <use xlink:href="#DejaVuSans-20" x="399.195312"/>
      <use xlink:href="#DejaVuSans-6f" x="430.982422"/>
      <use xlink:href="#DejaVuSans-66" x="492.164062"/>
      <use xlink:href="#DejaVuSans-20" x="527.369141"/>
      <use xlink:href="#DejaVuSans-53" x="559.15625"/>
      <use xlink:href="#DejaVuSans-69" x="622.632812"/>
      <use xlink:href="#DejaVuSans-74" x="650.416016"/>
      <use xlink:href="#DejaVuSans-65" x="689.625"/>
      <use xlink:href="#DejaVuSans-73" x="751.148438"/>
      <use xlink:href="#DejaVuSans-20" x="803.248047"/>
      <use xlink:href="#DejaVuSans-4f" x="835.035156"/>
      <use xlink:href="#DejaVuSans-63" x="913.746094"/>
      <use xlink:href="#DejaVuSans-63" x="968.726562"/>
      <use xlink:href="#DejaVuSans-75" x="1023.707031"/>
      <use xlink:href="#DejaVuSans-70" x="1087.085938"/>
      <use xlink:href="#DejaVuSans-69" x="1150.5625"/>
      <use xlink:href="#DejaVuSans-65" x="1178.345703"/>
      <use xlink:href="#DejaVuSans-64" x="1239.869141"/>
     </g>
    </g>
   </g>
   <g id="line2d_57">
    <path d="M 69.218182 240.910201 
L 79.881572 240.316389 
L 88.716953 239.611149 
L 96.333661 238.788725 
L 103.036364 237.849177 
L 109.12973 236.772956 
L 114.613759 235.581892 
L 119.79312 234.224137 
L 124.363145 232.804968 
L 128.628501 231.264165 
L 132.893857 229.485496 
L 136.854545 227.594039 
L 140.815233 225.444858 
L 144.471253 223.208772 
L 148.127273 220.708242 
L 151.783292 217.921774 
L 155.134644 215.098703 
L 158.485995 212.003409 
L 161.837346 208.623098 
L 165.188698 204.947505 
L 168.844717 200.592889 
L 172.500737 195.875078 
L 176.156757 190.797407 
L 180.117445 184.903732 
L 184.382801 178.129131 
L 188.952826 170.43304 
L 194.132187 161.264547 
L 201.139558 148.363688 
L 214.849631 123.030578 
L 220.333661 113.447544 
L 224.903686 105.898802 
L 229.169042 99.282314 
L 233.12973 93.547695 
L 236.785749 88.62302 
L 240.441769 84.060541 
L 244.097789 79.860519 
L 247.753808 76.016819 
L 251.409828 72.518089 
L 255.065848 69.348931 
L 258.721867 66.491014 
L 262.377887 63.924069 
L 266.033907 61.626749 
L 269.689926 59.577342 
L 273.650614 57.611981 
L 277.611302 55.885855 
L 281.876658 54.265686 
L 286.446683 52.772128 
L 291.321376 51.419187 
L 296.500737 50.214339 
L 302.289435 49.106299 
L 308.687469 48.122693 
L 315.69484 47.278339 
L 323.616216 46.55223 
L 332.756265 45.940558 
L 343.724324 45.434781 
L 357.434398 45.034917 
L 373.581818 44.765093 
L 373.581818 44.765093 
" clip-path="url(#pde2f7e6a41)" style="fill: none; stroke: #1f77b4; stroke-width: 1.5; stroke-linecap: square"/>
   </g>
   <g id="LineCollection_1">
    <path d="M 203.861524 242.116364 
L 203.861524 44.443636 
" clip-path="url(#pde2f7e6a41)" style="fill: none; stroke-dasharray: 5.55,2.4; stroke-dashoffset: 0; stroke: #000000; stroke-width: 1.5"/>
   </g>
   <g id="patch_3">
    <path d="M 54 252 
L 54 34.56 
" style="fill: none; stroke: #000000; stroke-width: 0.8; stroke-linejoin: miter; stroke-linecap: square"/>
   </g>
   <g id="patch_4">
    <path d="M 388.8 252 
L 388.8 34.56 
" style="fill: none; stroke: #000000; stroke-width: 0.8; stroke-linejoin: miter; stroke-linecap: square"/>
   </g>
   <g id="patch_5">
    <path d="M 54 252 
L 388.8 252 
" style="fill: none; stroke: #000000; stroke-width: 0.8; stroke-linejoin: miter; stroke-linecap: square"/>
   </g>
   <g id="patch_6">
    <path d="M 54 34.56 
L 388.8 34.56 
" style="fill: none; stroke: #000000; stroke-width: 0.8; stroke-linejoin: miter; stroke-linecap: square"/>
   </g>
   <g id="legend_1">
    <g id="patch_7">
     <path d="M 226.692187 247 
L 381.8 247 
Q 383.8 247 383.8 245 
L 383.8 201.965625 
Q 383.8 199.965625 381.8 199.965625 
L 226.692187 199.965625 
Q 224.692187 199.965625 224.692187 201.965625 
L 224.692187 245 
Q 224.692187 247 226.692187 247 
z
" style="fill: #ffffff; opacity: 0.8; stroke: #cccccc; stroke-linejoin: miter"/>
    </g>
    <g id="line2d_58">
     <path d="M 228.692187 208.064063 
L 238.692187 208.064063 
L 248.692187 208.064063 
" style="fill: none; stroke: #1f77b4; stroke-width: 1.5; stroke-linecap: square"/>
    </g>
    <g id="text_15">
     <!-- Binding Curve -->
     <g transform="translate(256.692187 211.564063)scale(0.1 -0.1)">
      <defs>
       <path id="DejaVuSans-42" d="M 1259 2228 
L 1259 519 
L 2272 519 
Q 2781 519 3026 730 
Q 3272 941 3272 1375 
Q 3272 1813 3026 2020 
Q 2781 2228 2272 2228 
L 1259 2228 
z
M 1259 4147 
L 1259 2741 
L 2194 2741 
Q 2656 2741 2882 2914 
Q 3109 3088 3109 3444 
Q 3109 3797 2882 3972 
Q 2656 4147 2194 4147 
L 1259 4147 
z
M 628 4666 
L 2241 4666 
Q 2963 4666 3353 4366 
Q 3744 4066 3744 3513 
Q 3744 3084 3544 2831 
Q 3344 2578 2956 2516 
Q 3422 2416 3680 2098 
Q 3938 1781 3938 1306 
Q 3938 681 3513 340 
Q 3088 0 2303 0 
L 628 0 
L 628 4666 
z
" transform="scale(0.015625)"/>
       <path id="DejaVuSans-67" d="M 2906 1791 
Q 2906 2416 2648 2759 
Q 2391 3103 1925 3103 
Q 1463 3103 1205 2759 
Q 947 2416 947 1791 
Q 947 1169 1205 825 
Q 1463 481 1925 481 
Q 2391 481 2648 825 
Q 2906 1169 2906 1791 
z
M 3481 434 
Q 3481 -459 3084 -895 
Q 2688 -1331 1869 -1331 
Q 1566 -1331 1297 -1286 
Q 1028 -1241 775 -1147 
L 775 -588 
Q 1028 -725 1275 -790 
Q 1522 -856 1778 -856 
Q 2344 -856 2625 -561 
Q 2906 -266 2906 331 
L 2906 616 
Q 2728 306 2450 153 
Q 2172 0 1784 0 
Q 1141 0 747 490 
Q 353 981 353 1791 
Q 353 2603 747 3093 
Q 1141 3584 1784 3584 
Q 2172 3584 2450 3431 
Q 2728 3278 2906 2969 
L 2906 3500 
L 3481 3500 
L 3481 434 
z
" transform="scale(0.015625)"/>
       <path id="DejaVuSans-76" d="M 191 3500 
L 800 3500 
L 1894 563 
L 2988 3500 
L 3597 3500 
L 2284 0 
L 1503 0 
L 191 3500 
z
" transform="scale(0.015625)"/>
      </defs>
      <use xlink:href="#DejaVuSans-42"/>
      <use xlink:href="#DejaVuSans-69" x="68.603516"/>
      <use xlink:href="#DejaVuSans-6e" x="96.386719"/>
      <use xlink:href="#DejaVuSans-64" x="159.765625"/>
      <use xlink:href="#DejaVuSans-69" x="223.242188"/>
      <use xlink:href="#DejaVuSans-6e" x="251.025391"/>
      <use xlink:href="#DejaVuSans-67" x="314.404297"/>
      <use xlink:href="#DejaVuSans-20" x="377.880859"/>
      <use xlink:href="#DejaVuSans-43" x="409.667969"/>
      <use xlink:href="#DejaVuSans-75" x="479.492188"/>
      <use xlink:href="#DejaVuSans-72" x="542.871094"/>
      <use xlink:href="#DejaVuSans-76" x="583.984375"/>
      <use xlink:href="#DejaVuSans-65" x="643.164062"/>
     </g>
    </g>
    <g id="patch_8">
     <path d="M 228.692187 226.242188 
L 248.692187 226.242188 
L 248.692187 219.242188 
L 228.692187 219.242188 
z
" style="fill: #1f77b4; fill-opacity: 0.25"/>
    </g>
    <g id="text_16">
     <!-- 95% Confidence Interval -->
     <g transform="translate(256.692187 226.242188)scale(0.1 -0.1)">
      <defs>
       <path id="DejaVuSans-39" d="M 703 97 
L 703 672 
Q 941 559 1184 500 
Q 1428 441 1663 441 
Q 2288 441 2617 861 
Q 2947 1281 2994 2138 
Q 2813 1869 2534 1725 
Q 2256 1581 1919 1581 
Q 1219 1581 811 2004 
Q 403 2428 403 3163 
Q 403 3881 828 4315 
Q 1253 4750 1959 4750 
Q 2769 4750 3195 4129 
Q 3622 3509 3622 2328 
Q 3622 1225 3098 567 
Q 2575 -91 1691 -91 
Q 1453 -91 1209 -44 
Q 966 3 703 97 
z
M 1959 2075 
Q 2384 2075 2632 2365 
Q 2881 2656 2881 3163 
Q 2881 3666 2632 3958 
Q 2384 4250 1959 4250 
Q 1534 4250 1286 3958 
Q 1038 3666 1038 3163 
Q 1038 2656 1286 2365 
Q 1534 2075 1959 2075 
z
" transform="scale(0.015625)"/>
       <path id="DejaVuSans-35" d="M 691 4666 
L 3169 4666 
L 3169 4134 
L 1269 4134 
L 1269 2991 
Q 1406 3038 1543 3061 
Q 1681 3084 1819 3084 
Q 2600 3084 3056 2656 
Q 3513 2228 3513 1497 
Q 3513 744 3044 326 
Q 2575 -91 1722 -91 
Q 1428 -91 1123 -41 
Q 819 9 494 109 
L 494 744 
Q 775 591 1075 516 
Q 1375 441 1709 441 
Q 2250 441 2565 725 
Q 2881 1009 2881 1497 
Q 2881 1984 2565 2268 
Q 2250 2553 1709 2553 
Q 1456 2553 1204 2497 
Q 953 2441 691 2322 
L 691 4666 
z
" transform="scale(0.015625)"/>
       <path id="DejaVuSans-25" d="M 4653 2053 
Q 4381 2053 4226 1822 
Q 4072 1591 4072 1178 
Q 4072 772 4226 539 
Q 4381 306 4653 306 
Q 4919 306 5073 539 
Q 5228 772 5228 1178 
Q 5228 1588 5073 1820 
Q 4919 2053 4653 2053 
z
M 4653 2450 
Q 5147 2450 5437 2106 
Q 5728 1763 5728 1178 
Q 5728 594 5436 251 
Q 5144 -91 4653 -91 
Q 4153 -91 3862 251 
Q 3572 594 3572 1178 
Q 3572 1766 3864 2108 
Q 4156 2450 4653 2450 
z
M 1428 4353 
Q 1159 4353 1004 4120 
Q 850 3888 850 3481 
Q 850 3069 1003 2837 
Q 1156 2606 1428 2606 
Q 1700 2606 1854 2837 
Q 2009 3069 2009 3481 
Q 2009 3884 1853 4118 
Q 1697 4353 1428 4353 
z
M 4250 4750 
L 4750 4750 
L 1831 -91 
L 1331 -91 
L 4250 4750 
z
M 1428 4750 
Q 1922 4750 2215 4408 
Q 2509 4066 2509 3481 
Q 2509 2891 2217 2550 
Q 1925 2209 1428 2209 
Q 931 2209 642 2551 
Q 353 2894 353 3481 
Q 353 4063 643 4406 
Q 934 4750 1428 4750 
z
" transform="scale(0.015625)"/>
       <path id="DejaVuSans-49" d="M 628 4666 
L 1259 4666 
L 1259 0 
L 628 0 
L 628 4666 
z
" transform="scale(0.015625)"/>
      </defs>
      <use xlink:href="#DejaVuSans-39"/>
      <use xlink:href="#DejaVuSans-35" x="63.623047"/>
      <use xlink:href="#DejaVuSans-25" x="127.246094"/>
      <use xlink:href="#DejaVuSans-20" x="222.265625"/>
      <use xlink:href="#DejaVuSans-43" x="254.052734"/>
      <use xlink:href="#DejaVuSans-6f" x="323.876953"/>
      <use xlink:href="#DejaVuSans-6e" x="385.058594"/>
      <use xlink:href="#DejaVuSans-66" x="448.4375"/>
      <use xlink:href="#DejaVuSans-69" x="483.642578"/>
      <use xlink:href="#DejaVuSans-64" x="511.425781"/>
      <use xlink:href="#DejaVuSans-65" x="574.902344"/>
      <use xlink:href="#DejaVuSans-6e" x="636.425781"/>
      <use xlink:href="#DejaVuSans-63" x="699.804688"/>
      <use xlink:href="#DejaVuSans-65" x="754.785156"/>
      <use xlink:href="#DejaVuSans-20" x="816.308594"/>
      <use xlink:href="#DejaVuSans-49" x="848.095703"/>
      <use xlink:href="#DejaVuSans-6e" x="877.587891"/>
      <use xlink:href="#DejaVuSans-74" x="940.966797"/>
      <use xlink:href="#DejaVuSans-65" x="980.175781"/>
      <use xlink:href="#DejaVuSans-72" x="1041.699219"/>
      <use xlink:href="#DejaVuSans-76" x="1082.8125"/>
      <use xlink:href="#DejaVuSans-61" x="1141.992188"/>
      <use xlink:href="#DejaVuSans-6c" x="1203.271484"/>
     </g>
    </g>
    <g id="line2d_59">
     <path d="M 228.692187 237.420313 
L 248.692187 237.420313 
" style="fill: none; stroke-dasharray: 5.55,2.4; stroke-dashoffset: 0; stroke: #000000; stroke-width: 1.5"/>
    </g>
    <g id="text_17">
     <!-- Dissociation Constant -->
     <g transform="translate(256.692187 240.920313)scale(0.1 -0.1)">
      <defs>
       <path id="DejaVuSans-44" d="M 1259 4147 
L 1259 519 
L 2022 519 
Q 2988 519 3436 956 
Q 3884 1394 3884 2338 
Q 3884 3275 3436 3711 
Q 2988 4147 2022 4147 
L 1259 4147 
z
M 628 4666 
L 1925 4666 
Q 3281 4666 3915 4102 
Q 4550 3538 4550 2338 
Q 4550 1131 3912 565 
Q 3275 0 1925 0 
L 628 0 
L 628 4666 
z
" transform="scale(0.015625)"/>
      </defs>
      <use xlink:href="#DejaVuSans-44"/>
      <use xlink:href="#DejaVuSans-69" x="77.001953"/>
      <use xlink:href="#DejaVuSans-73" x="104.785156"/>
      <use xlink:href="#DejaVuSans-73" x="156.884766"/>
      <use xlink:href="#DejaVuSans-6f" x="208.984375"/>
      <use xlink:href="#DejaVuSans-63" x="270.166016"/>
      <use xlink:href="#DejaVuSans-69" x="325.146484"/>
      <use xlink:href="#DejaVuSans-61" x="352.929688"/>
      <use xlink:href="#DejaVuSans-74" x="414.208984"/>
      <use xlink:href="#DejaVuSans-69" x="453.417969"/>
      <use xlink:href="#DejaVuSans-6f" x="481.201172"/>
      <use xlink:href="#DejaVuSans-6e" x="542.382812"/>
      <use xlink:href="#DejaVuSans-20" x="605.761719"/>
      <use xlink:href="#DejaVuSans-43" x="637.548828"/>
      <use xlink:href="#DejaVuSans-6f" x="707.373047"/>
      <use xlink:href="#DejaVuSans-6e" x="768.554688"/>
      <use xlink:href="#DejaVuSans-73" x="831.933594"/>
      <use xlink:href="#DejaVuSans-74" x="884.033203"/>
      <use xlink:href="#DejaVuSans-61" x="923.242188"/>
      <use xlink:href="#DejaVuSans-6e" x="984.521484"/>
      <use xlink:href="#DejaVuSans-74" x="1047.900391"/>
     </g>
    </g>
   </g>
  </g>
 </g>
 <defs>
  <clipPath id="pde2f7e6a41">
   <rect x="54" y="34.56" width="334.8" height="217.44"/>
  </clipPath>
 </defs>
</svg>
