<?xml version="1.0" encoding="utf-8" standalone="no"?>
<!DOCTYPE svg PUBLIC "-//W3C//DTD SVG 1.1//EN"
  "http://www.w3.org/Graphics/SVG/1.1/DTD/svg11.dtd">
<svg xmlns:xlink="http://www.w3.org/1999/xlink" width="576pt" height="864pt" viewBox="0 0 576 864" xmlns="http://www.w3.org/2000/svg" version="1.1">
 <metadata>
  <rdf:RDF xmlns:dc="http://purl.org/dc/elements/1.1/" xmlns:cc="http://creativecommons.org/ns#" xmlns:rdf="http://www.w3.org/1999/02/22-rdf-syntax-ns#">
   <cc:Work>
    <dc:type rdf:resource="http://purl.org/dc/dcmitype/StillImage"/>
    <dc:date>2022-07-13T09:25:12.813684</dc:date>
    <dc:format>image/svg+xml</dc:format>
    <dc:creator>
     <cc:Agent>
      <dc:title>Matplotlib v3.5.1, https://matplotlib.org/</dc:title>
     </cc:Agent>
    </dc:creator>
   </cc:Work>
  </rdf:RDF>
 </metadata>
 <defs>
  <style type="text/css">*{stroke-linejoin: round; stroke-linecap: butt}</style>
 </defs>
 <g id="figure_1">
  <g id="patch_1">
   <path d="M 0 864 
L 576 864 
L 576 0 
L 0 0 
L 0 864 
z
" style="fill: none"/>
  </g>
  <g id="axes_1">
   <g id="patch_2">
    <path d="M 63.2 415.790354 
L 565.2 415.790354 
L 565.2 10.8 
L 63.2 10.8 
z
" style="fill: #ffffff"/>
   </g>
   <g id="matplotlib.axis_1">
    <g id="xtick_1">
     <g id="line2d_1">
      <defs>
       <path id="m5692fa87e3" d="M 0 0 
L 0 3.5 
" style="stroke: #000000; stroke-width: 0.8"/>
      </defs>
      <g>
       <use xlink:href="#m5692fa87e3" x="86.018182" y="415.790354" style="stroke: #000000; stroke-width: 0.8"/>
      </g>
     </g>
    </g>
    <g id="xtick_2">
     <g id="line2d_2">
      <g>
       <use xlink:href="#m5692fa87e3" x="177.290909" y="415.790354" style="stroke: #000000; stroke-width: 0.8"/>
      </g>
     </g>
    </g>
    <g id="xtick_3">
     <g id="line2d_3">
      <g>
       <use xlink:href="#m5692fa87e3" x="268.563636" y="415.790354" style="stroke: #000000; stroke-width: 0.8"/>
      </g>
     </g>
    </g>
    <g id="xtick_4">
     <g id="line2d_4">
      <g>
       <use xlink:href="#m5692fa87e3" x="359.836364" y="415.790354" style="stroke: #000000; stroke-width: 0.8"/>
      </g>
     </g>
    </g>
    <g id="xtick_5">
     <g id="line2d_5">
      <g>
       <use xlink:href="#m5692fa87e3" x="451.109091" y="415.790354" style="stroke: #000000; stroke-width: 0.8"/>
      </g>
     </g>
    </g>
    <g id="xtick_6">
     <g id="line2d_6">
      <g>
       <use xlink:href="#m5692fa87e3" x="542.381818" y="415.790354" style="stroke: #000000; stroke-width: 0.8"/>
      </g>
     </g>
    </g>
   </g>
   <g id="matplotlib.axis_2">
    <g id="ytick_1">
     <g id="line2d_7">
      <defs>
       <path id="m18abdac929" d="M 0 0 
L -3.5 0 
" style="stroke: #000000; stroke-width: 0.8"/>
      </defs>
      <g>
       <use xlink:href="#m18abdac929" x="63.2" y="397.381702" style="stroke: #000000; stroke-width: 0.8"/>
      </g>
     </g>
     <g id="text_1">
      <!-- 0.0 -->
      <g transform="translate(40.296875 401.180921)scale(0.1 -0.1)">
       <defs>
        <path id="DejaVuSans-30" d="M 2034 4250 
Q 1547 4250 1301 3770 
Q 1056 3291 1056 2328 
Q 1056 1369 1301 889 
Q 1547 409 2034 409 
Q 2525 409 2770 889 
Q 3016 1369 3016 2328 
Q 3016 3291 2770 3770 
Q 2525 4250 2034 4250 
z
M 2034 4750 
Q 2819 4750 3233 4129 
Q 3647 3509 3647 2328 
Q 3647 1150 3233 529 
Q 2819 -91 2034 -91 
Q 1250 -91 836 529 
Q 422 1150 422 2328 
Q 422 3509 836 4129 
Q 1250 4750 2034 4750 
z
" transform="scale(0.015625)"/>
        <path id="DejaVuSans-2e" d="M 684 794 
L 1344 794 
L 1344 0 
L 684 0 
L 684 794 
z
" transform="scale(0.015625)"/>
       </defs>
       <use xlink:href="#DejaVuSans-30"/>
       <use xlink:href="#DejaVuSans-2e" x="63.623047"/>
       <use xlink:href="#DejaVuSans-30" x="95.410156"/>
      </g>
     </g>
    </g>
    <g id="ytick_2">
     <g id="line2d_8">
      <g>
       <use xlink:href="#m18abdac929" x="63.2" y="351.409237" style="stroke: #000000; stroke-width: 0.8"/>
      </g>
     </g>
     <g id="text_2">
      <!-- 0.5 -->
      <g transform="translate(40.296875 355.208456)scale(0.1 -0.1)">
       <defs>
        <path id="DejaVuSans-35" d="M 691 4666 
L 3169 4666 
L 3169 4134 
L 1269 4134 
L 1269 2991 
Q 1406 3038 1543 3061 
Q 1681 3084 1819 3084 
Q 2600 3084 3056 2656 
Q 3513 2228 3513 1497 
Q 3513 744 3044 326 
Q 2575 -91 1722 -91 
Q 1428 -91 1123 -41 
Q 819 9 494 109 
L 494 744 
Q 775 591 1075 516 
Q 1375 441 1709 441 
Q 2250 441 2565 725 
Q 2881 1009 2881 1497 
Q 2881 1984 2565 2268 
Q 2250 2553 1709 2553 
Q 1456 2553 1204 2497 
Q 953 2441 691 2322 
L 691 4666 
z
" transform="scale(0.015625)"/>
       </defs>
       <use xlink:href="#DejaVuSans-30"/>
       <use xlink:href="#DejaVuSans-2e" x="63.623047"/>
       <use xlink:href="#DejaVuSans-35" x="95.410156"/>
      </g>
     </g>
    </g>
    <g id="ytick_3">
     <g id="line2d_9">
      <g>
       <use xlink:href="#m18abdac929" x="63.2" y="305.436773" style="stroke: #000000; stroke-width: 0.8"/>
      </g>
     </g>
     <g id="text_3">
      <!-- 1.0 -->
      <g transform="translate(40.296875 309.235992)scale(0.1 -0.1)">
       <defs>
        <path id="DejaVuSans-31" d="M 794 531 
L 1825 531 
L 1825 4091 
L 703 3866 
L 703 4441 
L 1819 4666 
L 2450 4666 
L 2450 531 
L 3481 531 
L 3481 0 
L 794 0 
L 794 531 
z
" transform="scale(0.015625)"/>
       </defs>
       <use xlink:href="#DejaVuSans-31"/>
       <use xlink:href="#DejaVuSans-2e" x="63.623047"/>
       <use xlink:href="#DejaVuSans-30" x="95.410156"/>
      </g>
     </g>
    </g>
    <g id="ytick_4">
     <g id="line2d_10">
      <g>
       <use xlink:href="#m18abdac929" x="63.2" y="259.464308" style="stroke: #000000; stroke-width: 0.8"/>
      </g>
     </g>
     <g id="text_4">
      <!-- 1.5 -->
      <g transform="translate(40.296875 263.263527)scale(0.1 -0.1)">
       <use xlink:href="#DejaVuSans-31"/>
       <use xlink:href="#DejaVuSans-2e" x="63.623047"/>
       <use xlink:href="#DejaVuSans-35" x="95.410156"/>
      </g>
     </g>
    </g>
    <g id="ytick_5">
     <g id="line2d_11">
      <g>
       <use xlink:href="#m18abdac929" x="63.2" y="213.491844" style="stroke: #000000; stroke-width: 0.8"/>
      </g>
     </g>
     <g id="text_5">
      <!-- 2.0 -->
      <g transform="translate(40.296875 217.291062)scale(0.1 -0.1)">
       <defs>
        <path id="DejaVuSans-32" d="M 1228 531 
L 3431 531 
L 3431 0 
L 469 0 
L 469 531 
Q 828 903 1448 1529 
Q 2069 2156 2228 2338 
Q 2531 2678 2651 2914 
Q 2772 3150 2772 3378 
Q 2772 3750 2511 3984 
Q 2250 4219 1831 4219 
Q 1534 4219 1204 4116 
Q 875 4013 500 3803 
L 500 4441 
Q 881 4594 1212 4672 
Q 1544 4750 1819 4750 
Q 2544 4750 2975 4387 
Q 3406 4025 3406 3419 
Q 3406 3131 3298 2873 
Q 3191 2616 2906 2266 
Q 2828 2175 2409 1742 
Q 1991 1309 1228 531 
z
" transform="scale(0.015625)"/>
       </defs>
       <use xlink:href="#DejaVuSans-32"/>
       <use xlink:href="#DejaVuSans-2e" x="63.623047"/>
       <use xlink:href="#DejaVuSans-30" x="95.410156"/>
      </g>
     </g>
    </g>
    <g id="ytick_6">
     <g id="line2d_12">
      <g>
       <use xlink:href="#m18abdac929" x="63.2" y="167.519379" style="stroke: #000000; stroke-width: 0.8"/>
      </g>
     </g>
     <g id="text_6">
      <!-- 2.5 -->
      <g transform="translate(40.296875 171.318598)scale(0.1 -0.1)">
       <use xlink:href="#DejaVuSans-32"/>
       <use xlink:href="#DejaVuSans-2e" x="63.623047"/>
       <use xlink:href="#DejaVuSans-35" x="95.410156"/>
      </g>
     </g>
    </g>
    <g id="ytick_7">
     <g id="line2d_13">
      <g>
       <use xlink:href="#m18abdac929" x="63.2" y="121.546914" style="stroke: #000000; stroke-width: 0.8"/>
      </g>
     </g>
     <g id="text_7">
      <!-- 3.0 -->
      <g transform="translate(40.296875 125.346133)scale(0.1 -0.1)">
       <defs>
        <path id="DejaVuSans-33" d="M 2597 2516 
Q 3050 2419 3304 2112 
Q 3559 1806 3559 1356 
Q 3559 666 3084 287 
Q 2609 -91 1734 -91 
Q 1441 -91 1130 -33 
Q 819 25 488 141 
L 488 750 
Q 750 597 1062 519 
Q 1375 441 1716 441 
Q 2309 441 2620 675 
Q 2931 909 2931 1356 
Q 2931 1769 2642 2001 
Q 2353 2234 1838 2234 
L 1294 2234 
L 1294 2753 
L 1863 2753 
Q 2328 2753 2575 2939 
Q 2822 3125 2822 3475 
Q 2822 3834 2567 4026 
Q 2313 4219 1838 4219 
Q 1578 4219 1281 4162 
Q 984 4106 628 3988 
L 628 4550 
Q 988 4650 1302 4700 
Q 1616 4750 1894 4750 
Q 2613 4750 3031 4423 
Q 3450 4097 3450 3541 
Q 3450 3153 3228 2886 
Q 3006 2619 2597 2516 
z
" transform="scale(0.015625)"/>
       </defs>
       <use xlink:href="#DejaVuSans-33"/>
       <use xlink:href="#DejaVuSans-2e" x="63.623047"/>
       <use xlink:href="#DejaVuSans-30" x="95.410156"/>
      </g>
     </g>
    </g>
    <g id="ytick_8">
     <g id="line2d_14">
      <g>
       <use xlink:href="#m18abdac929" x="63.2" y="75.57445" style="stroke: #000000; stroke-width: 0.8"/>
      </g>
     </g>
     <g id="text_8">
      <!-- 3.5 -->
      <g transform="translate(40.296875 79.373669)scale(0.1 -0.1)">
       <use xlink:href="#DejaVuSans-33"/>
       <use xlink:href="#DejaVuSans-2e" x="63.623047"/>
       <use xlink:href="#DejaVuSans-35" x="95.410156"/>
      </g>
     </g>
    </g>
    <g id="ytick_9">
     <g id="line2d_15">
      <g>
       <use xlink:href="#m18abdac929" x="63.2" y="29.601985" style="stroke: #000000; stroke-width: 0.8"/>
      </g>
     </g>
     <g id="text_9">
      <!-- 4.0 -->
      <g transform="translate(40.296875 33.401204)scale(0.1 -0.1)">
       <defs>
        <path id="DejaVuSans-34" d="M 2419 4116 
L 825 1625 
L 2419 1625 
L 2419 4116 
z
M 2253 4666 
L 3047 4666 
L 3047 1625 
L 3713 1625 
L 3713 1100 
L 3047 1100 
L 3047 0 
L 2419 0 
L 2419 1100 
L 313 1100 
L 313 1709 
L 2253 4666 
z
" transform="scale(0.015625)"/>
       </defs>
       <use xlink:href="#DejaVuSans-34"/>
       <use xlink:href="#DejaVuSans-2e" x="63.623047"/>
       <use xlink:href="#DejaVuSans-30" x="95.410156"/>
      </g>
     </g>
    </g>
    <g id="text_10">
     <!-- Cumulative $\rm\Delta G_{\lambda}$ -->
     <g transform="translate(23.019375 252.995177)rotate(-90)scale(0.1 -0.1)">
      <defs>
       <path id="DejaVuSans-43" d="M 4122 4306 
L 4122 3641 
Q 3803 3938 3442 4084 
Q 3081 4231 2675 4231 
Q 1875 4231 1450 3742 
Q 1025 3253 1025 2328 
Q 1025 1406 1450 917 
Q 1875 428 2675 428 
Q 3081 428 3442 575 
Q 3803 722 4122 1019 
L 4122 359 
Q 3791 134 3420 21 
Q 3050 -91 2638 -91 
Q 1578 -91 968 557 
Q 359 1206 359 2328 
Q 359 3453 968 4101 
Q 1578 4750 2638 4750 
Q 3056 4750 3426 4639 
Q 3797 4528 4122 4306 
z
" transform="scale(0.015625)"/>
       <path id="DejaVuSans-75" d="M 544 1381 
L 544 3500 
L 1119 3500 
L 1119 1403 
Q 1119 906 1312 657 
Q 1506 409 1894 409 
Q 2359 409 2629 706 
Q 2900 1003 2900 1516 
L 2900 3500 
L 3475 3500 
L 3475 0 
L 2900 0 
L 2900 538 
Q 2691 219 2414 64 
Q 2138 -91 1772 -91 
Q 1169 -91 856 284 
Q 544 659 544 1381 
z
M 1991 3584 
L 1991 3584 
z
" transform="scale(0.015625)"/>
       <path id="DejaVuSans-6d" d="M 3328 2828 
Q 3544 3216 3844 3400 
Q 4144 3584 4550 3584 
Q 5097 3584 5394 3201 
Q 5691 2819 5691 2113 
L 5691 0 
L 5113 0 
L 5113 2094 
Q 5113 2597 4934 2840 
Q 4756 3084 4391 3084 
Q 3944 3084 3684 2787 
Q 3425 2491 3425 1978 
L 3425 0 
L 2847 0 
L 2847 2094 
Q 2847 2600 2669 2842 
Q 2491 3084 2119 3084 
Q 1678 3084 1418 2786 
Q 1159 2488 1159 1978 
L 1159 0 
L 581 0 
L 581 3500 
L 1159 3500 
L 1159 2956 
Q 1356 3278 1631 3431 
Q 1906 3584 2284 3584 
Q 2666 3584 2933 3390 
Q 3200 3197 3328 2828 
z
" transform="scale(0.015625)"/>
       <path id="DejaVuSans-6c" d="M 603 4863 
L 1178 4863 
L 1178 0 
L 603 0 
L 603 4863 
z
" transform="scale(0.015625)"/>
       <path id="DejaVuSans-61" d="M 2194 1759 
Q 1497 1759 1228 1600 
Q 959 1441 959 1056 
Q 959 750 1161 570 
Q 1363 391 1709 391 
Q 2188 391 2477 730 
Q 2766 1069 2766 1631 
L 2766 1759 
L 2194 1759 
z
M 3341 1997 
L 3341 0 
L 2766 0 
L 2766 531 
Q 2569 213 2275 61 
Q 1981 -91 1556 -91 
Q 1019 -91 701 211 
Q 384 513 384 1019 
Q 384 1609 779 1909 
Q 1175 2209 1959 2209 
L 2766 2209 
L 2766 2266 
Q 2766 2663 2505 2880 
Q 2244 3097 1772 3097 
Q 1472 3097 1187 3025 
Q 903 2953 641 2809 
L 641 3341 
Q 956 3463 1253 3523 
Q 1550 3584 1831 3584 
Q 2591 3584 2966 3190 
Q 3341 2797 3341 1997 
z
" transform="scale(0.015625)"/>
       <path id="DejaVuSans-74" d="M 1172 4494 
L 1172 3500 
L 2356 3500 
L 2356 3053 
L 1172 3053 
L 1172 1153 
Q 1172 725 1289 603 
Q 1406 481 1766 481 
L 2356 481 
L 2356 0 
L 1766 0 
Q 1100 0 847 248 
Q 594 497 594 1153 
L 594 3053 
L 172 3053 
L 172 3500 
L 594 3500 
L 594 4494 
L 1172 4494 
z
" transform="scale(0.015625)"/>
       <path id="DejaVuSans-69" d="M 603 3500 
L 1178 3500 
L 1178 0 
L 603 0 
L 603 3500 
z
M 603 4863 
L 1178 4863 
L 1178 4134 
L 603 4134 
L 603 4863 
z
" transform="scale(0.015625)"/>
       <path id="DejaVuSans-76" d="M 191 3500 
L 800 3500 
L 1894 563 
L 2988 3500 
L 3597 3500 
L 2284 0 
L 1503 0 
L 191 3500 
z
" transform="scale(0.015625)"/>
       <path id="DejaVuSans-65" d="M 3597 1894 
L 3597 1613 
L 953 1613 
Q 991 1019 1311 708 
Q 1631 397 2203 397 
Q 2534 397 2845 478 
Q 3156 559 3463 722 
L 3463 178 
Q 3153 47 2828 -22 
Q 2503 -91 2169 -91 
Q 1331 -91 842 396 
Q 353 884 353 1716 
Q 353 2575 817 3079 
Q 1281 3584 2069 3584 
Q 2775 3584 3186 3129 
Q 3597 2675 3597 1894 
z
M 3022 2063 
Q 3016 2534 2758 2815 
Q 2500 3097 2075 3097 
Q 1594 3097 1305 2825 
Q 1016 2553 972 2059 
L 3022 2063 
z
" transform="scale(0.015625)"/>
       <path id="DejaVuSans-20" transform="scale(0.015625)"/>
       <path id="DejaVuSans-394" d="M 2188 4044 
L 906 525 
L 3472 525 
L 2188 4044 
z
M 50 0 
L 1831 4666 
L 2547 4666 
L 4325 0 
L 50 0 
z
" transform="scale(0.015625)"/>
       <path id="DejaVuSans-47" d="M 3809 666 
L 3809 1919 
L 2778 1919 
L 2778 2438 
L 4434 2438 
L 4434 434 
Q 4069 175 3628 42 
Q 3188 -91 2688 -91 
Q 1594 -91 976 548 
Q 359 1188 359 2328 
Q 359 3472 976 4111 
Q 1594 4750 2688 4750 
Q 3144 4750 3555 4637 
Q 3966 4525 4313 4306 
L 4313 3634 
Q 3963 3931 3569 4081 
Q 3175 4231 2741 4231 
Q 1884 4231 1454 3753 
Q 1025 3275 1025 2328 
Q 1025 1384 1454 906 
Q 1884 428 2741 428 
Q 3075 428 3337 486 
Q 3600 544 3809 666 
z
" transform="scale(0.015625)"/>
       <path id="DejaVuSans-3bb" d="M 1981 4316 
L 3597 0 
L 2988 0 
L 2006 2588 
L 800 0 
L 191 0 
L 1725 3356 
L 1494 3975 
Q 1347 4369 1013 4369 
L 713 4369 
L 713 4863 
L 1078 4856 
Q 1784 4847 1981 4316 
z
" transform="scale(0.015625)"/>
      </defs>
      <use xlink:href="#DejaVuSans-43" transform="translate(0 0.015625)"/>
      <use xlink:href="#DejaVuSans-75" transform="translate(69.824219 0.015625)"/>
      <use xlink:href="#DejaVuSans-6d" transform="translate(133.203125 0.015625)"/>
      <use xlink:href="#DejaVuSans-75" transform="translate(230.615234 0.015625)"/>
      <use xlink:href="#DejaVuSans-6c" transform="translate(293.994141 0.015625)"/>
      <use xlink:href="#DejaVuSans-61" transform="translate(321.777344 0.015625)"/>
      <use xlink:href="#DejaVuSans-74" transform="translate(383.056641 0.015625)"/>
      <use xlink:href="#DejaVuSans-69" transform="translate(422.265625 0.015625)"/>
      <use xlink:href="#DejaVuSans-76" transform="translate(450.048828 0.015625)"/>
      <use xlink:href="#DejaVuSans-65" transform="translate(509.228516 0.015625)"/>
      <use xlink:href="#DejaVuSans-20" transform="translate(570.751953 0.015625)"/>
      <use xlink:href="#DejaVuSans-394" transform="translate(602.539062 0.015625)"/>
      <use xlink:href="#DejaVuSans-47" transform="translate(670.947266 0.015625)"/>
      <use xlink:href="#DejaVuSans-3bb" transform="translate(749.394531 -16.390625)scale(0.7)"/>
     </g>
     <!-- (kcal/mol) -->
     <g transform="translate(34.217188 238.297521)rotate(-90)scale(0.1 -0.1)">
      <defs>
       <path id="DejaVuSans-28" d="M 1984 4856 
Q 1566 4138 1362 3434 
Q 1159 2731 1159 2009 
Q 1159 1288 1364 580 
Q 1569 -128 1984 -844 
L 1484 -844 
Q 1016 -109 783 600 
Q 550 1309 550 2009 
Q 550 2706 781 3412 
Q 1013 4119 1484 4856 
L 1984 4856 
z
" transform="scale(0.015625)"/>
       <path id="DejaVuSans-6b" d="M 581 4863 
L 1159 4863 
L 1159 1991 
L 2875 3500 
L 3609 3500 
L 1753 1863 
L 3688 0 
L 2938 0 
L 1159 1709 
L 1159 0 
L 581 0 
L 581 4863 
z
" transform="scale(0.015625)"/>
       <path id="DejaVuSans-63" d="M 3122 3366 
L 3122 2828 
Q 2878 2963 2633 3030 
Q 2388 3097 2138 3097 
Q 1578 3097 1268 2742 
Q 959 2388 959 1747 
Q 959 1106 1268 751 
Q 1578 397 2138 397 
Q 2388 397 2633 464 
Q 2878 531 3122 666 
L 3122 134 
Q 2881 22 2623 -34 
Q 2366 -91 2075 -91 
Q 1284 -91 818 406 
Q 353 903 353 1747 
Q 353 2603 823 3093 
Q 1294 3584 2113 3584 
Q 2378 3584 2631 3529 
Q 2884 3475 3122 3366 
z
" transform="scale(0.015625)"/>
       <path id="DejaVuSans-2f" d="M 1625 4666 
L 2156 4666 
L 531 -594 
L 0 -594 
L 1625 4666 
z
" transform="scale(0.015625)"/>
       <path id="DejaVuSans-6f" d="M 1959 3097 
Q 1497 3097 1228 2736 
Q 959 2375 959 1747 
Q 959 1119 1226 758 
Q 1494 397 1959 397 
Q 2419 397 2687 759 
Q 2956 1122 2956 1747 
Q 2956 2369 2687 2733 
Q 2419 3097 1959 3097 
z
M 1959 3584 
Q 2709 3584 3137 3096 
Q 3566 2609 3566 1747 
Q 3566 888 3137 398 
Q 2709 -91 1959 -91 
Q 1206 -91 779 398 
Q 353 888 353 1747 
Q 353 2609 779 3096 
Q 1206 3584 1959 3584 
z
" transform="scale(0.015625)"/>
       <path id="DejaVuSans-29" d="M 513 4856 
L 1013 4856 
Q 1481 4119 1714 3412 
Q 1947 2706 1947 2009 
Q 1947 1309 1714 600 
Q 1481 -109 1013 -844 
L 513 -844 
Q 928 -128 1133 580 
Q 1338 1288 1338 2009 
Q 1338 2731 1133 3434 
Q 928 4138 513 4856 
z
" transform="scale(0.015625)"/>
      </defs>
      <use xlink:href="#DejaVuSans-28"/>
      <use xlink:href="#DejaVuSans-6b" x="39.013672"/>
      <use xlink:href="#DejaVuSans-63" x="96.923828"/>
      <use xlink:href="#DejaVuSans-61" x="151.904297"/>
      <use xlink:href="#DejaVuSans-6c" x="213.183594"/>
      <use xlink:href="#DejaVuSans-2f" x="240.966797"/>
      <use xlink:href="#DejaVuSans-6d" x="274.658203"/>
      <use xlink:href="#DejaVuSans-6f" x="372.070312"/>
      <use xlink:href="#DejaVuSans-6c" x="433.251953"/>
      <use xlink:href="#DejaVuSans-29" x="461.035156"/>
     </g>
    </g>
   </g>
   <g id="LineCollection_1">
    <path d="M 86.018182 397.381702 
L 86.018182 397.381702 
" clip-path="url(#p59dc8740cd)" style="fill: none; stroke: #0072b2"/>
    <path d="M 97.427273 397.381569 
L 97.427273 397.381443 
" clip-path="url(#p59dc8740cd)" style="fill: none; stroke: #0072b2"/>
    <path d="M 108.836364 397.377303 
L 108.836364 397.373917 
" clip-path="url(#p59dc8740cd)" style="fill: none; stroke: #0072b2"/>
    <path d="M 120.245455 397.339454 
L 120.245455 397.316703 
" clip-path="url(#p59dc8740cd)" style="fill: none; stroke: #0072b2"/>
    <path d="M 131.654545 397.20157 
L 131.654545 397.112602 
" clip-path="url(#p59dc8740cd)" style="fill: none; stroke: #0072b2"/>
    <path d="M 143.063636 396.665139 
L 143.063636 396.42812 
" clip-path="url(#p59dc8740cd)" style="fill: none; stroke: #0072b2"/>
    <path d="M 154.472727 395.363192 
L 154.472727 394.800679 
" clip-path="url(#p59dc8740cd)" style="fill: none; stroke: #0072b2"/>
    <path d="M 165.881818 392.553841 
L 165.881818 391.41225 
" clip-path="url(#p59dc8740cd)" style="fill: none; stroke: #0072b2"/>
    <path d="M 177.290909 387.581504 
L 177.290909 385.308389 
" clip-path="url(#p59dc8740cd)" style="fill: none; stroke: #0072b2"/>
    <path d="M 188.7 378.55276 
L 188.7 374.433178 
" clip-path="url(#p59dc8740cd)" style="fill: none; stroke: #0072b2"/>
    <path d="M 200.109091 363.822303 
L 200.109091 356.997737 
" clip-path="url(#p59dc8740cd)" style="fill: none; stroke: #0072b2"/>
    <path d="M 211.518182 344.227692 
L 211.518182 333.806639 
" clip-path="url(#p59dc8740cd)" style="fill: none; stroke: #0072b2"/>
    <path d="M 222.927273 320.258376 
L 222.927273 305.709819 
" clip-path="url(#p59dc8740cd)" style="fill: none; stroke: #0072b2"/>
    <path d="M 234.336364 295.844619 
L 234.336364 277.40301 
" clip-path="url(#p59dc8740cd)" style="fill: none; stroke: #0072b2"/>
    <path d="M 245.745455 270.041306 
L 245.745455 247.956553 
" clip-path="url(#p59dc8740cd)" style="fill: none; stroke: #0072b2"/>
    <path d="M 257.154545 243.507152 
L 257.154545 219.212691 
" clip-path="url(#p59dc8740cd)" style="fill: none; stroke: #0072b2"/>
    <path d="M 268.563636 219.418292 
L 268.563636 193.385477 
" clip-path="url(#p59dc8740cd)" style="fill: none; stroke: #0072b2"/>
    <path d="M 279.972727 197.148982 
L 279.972727 169.759569 
" clip-path="url(#p59dc8740cd)" style="fill: none; stroke: #0072b2"/>
    <path d="M 291.381818 179.620546 
L 291.381818 151.616747 
" clip-path="url(#p59dc8740cd)" style="fill: none; stroke: #0072b2"/>
    <path d="M 302.790909 162.78905 
L 302.790909 134.06917 
" clip-path="url(#p59dc8740cd)" style="fill: none; stroke: #0072b2"/>
    <path d="M 314.2 148.042365 
L 314.2 118.943479 
" clip-path="url(#p59dc8740cd)" style="fill: none; stroke: #0072b2"/>
    <path d="M 325.609091 135.041597 
L 325.609091 105.824586 
" clip-path="url(#p59dc8740cd)" style="fill: none; stroke: #0072b2"/>
    <path d="M 337.018182 125.268576 
L 337.018182 96.182058 
" clip-path="url(#p59dc8740cd)" style="fill: none; stroke: #0072b2"/>
    <path d="M 348.427273 115.617767 
L 348.427273 86.535772 
" clip-path="url(#p59dc8740cd)" style="fill: none; stroke: #0072b2"/>
    <path d="M 359.836364 107.054738 
L 359.836364 78.098221 
" clip-path="url(#p59dc8740cd)" style="fill: none; stroke: #0072b2"/>
    <path d="M 371.245455 99.688183 
L 371.245455 70.914018 
" clip-path="url(#p59dc8740cd)" style="fill: none; stroke: #0072b2"/>
    <path d="M 382.654545 93.464331 
L 382.654545 64.942677 
" clip-path="url(#p59dc8740cd)" style="fill: none; stroke: #0072b2"/>
    <path d="M 394.063636 87.952965 
L 394.063636 59.705956 
" clip-path="url(#p59dc8740cd)" style="fill: none; stroke: #0072b2"/>
    <path d="M 405.472727 82.702056 
L 405.472727 54.723894 
" clip-path="url(#p59dc8740cd)" style="fill: none; stroke: #0072b2"/>
    <path d="M 416.881818 78.765997 
L 416.881818 51.105284 
" clip-path="url(#p59dc8740cd)" style="fill: none; stroke: #0072b2"/>
    <path d="M 428.290909 75.183042 
L 428.290909 47.852214 
" clip-path="url(#p59dc8740cd)" style="fill: none; stroke: #0072b2"/>
    <path d="M 439.7 72.021637 
L 439.7 45.007761 
" clip-path="url(#p59dc8740cd)" style="fill: none; stroke: #0072b2"/>
    <path d="M 451.109091 68.921108 
L 451.109091 42.213899 
" clip-path="url(#p59dc8740cd)" style="fill: none; stroke: #0072b2"/>
    <path d="M 462.518182 66.230255 
L 462.518182 39.832365 
" clip-path="url(#p59dc8740cd)" style="fill: none; stroke: #0072b2"/>
    <path d="M 473.927273 64.089783 
L 473.927273 38.018247 
" clip-path="url(#p59dc8740cd)" style="fill: none; stroke: #0072b2"/>
    <path d="M 485.336364 62.052172 
L 485.336364 36.291767 
" clip-path="url(#p59dc8740cd)" style="fill: none; stroke: #0072b2"/>
    <path d="M 496.745455 59.938292 
L 496.745455 34.468746 
" clip-path="url(#p59dc8740cd)" style="fill: none; stroke: #0072b2"/>
    <path d="M 508.154545 58.028301 
L 508.154545 32.847856 
" clip-path="url(#p59dc8740cd)" style="fill: none; stroke: #0072b2"/>
    <path d="M 519.563636 56.473003 
L 519.563636 31.580181 
" clip-path="url(#p59dc8740cd)" style="fill: none; stroke: #0072b2"/>
    <path d="M 530.972727 54.900431 
L 530.972727 30.279616 
" clip-path="url(#p59dc8740cd)" style="fill: none; stroke: #0072b2"/>
    <path d="M 542.381818 53.556147 
L 542.381818 29.208652 
" clip-path="url(#p59dc8740cd)" style="fill: none; stroke: #0072b2"/>
   </g>
   <g id="line2d_16">
    <path d="M 63.2 41.3824 
L 565.2 41.3824 
" clip-path="url(#p59dc8740cd)" style="fill: none; stroke: #808080; stroke-width: 1.5; stroke-linecap: square"/>
   </g>
   <g id="line2d_17">
    <path d="M 86.018182 397.381702 
L 97.427273 397.381506 
L 108.836364 397.37561 
L 120.245455 397.328079 
L 131.654545 397.157086 
L 143.063636 396.546629 
L 154.472727 395.081935 
L 165.881818 391.983046 
L 177.290909 386.444947 
L 188.7 376.492969 
L 200.109091 360.41002 
L 211.518182 339.017165 
L 222.927273 312.984098 
L 234.336364 286.623814 
L 245.745455 258.998929 
L 257.154545 231.359922 
L 268.563636 206.401884 
L 279.972727 183.454275 
L 291.381818 165.618647 
L 302.790909 148.42911 
L 314.2 133.492922 
L 325.609091 120.433091 
L 337.018182 110.725317 
L 348.427273 101.07677 
L 359.836364 92.57648 
L 371.245455 85.301101 
L 382.654545 79.203504 
L 394.063636 73.829461 
L 405.472727 68.712975 
L 416.881818 64.935641 
L 428.290909 61.517628 
L 439.7 58.514699 
L 451.109091 55.567503 
L 462.518182 53.03131 
L 473.927273 51.054015 
L 485.336364 49.171969 
L 496.745455 47.203519 
L 508.154545 45.438079 
L 519.563636 44.026592 
L 530.972727 42.590024 
L 542.381818 41.3824 
" clip-path="url(#p59dc8740cd)" style="fill: none; stroke: #0072b2; stroke-linecap: square"/>
   </g>
   <g id="patch_3">
    <path d="M 63.2 415.790354 
L 63.2 10.8 
" style="fill: none; stroke: #000000; stroke-width: 0.8; stroke-linejoin: miter; stroke-linecap: square"/>
   </g>
   <g id="patch_4">
    <path d="M 565.2 415.790354 
L 565.2 10.8 
" style="fill: none; stroke: #000000; stroke-width: 0.8; stroke-linejoin: miter; stroke-linecap: square"/>
   </g>
   <g id="patch_5">
    <path d="M 63.2 415.790354 
L 565.2 415.790354 
" style="fill: none; stroke: #000000; stroke-width: 0.8; stroke-linejoin: miter; stroke-linecap: square"/>
   </g>
   <g id="patch_6">
    <path d="M 63.2 10.8 
L 565.2 10.8 
" style="fill: none; stroke: #000000; stroke-width: 0.8; stroke-linejoin: miter; stroke-linecap: square"/>
   </g>
   <g id="legend_1">
    <g id="patch_7">
     <path d="M 427.659375 410.790354 
L 558.2 410.790354 
Q 560.2 410.790354 560.2 408.790354 
L 560.2 369.236292 
Q 560.2 367.236292 558.2 367.236292 
L 427.659375 367.236292 
Q 425.659375 367.236292 425.659375 369.236292 
L 425.659375 408.790354 
Q 425.659375 410.790354 427.659375 410.790354 
z
" style="fill: #ffffff; opacity: 0.8; stroke: #cccccc; stroke-linejoin: miter"/>
    </g>
    <g id="line2d_18">
     <path d="M 429.659375 381.973479 
L 439.659375 381.973479 
L 449.659375 381.973479 
" style="fill: none; stroke: #808080; stroke-width: 1.5; stroke-linecap: square"/>
    </g>
    <g id="text_11">
     <!-- Final Value: -->
     <g transform="translate(457.659375 378.834729)scale(0.1 -0.1)">
      <defs>
       <path id="DejaVuSans-46" d="M 628 4666 
L 3309 4666 
L 3309 4134 
L 1259 4134 
L 1259 2759 
L 3109 2759 
L 3109 2228 
L 1259 2228 
L 1259 0 
L 628 0 
L 628 4666 
z
" transform="scale(0.015625)"/>
       <path id="DejaVuSans-6e" d="M 3513 2113 
L 3513 0 
L 2938 0 
L 2938 2094 
Q 2938 2591 2744 2837 
Q 2550 3084 2163 3084 
Q 1697 3084 1428 2787 
Q 1159 2491 1159 1978 
L 1159 0 
L 581 0 
L 581 3500 
L 1159 3500 
L 1159 2956 
Q 1366 3272 1645 3428 
Q 1925 3584 2291 3584 
Q 2894 3584 3203 3211 
Q 3513 2838 3513 2113 
z
" transform="scale(0.015625)"/>
       <path id="DejaVuSans-56" d="M 1831 0 
L 50 4666 
L 709 4666 
L 2188 738 
L 3669 4666 
L 4325 4666 
L 2547 0 
L 1831 0 
z
" transform="scale(0.015625)"/>
       <path id="DejaVuSans-3a" d="M 750 794 
L 1409 794 
L 1409 0 
L 750 0 
L 750 794 
z
M 750 3309 
L 1409 3309 
L 1409 2516 
L 750 2516 
L 750 3309 
z
" transform="scale(0.015625)"/>
      </defs>
      <use xlink:href="#DejaVuSans-46"/>
      <use xlink:href="#DejaVuSans-69" x="50.269531"/>
      <use xlink:href="#DejaVuSans-6e" x="78.052734"/>
      <use xlink:href="#DejaVuSans-61" x="141.431641"/>
      <use xlink:href="#DejaVuSans-6c" x="202.710938"/>
      <use xlink:href="#DejaVuSans-20" x="230.494141"/>
      <use xlink:href="#DejaVuSans-56" x="262.28125"/>
      <use xlink:href="#DejaVuSans-61" x="322.939453"/>
      <use xlink:href="#DejaVuSans-6c" x="384.21875"/>
      <use xlink:href="#DejaVuSans-75" x="412.001953"/>
      <use xlink:href="#DejaVuSans-65" x="475.380859"/>
      <use xlink:href="#DejaVuSans-3a" x="536.904297"/>
     </g>
     <!-- 3.9kcal/mol -->
     <g transform="translate(457.659375 390.032542)scale(0.1 -0.1)">
      <defs>
       <path id="DejaVuSans-39" d="M 703 97 
L 703 672 
Q 941 559 1184 500 
Q 1428 441 1663 441 
Q 2288 441 2617 861 
Q 2947 1281 2994 2138 
Q 2813 1869 2534 1725 
Q 2256 1581 1919 1581 
Q 1219 1581 811 2004 
Q 403 2428 403 3163 
Q 403 3881 828 4315 
Q 1253 4750 1959 4750 
Q 2769 4750 3195 4129 
Q 3622 3509 3622 2328 
Q 3622 1225 3098 567 
Q 2575 -91 1691 -91 
Q 1453 -91 1209 -44 
Q 966 3 703 97 
z
M 1959 2075 
Q 2384 2075 2632 2365 
Q 2881 2656 2881 3163 
Q 2881 3666 2632 3958 
Q 2384 4250 1959 4250 
Q 1534 4250 1286 3958 
Q 1038 3666 1038 3163 
Q 1038 2656 1286 2365 
Q 1534 2075 1959 2075 
z
" transform="scale(0.015625)"/>
      </defs>
      <use xlink:href="#DejaVuSans-33"/>
      <use xlink:href="#DejaVuSans-2e" x="63.623047"/>
      <use xlink:href="#DejaVuSans-39" x="95.410156"/>
      <use xlink:href="#DejaVuSans-6b" x="159.033203"/>
      <use xlink:href="#DejaVuSans-63" x="216.943359"/>
      <use xlink:href="#DejaVuSans-61" x="271.923828"/>
      <use xlink:href="#DejaVuSans-6c" x="333.203125"/>
      <use xlink:href="#DejaVuSans-2f" x="360.986328"/>
      <use xlink:href="#DejaVuSans-6d" x="394.677734"/>
      <use xlink:href="#DejaVuSans-6f" x="492.089844"/>
      <use xlink:href="#DejaVuSans-6c" x="553.271484"/>
     </g>
    </g>
    <g id="LineCollection_2">
     <path d="M 439.659375 406.210667 
L 439.659375 396.210667 
" style="fill: none; stroke: #0072b2"/>
    </g>
    <g id="line2d_19">
     <path d="M 429.659375 401.210667 
L 449.659375 401.210667 
" style="fill: none; stroke: #0072b2; stroke-linecap: square"/>
    </g>
    <g id="line2d_20"/>
    <g id="text_12">
     <!-- Cumulative Change -->
     <g transform="translate(457.659375 404.710667)scale(0.1 -0.1)">
      <defs>
       <path id="DejaVuSans-68" d="M 3513 2113 
L 3513 0 
L 2938 0 
L 2938 2094 
Q 2938 2591 2744 2837 
Q 2550 3084 2163 3084 
Q 1697 3084 1428 2787 
Q 1159 2491 1159 1978 
L 1159 0 
L 581 0 
L 581 4863 
L 1159 4863 
L 1159 2956 
Q 1366 3272 1645 3428 
Q 1925 3584 2291 3584 
Q 2894 3584 3203 3211 
Q 3513 2838 3513 2113 
z
" transform="scale(0.015625)"/>
       <path id="DejaVuSans-67" d="M 2906 1791 
Q 2906 2416 2648 2759 
Q 2391 3103 1925 3103 
Q 1463 3103 1205 2759 
Q 947 2416 947 1791 
Q 947 1169 1205 825 
Q 1463 481 1925 481 
Q 2391 481 2648 825 
Q 2906 1169 2906 1791 
z
M 3481 434 
Q 3481 -459 3084 -895 
Q 2688 -1331 1869 -1331 
Q 1566 -1331 1297 -1286 
Q 1028 -1241 775 -1147 
L 775 -588 
Q 1028 -725 1275 -790 
Q 1522 -856 1778 -856 
Q 2344 -856 2625 -561 
Q 2906 -266 2906 331 
L 2906 616 
Q 2728 306 2450 153 
Q 2172 0 1784 0 
Q 1141 0 747 490 
Q 353 981 353 1791 
Q 353 2603 747 3093 
Q 1141 3584 1784 3584 
Q 2172 3584 2450 3431 
Q 2728 3278 2906 2969 
L 2906 3500 
L 3481 3500 
L 3481 434 
z
" transform="scale(0.015625)"/>
      </defs>
      <use xlink:href="#DejaVuSans-43"/>
      <use xlink:href="#DejaVuSans-75" x="69.824219"/>
      <use xlink:href="#DejaVuSans-6d" x="133.203125"/>
      <use xlink:href="#DejaVuSans-75" x="230.615234"/>
      <use xlink:href="#DejaVuSans-6c" x="293.994141"/>
      <use xlink:href="#DejaVuSans-61" x="321.777344"/>
      <use xlink:href="#DejaVuSans-74" x="383.056641"/>
      <use xlink:href="#DejaVuSans-69" x="422.265625"/>
      <use xlink:href="#DejaVuSans-76" x="450.048828"/>
      <use xlink:href="#DejaVuSans-65" x="509.228516"/>
      <use xlink:href="#DejaVuSans-20" x="570.751953"/>
      <use xlink:href="#DejaVuSans-43" x="602.539062"/>
      <use xlink:href="#DejaVuSans-68" x="672.363281"/>
      <use xlink:href="#DejaVuSans-61" x="735.742188"/>
      <use xlink:href="#DejaVuSans-6e" x="797.021484"/>
      <use xlink:href="#DejaVuSans-67" x="860.400391"/>
      <use xlink:href="#DejaVuSans-65" x="923.876953"/>
     </g>
    </g>
   </g>
  </g>
  <g id="axes_2">
   <g id="patch_8">
    <path d="M 63.2 836.2 
L 565.2 836.2 
L 565.2 431.209646 
L 63.2 431.209646 
z
" style="fill: #ffffff"/>
   </g>
   <g id="matplotlib.axis_3">
    <g id="xtick_7">
     <g id="line2d_21">
      <g>
       <use xlink:href="#m5692fa87e3" x="86.018182" y="836.2" style="stroke: #000000; stroke-width: 0.8"/>
      </g>
     </g>
     <g id="text_13">
      <!-- 0.0 -->
      <g transform="translate(78.066619 850.798438)scale(0.1 -0.1)">
       <use xlink:href="#DejaVuSans-30"/>
       <use xlink:href="#DejaVuSans-2e" x="63.623047"/>
       <use xlink:href="#DejaVuSans-30" x="95.410156"/>
      </g>
     </g>
    </g>
    <g id="xtick_8">
     <g id="line2d_22">
      <g>
       <use xlink:href="#m5692fa87e3" x="177.290909" y="836.2" style="stroke: #000000; stroke-width: 0.8"/>
      </g>
     </g>
     <g id="text_14">
      <!-- 0.2 -->
      <g transform="translate(169.339347 850.798438)scale(0.1 -0.1)">
       <use xlink:href="#DejaVuSans-30"/>
       <use xlink:href="#DejaVuSans-2e" x="63.623047"/>
       <use xlink:href="#DejaVuSans-32" x="95.410156"/>
      </g>
     </g>
    </g>
    <g id="xtick_9">
     <g id="line2d_23">
      <g>
       <use xlink:href="#m5692fa87e3" x="268.563636" y="836.2" style="stroke: #000000; stroke-width: 0.8"/>
      </g>
     </g>
     <g id="text_15">
      <!-- 0.4 -->
      <g transform="translate(260.612074 850.798438)scale(0.1 -0.1)">
       <use xlink:href="#DejaVuSans-30"/>
       <use xlink:href="#DejaVuSans-2e" x="63.623047"/>
       <use xlink:href="#DejaVuSans-34" x="95.410156"/>
      </g>
     </g>
    </g>
    <g id="xtick_10">
     <g id="line2d_24">
      <g>
       <use xlink:href="#m5692fa87e3" x="359.836364" y="836.2" style="stroke: #000000; stroke-width: 0.8"/>
      </g>
     </g>
     <g id="text_16">
      <!-- 0.6 -->
      <g transform="translate(351.884801 850.798438)scale(0.1 -0.1)">
       <defs>
        <path id="DejaVuSans-36" d="M 2113 2584 
Q 1688 2584 1439 2293 
Q 1191 2003 1191 1497 
Q 1191 994 1439 701 
Q 1688 409 2113 409 
Q 2538 409 2786 701 
Q 3034 994 3034 1497 
Q 3034 2003 2786 2293 
Q 2538 2584 2113 2584 
z
M 3366 4563 
L 3366 3988 
Q 3128 4100 2886 4159 
Q 2644 4219 2406 4219 
Q 1781 4219 1451 3797 
Q 1122 3375 1075 2522 
Q 1259 2794 1537 2939 
Q 1816 3084 2150 3084 
Q 2853 3084 3261 2657 
Q 3669 2231 3669 1497 
Q 3669 778 3244 343 
Q 2819 -91 2113 -91 
Q 1303 -91 875 529 
Q 447 1150 447 2328 
Q 447 3434 972 4092 
Q 1497 4750 2381 4750 
Q 2619 4750 2861 4703 
Q 3103 4656 3366 4563 
z
" transform="scale(0.015625)"/>
       </defs>
       <use xlink:href="#DejaVuSans-30"/>
       <use xlink:href="#DejaVuSans-2e" x="63.623047"/>
       <use xlink:href="#DejaVuSans-36" x="95.410156"/>
      </g>
     </g>
    </g>
    <g id="xtick_11">
     <g id="line2d_25">
      <g>
       <use xlink:href="#m5692fa87e3" x="451.109091" y="836.2" style="stroke: #000000; stroke-width: 0.8"/>
      </g>
     </g>
     <g id="text_17">
      <!-- 0.8 -->
      <g transform="translate(443.157528 850.798438)scale(0.1 -0.1)">
       <defs>
        <path id="DejaVuSans-38" d="M 2034 2216 
Q 1584 2216 1326 1975 
Q 1069 1734 1069 1313 
Q 1069 891 1326 650 
Q 1584 409 2034 409 
Q 2484 409 2743 651 
Q 3003 894 3003 1313 
Q 3003 1734 2745 1975 
Q 2488 2216 2034 2216 
z
M 1403 2484 
Q 997 2584 770 2862 
Q 544 3141 544 3541 
Q 544 4100 942 4425 
Q 1341 4750 2034 4750 
Q 2731 4750 3128 4425 
Q 3525 4100 3525 3541 
Q 3525 3141 3298 2862 
Q 3072 2584 2669 2484 
Q 3125 2378 3379 2068 
Q 3634 1759 3634 1313 
Q 3634 634 3220 271 
Q 2806 -91 2034 -91 
Q 1263 -91 848 271 
Q 434 634 434 1313 
Q 434 1759 690 2068 
Q 947 2378 1403 2484 
z
M 1172 3481 
Q 1172 3119 1398 2916 
Q 1625 2713 2034 2713 
Q 2441 2713 2670 2916 
Q 2900 3119 2900 3481 
Q 2900 3844 2670 4047 
Q 2441 4250 2034 4250 
Q 1625 4250 1398 4047 
Q 1172 3844 1172 3481 
z
" transform="scale(0.015625)"/>
       </defs>
       <use xlink:href="#DejaVuSans-30"/>
       <use xlink:href="#DejaVuSans-2e" x="63.623047"/>
       <use xlink:href="#DejaVuSans-38" x="95.410156"/>
      </g>
     </g>
    </g>
    <g id="xtick_12">
     <g id="line2d_26">
      <g>
       <use xlink:href="#m5692fa87e3" x="542.381818" y="836.2" style="stroke: #000000; stroke-width: 0.8"/>
      </g>
     </g>
     <g id="text_18">
      <!-- 1.0 -->
      <g transform="translate(534.430256 850.798438)scale(0.1 -0.1)">
       <use xlink:href="#DejaVuSans-31"/>
       <use xlink:href="#DejaVuSans-2e" x="63.623047"/>
       <use xlink:href="#DejaVuSans-30" x="95.410156"/>
      </g>
     </g>
    </g>
   </g>
   <g id="matplotlib.axis_4">
    <g id="ytick_10">
     <g id="line2d_27">
      <g>
       <use xlink:href="#m18abdac929" x="63.2" y="786.92605" style="stroke: #000000; stroke-width: 0.8"/>
      </g>
     </g>
     <g id="text_19">
      <!-- 0.0 -->
      <g transform="translate(40.296875 790.725268)scale(0.1 -0.1)">
       <use xlink:href="#DejaVuSans-30"/>
       <use xlink:href="#DejaVuSans-2e" x="63.623047"/>
       <use xlink:href="#DejaVuSans-30" x="95.410156"/>
      </g>
     </g>
    </g>
    <g id="ytick_11">
     <g id="line2d_28">
      <g>
       <use xlink:href="#m18abdac929" x="63.2" y="728.295757" style="stroke: #000000; stroke-width: 0.8"/>
      </g>
     </g>
     <g id="text_20">
      <!-- 0.1 -->
      <g transform="translate(40.296875 732.094976)scale(0.1 -0.1)">
       <use xlink:href="#DejaVuSans-30"/>
       <use xlink:href="#DejaVuSans-2e" x="63.623047"/>
       <use xlink:href="#DejaVuSans-31" x="95.410156"/>
      </g>
     </g>
    </g>
    <g id="ytick_12">
     <g id="line2d_29">
      <g>
       <use xlink:href="#m18abdac929" x="63.2" y="669.665465" style="stroke: #000000; stroke-width: 0.8"/>
      </g>
     </g>
     <g id="text_21">
      <!-- 0.2 -->
      <g transform="translate(40.296875 673.464684)scale(0.1 -0.1)">
       <use xlink:href="#DejaVuSans-30"/>
       <use xlink:href="#DejaVuSans-2e" x="63.623047"/>
       <use xlink:href="#DejaVuSans-32" x="95.410156"/>
      </g>
     </g>
    </g>
    <g id="ytick_13">
     <g id="line2d_30">
      <g>
       <use xlink:href="#m18abdac929" x="63.2" y="611.035172" style="stroke: #000000; stroke-width: 0.8"/>
      </g>
     </g>
     <g id="text_22">
      <!-- 0.3 -->
      <g transform="translate(40.296875 614.834391)scale(0.1 -0.1)">
       <use xlink:href="#DejaVuSans-30"/>
       <use xlink:href="#DejaVuSans-2e" x="63.623047"/>
       <use xlink:href="#DejaVuSans-33" x="95.410156"/>
      </g>
     </g>
    </g>
    <g id="ytick_14">
     <g id="line2d_31">
      <g>
       <use xlink:href="#m18abdac929" x="63.2" y="552.40488" style="stroke: #000000; stroke-width: 0.8"/>
      </g>
     </g>
     <g id="text_23">
      <!-- 0.4 -->
      <g transform="translate(40.296875 556.204099)scale(0.1 -0.1)">
       <use xlink:href="#DejaVuSans-30"/>
       <use xlink:href="#DejaVuSans-2e" x="63.623047"/>
       <use xlink:href="#DejaVuSans-34" x="95.410156"/>
      </g>
     </g>
    </g>
    <g id="ytick_15">
     <g id="line2d_32">
      <g>
       <use xlink:href="#m18abdac929" x="63.2" y="493.774587" style="stroke: #000000; stroke-width: 0.8"/>
      </g>
     </g>
     <g id="text_24">
      <!-- 0.5 -->
      <g transform="translate(40.296875 497.573806)scale(0.1 -0.1)">
       <use xlink:href="#DejaVuSans-30"/>
       <use xlink:href="#DejaVuSans-2e" x="63.623047"/>
       <use xlink:href="#DejaVuSans-35" x="95.410156"/>
      </g>
     </g>
    </g>
    <g id="ytick_16">
     <g id="line2d_33">
      <g>
       <use xlink:href="#m18abdac929" x="63.2" y="435.144295" style="stroke: #000000; stroke-width: 0.8"/>
      </g>
     </g>
     <g id="text_25">
      <!-- 0.6 -->
      <g transform="translate(40.296875 438.943514)scale(0.1 -0.1)">
       <use xlink:href="#DejaVuSans-30"/>
       <use xlink:href="#DejaVuSans-2e" x="63.623047"/>
       <use xlink:href="#DejaVuSans-36" x="95.410156"/>
      </g>
     </g>
    </g>
    <g id="text_26">
     <!-- $\rm\Delta G_{\lambda}$ -->
     <g transform="translate(23.019375 643.304823)rotate(-90)scale(0.1 -0.1)">
      <use xlink:href="#DejaVuSans-394" transform="translate(0 0.78125)"/>
      <use xlink:href="#DejaVuSans-47" transform="translate(68.408203 0.78125)"/>
      <use xlink:href="#DejaVuSans-3bb" transform="translate(146.855469 -15.625)scale(0.7)"/>
     </g>
     <!-- (kcal/mol) -->
     <g transform="translate(34.217188 658.707167)rotate(-90)scale(0.1 -0.1)">
      <use xlink:href="#DejaVuSans-28"/>
      <use xlink:href="#DejaVuSans-6b" x="39.013672"/>
      <use xlink:href="#DejaVuSans-63" x="96.923828"/>
      <use xlink:href="#DejaVuSans-61" x="151.904297"/>
      <use xlink:href="#DejaVuSans-6c" x="213.183594"/>
      <use xlink:href="#DejaVuSans-2f" x="240.966797"/>
      <use xlink:href="#DejaVuSans-6d" x="274.658203"/>
      <use xlink:href="#DejaVuSans-6f" x="372.070312"/>
      <use xlink:href="#DejaVuSans-6c" x="433.251953"/>
      <use xlink:href="#DejaVuSans-29" x="461.035156"/>
     </g>
    </g>
   </g>
   <g id="LineCollection_3">
    <path d="M 86.018182 786.92605 
L 86.018182 786.92605 
" clip-path="url(#p794afaf233)" style="fill: none; stroke: #0072b2"/>
    <path d="M 97.427273 786.92537 
L 97.427273 786.924228 
" clip-path="url(#p794afaf233)" style="fill: none; stroke: #0072b2"/>
    <path d="M 108.836364 786.907147 
L 108.836364 786.869764 
" clip-path="url(#p794afaf233)" style="fill: none; stroke: #0072b2"/>
    <path d="M 120.245455 786.766826 
L 120.245455 786.479084 
" clip-path="url(#p794afaf233)" style="fill: none; stroke: #0072b2"/>
    <path d="M 131.654545 786.453152 
L 131.654545 785.218216 
" clip-path="url(#p794afaf233)" style="fill: none; stroke: #0072b2"/>
    <path d="M 143.063636 784.772378 
L 143.063636 781.29436 
" clip-path="url(#p794afaf233)" style="fill: none; stroke: #0072b2"/>
    <path d="M 154.472727 781.955332 
L 154.472727 773.217009 
" clip-path="url(#p794afaf233)" style="fill: none; stroke: #0072b2"/>
    <path d="M 165.881818 776.301515 
L 165.881818 758.029359 
" clip-path="url(#p794afaf233)" style="fill: none; stroke: #0072b2"/>
    <path d="M 177.290909 770.762031 
L 177.290909 732.460756 
" clip-path="url(#p794afaf233)" style="fill: none; stroke: #0072b2"/>
    <path d="M 188.7 758.85551 
L 188.7 688.075534 
" clip-path="url(#p794afaf233)" style="fill: none; stroke: #0072b2"/>
    <path d="M 200.109091 743.385755 
L 200.109091 625.354875 
" clip-path="url(#p794afaf233)" style="fill: none; stroke: #0072b2"/>
    <path d="M 211.518182 740.173848 
L 211.518182 560.847685 
" clip-path="url(#p794afaf233)" style="fill: none; stroke: #0072b2"/>
    <path d="M 222.927273 742.263184 
L 222.927273 499.580099 
" clip-path="url(#p794afaf233)" style="fill: none; stroke: #0072b2"/>
    <path d="M 234.336364 761.767756 
L 234.336364 475.90243 
" clip-path="url(#p794afaf233)" style="fill: none; stroke: #0072b2"/>
    <path d="M 245.745455 771.923977 
L 245.745455 449.618298 
" clip-path="url(#p794afaf233)" style="fill: none; stroke: #0072b2"/>
    <path d="M 257.154545 757.742201 
L 257.154545 463.619964 
" clip-path="url(#p794afaf233)" style="fill: none; stroke: #0072b2"/>
    <path d="M 268.563636 773.099674 
L 268.563636 482.45384 
" clip-path="url(#p794afaf233)" style="fill: none; stroke: #0072b2"/>
    <path d="M 279.972727 782.547894 
L 279.972727 498.645323 
" clip-path="url(#p794afaf233)" style="fill: none; stroke: #0072b2"/>
    <path d="M 291.381818 792.354449 
L 291.381818 554.033638 
" clip-path="url(#p794afaf233)" style="fill: none; stroke: #0072b2"/>
    <path d="M 302.790909 804.711421 
L 302.790909 549.916503 
" clip-path="url(#p794afaf233)" style="fill: none; stroke: #0072b2"/>
    <path d="M 314.2 805.975621 
L 314.2 577.390043 
" clip-path="url(#p794afaf233)" style="fill: none; stroke: #0072b2"/>
    <path d="M 325.609091 804.38581 
L 325.609091 602.909704 
" clip-path="url(#p794afaf233)" style="fill: none; stroke: #0072b2"/>
    <path d="M 337.018182 808.081485 
L 337.018182 641.963977 
" clip-path="url(#p794afaf233)" style="fill: none; stroke: #0072b2"/>
    <path d="M 348.427273 817.791348 
L 348.427273 633.009447 
" clip-path="url(#p794afaf233)" style="fill: none; stroke: #0072b2"/>
    <path d="M 359.836364 814.86149 
L 359.836364 650.583441 
" clip-path="url(#p794afaf233)" style="fill: none; stroke: #0072b2"/>
    <path d="M 371.245455 816.303783 
L 371.245455 664.76286 
" clip-path="url(#p794afaf233)" style="fill: none; stroke: #0072b2"/>
    <path d="M 382.654545 814.718999 
L 382.654545 681.368316 
" clip-path="url(#p794afaf233)" style="fill: none; stroke: #0072b2"/>
    <path d="M 394.063636 814.558013 
L 394.063636 690.757033 
" clip-path="url(#p794afaf233)" style="fill: none; stroke: #0072b2"/>
    <path d="M 405.472727 814.754835 
L 405.472727 693.844934 
" clip-path="url(#p794afaf233)" style="fill: none; stroke: #0072b2"/>
    <path d="M 416.881818 813.543114 
L 416.881818 712.135313 
" clip-path="url(#p794afaf233)" style="fill: none; stroke: #0072b2"/>
    <path d="M 428.290909 810.529096 
L 428.290909 719.731889 
" clip-path="url(#p794afaf233)" style="fill: none; stroke: #0072b2"/>
    <path d="M 439.7 812.389593 
L 439.7 723.165104 
" clip-path="url(#p794afaf233)" style="fill: none; stroke: #0072b2"/>
    <path d="M 451.109091 811.626458 
L 451.109091 724.639026 
" clip-path="url(#p794afaf233)" style="fill: none; stroke: #0072b2"/>
    <path d="M 462.518182 810.419521 
L 462.518182 731.087621 
" clip-path="url(#p794afaf233)" style="fill: none; stroke: #0072b2"/>
    <path d="M 473.927273 805.803207 
L 473.927273 742.831754 
" clip-path="url(#p794afaf233)" style="fill: none; stroke: #0072b2"/>
    <path d="M 485.336364 806.675838 
L 485.336364 743.173876 
" clip-path="url(#p794afaf233)" style="fill: none; stroke: #0072b2"/>
    <path d="M 496.745455 808.157275 
L 496.745455 740.590485 
" clip-path="url(#p794afaf233)" style="fill: none; stroke: #0072b2"/>
    <path d="M 508.154545 806.293627 
L 508.154545 745.043196 
" clip-path="url(#p794afaf233)" style="fill: none; stroke: #0072b2"/>
    <path d="M 519.563636 805.048689 
L 519.563636 750.802228 
" clip-path="url(#p794afaf233)" style="fill: none; stroke: #0072b2"/>
    <path d="M 530.972727 806.448126 
L 530.972727 749.082917 
" clip-path="url(#p794afaf233)" style="fill: none; stroke: #0072b2"/>
    <path d="M 542.381818 803.389542 
L 542.381818 755.061307 
" clip-path="url(#p794afaf233)" style="fill: none; stroke: #0072b2"/>
   </g>
   <g id="line2d_34">
    <path d="M 86.018182 786.92605 
L 97.427273 786.924799 
L 108.836364 786.888455 
L 120.245455 786.622955 
L 131.654545 785.835684 
L 143.063636 783.033369 
L 154.472727 777.586171 
L 165.881818 767.165437 
L 177.290909 751.611393 
L 188.7 723.465522 
L 200.109091 684.370315 
L 211.518182 650.510767 
L 222.927273 620.921642 
L 234.336364 618.835093 
L 245.745455 610.771138 
L 257.154545 610.681083 
L 268.563636 627.776757 
L 279.972727 640.596608 
L 291.381818 673.194044 
L 302.790909 677.313962 
L 314.2 691.682832 
L 325.609091 703.647757 
L 337.018182 725.022731 
L 348.427273 725.400397 
L 359.836364 732.722466 
L 371.245455 740.533321 
L 382.654545 748.043658 
L 394.063636 752.657523 
L 405.472727 754.299885 
L 416.881818 762.839214 
L 428.290909 765.130493 
L 439.7 767.777348 
L 451.109091 768.132742 
L 462.518182 770.753571 
L 473.927273 774.31748 
L 485.336364 774.924857 
L 496.745455 774.37388 
L 508.154545 775.668411 
L 519.563636 777.925459 
L 530.972727 777.765522 
L 542.381818 779.225425 
" clip-path="url(#p794afaf233)" style="fill: none; stroke: #0072b2; stroke-linecap: square"/>
   </g>
   <g id="patch_9">
    <path d="M 63.2 836.2 
L 63.2 431.209646 
" style="fill: none; stroke: #000000; stroke-width: 0.8; stroke-linejoin: miter; stroke-linecap: square"/>
   </g>
   <g id="patch_10">
    <path d="M 565.2 836.2 
L 565.2 431.209646 
" style="fill: none; stroke: #000000; stroke-width: 0.8; stroke-linejoin: miter; stroke-linecap: square"/>
   </g>
   <g id="patch_11">
    <path d="M 63.2 836.2 
L 565.2 836.2 
" style="fill: none; stroke: #000000; stroke-width: 0.8; stroke-linejoin: miter; stroke-linecap: square"/>
   </g>
   <g id="patch_12">
    <path d="M 63.2 431.209646 
L 565.2 431.209646 
" style="fill: none; stroke: #000000; stroke-width: 0.8; stroke-linejoin: miter; stroke-linecap: square"/>
   </g>
  </g>
 </g>
 <defs>
  <clipPath id="p59dc8740cd">
   <rect x="63.2" y="10.8" width="502" height="404.990354"/>
  </clipPath>
  <clipPath id="p794afaf233">
   <rect x="63.2" y="431.209646" width="502" height="404.990354"/>
  </clipPath>
 </defs>
</svg>
